<?xml version="1.0" encoding="UTF-8" standalone="no"?>
<!-- Created with Inkscape (http://www.inkscape.org/) -->

<svg
   xmlns:dc="http://purl.org/dc/elements/1.1/"
   xmlns:cc="http://creativecommons.org/ns#"
   xmlns:rdf="http://www.w3.org/1999/02/22-rdf-syntax-ns#"
   xmlns:svg="http://www.w3.org/2000/svg"
   xmlns="http://www.w3.org/2000/svg"
   xmlns:sodipodi="http://sodipodi.sourceforge.net/DTD/sodipodi-0.dtd"
   xmlns:inkscape="http://www.inkscape.org/namespaces/inkscape"
   version="1.1"
   id="svg39411"
   xml:space="preserve"
   width="400.11414"
   height="518.88"
   viewBox="0 0 400.11414 518.88"
   sodipodi:docname="Figure 1.1.svg"
   inkscape:version="0.92.3 (2405546, 2018-03-11)"><metadata
     id="metadata39417"><rdf:RDF><cc:Work
         rdf:about=""><dc:format>image/svg+xml</dc:format><dc:type
           rdf:resource="http://purl.org/dc/dcmitype/StillImage" /><dc:title></dc:title></cc:Work></rdf:RDF></metadata><defs
     id="defs39415"><clipPath
       clipPathUnits="userSpaceOnUse"
       id="clipPath39473"><path
         d="m 402.213,611.929 h -300.1 V 222.75 h 300.1 z"
         id="path39471"
         inkscape:connector-curvature="0" /></clipPath><clipPath
       clipPathUnits="userSpaceOnUse"
       id="clipPath39481"><path
         d="M 102.12,611.918 H 402.24 V 222.758 H 102.12 Z"
         id="path39479"
         inkscape:connector-curvature="0"
         style="clip-rule:evenodd" /></clipPath><clipPath
       clipPathUnits="userSpaceOnUse"
       id="clipPath39489"><path
         d="m 102.12,611.918 h 372 v -455.52 h -372 z"
         id="path39487"
         inkscape:connector-curvature="0"
         style="clip-rule:evenodd" /></clipPath><clipPath
       clipPathUnits="userSpaceOnUse"
       id="clipPath39497"><path
         d="m 66.12,611.918 h 408 v -552 h -408 z"
         id="path39495"
         inkscape:connector-curvature="0"
         style="clip-rule:evenodd" /></clipPath><clipPath
       clipPathUnits="userSpaceOnUse"
       id="clipPath39505"><path
         d="M 0,666.03 H 531 V 0.03 H 0 Z"
         id="path39503"
         inkscape:connector-curvature="0" /></clipPath><clipPath
       clipPathUnits="userSpaceOnUse"
       id="clipPath39661"><path
         d="m 159.866,521.265 h 28.876 v -28.802 h -28.876 v 28.802"
         id="path39659"
         inkscape:connector-curvature="0"
         style="clip-rule:evenodd" /></clipPath><clipPath
       clipPathUnits="userSpaceOnUse"
       id="clipPath39669"><path
         d="m 402.213,611.929 h -300.1 V 222.75 h 300.1 z"
         id="path39667"
         inkscape:connector-curvature="0" /></clipPath><clipPath
       clipPathUnits="userSpaceOnUse"
       id="clipPath39677"><path
         d="M 102.12,611.918 H 402.24 V 222.758 H 102.12 Z"
         id="path39675"
         inkscape:connector-curvature="0"
         style="clip-rule:evenodd" /></clipPath><clipPath
       clipPathUnits="userSpaceOnUse"
       id="clipPath39685"><path
         d="m 102.12,611.918 h 372 v -455.52 h -372 z"
         id="path39683"
         inkscape:connector-curvature="0"
         style="clip-rule:evenodd" /></clipPath><clipPath
       clipPathUnits="userSpaceOnUse"
       id="clipPath39693"><path
         d="m 66.12,611.918 h 408 v -552 h -408 z"
         id="path39691"
         inkscape:connector-curvature="0"
         style="clip-rule:evenodd" /></clipPath><clipPath
       clipPathUnits="userSpaceOnUse"
       id="clipPath39701"><path
         d="M 0,666.03 H 531 V 0.03 H 0 Z"
         id="path39699"
         inkscape:connector-curvature="0" /></clipPath><clipPath
       clipPathUnits="userSpaceOnUse"
       id="clipPath39721"><path
         d="m 402.213,611.929 h -300.1 V 222.75 h 300.1 z"
         id="path39719"
         inkscape:connector-curvature="0" /></clipPath><clipPath
       clipPathUnits="userSpaceOnUse"
       id="clipPath39729"><path
         d="M 102.12,611.918 H 402.24 V 222.758 H 102.12 Z"
         id="path39727"
         inkscape:connector-curvature="0"
         style="clip-rule:evenodd" /></clipPath><clipPath
       clipPathUnits="userSpaceOnUse"
       id="clipPath39737"><path
         d="m 102.12,611.918 h 372 v -455.52 h -372 z"
         id="path39735"
         inkscape:connector-curvature="0"
         style="clip-rule:evenodd" /></clipPath><clipPath
       clipPathUnits="userSpaceOnUse"
       id="clipPath39745"><path
         d="m 66.12,611.918 h 408 v -552 h -408 z"
         id="path39743"
         inkscape:connector-curvature="0"
         style="clip-rule:evenodd" /></clipPath><clipPath
       clipPathUnits="userSpaceOnUse"
       id="clipPath39753"><path
         d="M 0,666.03 H 531 V 0.03 H 0 Z"
         id="path39751"
         inkscape:connector-curvature="0" /></clipPath><clipPath
       clipPathUnits="userSpaceOnUse"
       id="clipPath39791"><path
         d="m 102.12,611.918 h 372 v -455.52 h -372 z"
         id="path39789"
         inkscape:connector-curvature="0"
         style="clip-rule:evenodd" /></clipPath><clipPath
       clipPathUnits="userSpaceOnUse"
       id="clipPath39799"><path
         d="m 66.12,611.918 h 408 v -552 h -408 z"
         id="path39797"
         inkscape:connector-curvature="0"
         style="clip-rule:evenodd" /></clipPath><clipPath
       clipPathUnits="userSpaceOnUse"
       id="clipPath39807"><path
         d="M 0,666.03 H 531 V 0.03 H 0 Z"
         id="path39805"
         inkscape:connector-curvature="0" /></clipPath></defs><sodipodi:namedview
     pagecolor="#ffffff"
     bordercolor="#666666"
     borderopacity="1"
     objecttolerance="10"
     gridtolerance="10"
     guidetolerance="10"
     inkscape:pageopacity="0"
     inkscape:pageshadow="2"
     inkscape:window-width="1920"
     inkscape:window-height="1017"
     id="namedview39413"
     showgrid="false"
     fit-margin-top="0"
     fit-margin-left="0"
     fit-margin-right="0"
     fit-margin-bottom="0"
     inkscape:zoom="0.7516991"
     inkscape:cx="553.25917"
     inkscape:cy="317.32725"
     inkscape:window-x="-8"
     inkscape:window-y="-8"
     inkscape:window-maximized="1"
     inkscape:current-layer="g39419" /><g
     id="g39419"
     inkscape:groupmode="layer"
     inkscape:label="Hugo in Action Static sites and dynamic Jamstack apps (Atishay Jain) (z-lib.org)"
     transform="matrix(1.3333333,0,0,-1.3333333,-136.16,815.89065)"><g
       id="g39467"><g
         id="g39469"
         clip-path="url(#clipPath39473)"><g
           id="g39475"><g
             id="g39477"
             clip-path="url(#clipPath39481)"><g
               id="g39483"><g
                 id="g39485"
                 clip-path="url(#clipPath39489)"><g
                   id="g39491"><g
                     id="g39493"
                     clip-path="url(#clipPath39497)"><g
                       id="g39499"><g
                         id="g39501"
                         clip-path="url(#clipPath39505)"><g
                           id="g39507"><path
                             d="m 291.131,336.935 h 43.067 v 79.023 h -43.067 z"
                             style="fill:#e4e8f7;fill-opacity:1;fill-rule:nonzero;stroke:none"
                             id="path39509"
                             inkscape:connector-curvature="0" /></g><g
                           id="g39511"><path
                             d="m 312.417,294.863 h 0.496 v 34.53 h -0.496 z"
                             style="fill:#100f0d;fill-opacity:1;fill-rule:nonzero;stroke:none"
                             id="path39513"
                             inkscape:connector-curvature="0" /></g><g
                           id="g39515"><path
                             d="m 314.108,328.409 -1.443,5.386 -1.443,-5.386 h 2.886"
                             style="fill:#100f0d;fill-opacity:1;fill-rule:nonzero;stroke:none"
                             id="path39517"
                             inkscape:connector-curvature="0" /></g><g
                           id="g39519"><path
                             d="m 213.351,601.031 h 72.962 v 9.719 h -72.962 z"
                             style="fill:#504eaa;fill-opacity:1;fill-rule:nonzero;stroke:none"
                             id="path39521"
                             inkscape:connector-curvature="0" /></g><g
                           id="g39523"><path
                             d="m 215.709,560.956 h 70.604 v 37.716 h -70.604 z"
                             style="fill:#e4e8f7;fill-opacity:1;fill-rule:nonzero;stroke:none"
                             id="path39525"
                             inkscape:connector-curvature="0" /></g><g
                           id="g39527"><path
                             d="m 244.415,589.966 3.892,-15.018 3.862,3.882 8.622,-8.7 3.394,3.372 -8.677,8.706 3.851,3.823 z m -28.706,8.706 h 70.604 v -37.716 h -70.604 z m 52.07,8.795 c -0.564,0 -1.105,-0.22 -1.504,-0.622 -0.403,-0.397 -0.624,-0.943 -0.624,-1.506 0,-0.569 0.221,-1.108 0.619,-1.511 0.404,-0.397 0.945,-0.622 1.509,-0.622 0.565,0 1.105,0.225 1.503,0.622 0.399,0.403 0.624,0.942 0.624,1.511 0,0.563 -0.225,1.109 -0.624,1.506 -0.398,0.402 -0.938,0.622 -1.503,0.622 z m 7.237,0.012 c -0.565,0 -1.105,-0.226 -1.503,-0.623 -0.399,-0.403 -0.624,-0.942 -0.624,-1.511 0,-0.563 0.225,-1.108 0.624,-1.505 0.398,-0.403 0.938,-0.628 1.503,-0.628 0.564,0 1.105,0.225 1.504,0.628 0.397,0.397 0.623,0.942 0.623,1.505 0,0.569 -0.226,1.108 -0.623,1.511 -0.399,0.397 -0.94,0.623 -1.504,0.623 z m 7.273,0.017 c -0.564,0 -1.104,-0.225 -1.504,-0.628 -0.397,-0.397 -0.624,-0.942 -0.624,-1.505 0,-0.563 0.227,-1.108 0.624,-1.505 0.4,-0.403 0.94,-0.629 1.504,-0.629 0.566,0 1.106,0.226 1.504,0.623 0.397,0.403 0.624,0.948 0.624,1.511 0,0.563 -0.227,1.108 -0.624,1.505 -0.398,0.403 -0.938,0.628 -1.504,0.628 z m -66.58,2.069 h 70.604 v -8.534 h -70.604 z m 72.962,2.364 h -75.32 v -53.338 h 75.32 z"
                             style="fill:#100f0d;fill-opacity:1;fill-rule:nonzero;stroke:none"
                             id="path39529"
                             inkscape:connector-curvature="0" /></g><g
                           id="g39531"><path
                             d="m 328.205,383.126 h -31.433 v -3.153 h 31.433 z m 0,8.225 h -31.433 v -3.152 h 31.433 z m 0,8.227 h -31.433 v -3.152 h 31.433 z m 0,8.226 h -31.433 v -3.153 h 31.433 z m -37.778,8.154 c -0.927,0 -1.379,-0.646 -1.551,-0.995 -0.172,-0.35 -0.208,-0.641 -0.208,-0.943 v -78.3 c 0,-0.302 0.036,-0.592 0.208,-0.942 0.172,-0.349 0.624,-0.996 1.551,-0.996 h 44.475 c 0.927,0 1.379,0.647 1.551,0.996 0.173,0.35 0.208,0.64 0.208,0.942 v 78.3 c 0,0.302 -0.035,0.593 -0.208,0.943 -0.172,0.349 -0.624,0.995 -1.551,0.995 z m 1.408,-3.152 h 41.659 v -75.871 h -41.659 z"
                             style="fill:#100f0d;fill-opacity:1;fill-rule:nonzero;stroke:none"
                             id="path39533"
                             inkscape:connector-curvature="0" /></g><g
                           id="g39535"><path
                             d="m 312.941,415.958 v 71.527 h -62.127 v -0.497 h 61.63 v -71.03 h 0.497"
                             style="fill:#100f0d;fill-opacity:1;fill-rule:nonzero;stroke:none"
                             id="path39537"
                             inkscape:connector-curvature="0" /></g><g
                           id="g39539"><path
                             d="m 177.051,416.355 v 70.601 h 74.576 v 67.739 h -0.498 v -67.242 h -74.575 v -71.098 h 0.497"
                             style="fill:#100f0d;fill-opacity:1;fill-rule:nonzero;stroke:none"
                             id="path39541"
                             inkscape:connector-curvature="0" /></g><g
                           id="g39543"><path
                             d="m 252.821,553.711 -1.443,5.386 -1.443,-5.386 h 2.886"
                             style="fill:#100f0d;fill-opacity:1;fill-rule:nonzero;stroke:none"
                             id="path39545"
                             inkscape:connector-curvature="0" /></g><g
                           id="g39547"><path
                             d="m 140.264,374.573 h 1.001 v 20.165 l 35.542,20.463 35.542,-20.463 v -19.586 l -35.542,-20.463 -36.044,20.751 -0.499,-0.867 h 1.001 -1.001 l -0.499,-0.867 36.543,-21.039 c 0.309,-0.179 0.688,-0.179 0.998,0 l 36.543,21.039 c 0.31,0.178 0.502,0.51 0.502,0.867 v 20.743 c 0,0.358 -0.192,0.689 -0.502,0.868 l -36.543,21.039 c -0.31,0.178 -0.689,0.178 -0.998,0 l -36.543,-21.039 c -0.31,-0.179 -0.502,-0.51 -0.502,-0.868 v -20.743 c 0,-0.357 0.192,-0.689 0.502,-0.867 l 0.499,0.867"
                             style="fill:#262424;fill-opacity:1;fill-rule:nonzero;stroke:none"
                             id="path39549"
                             inkscape:connector-curvature="0" /></g><g
                           id="g39551"><path
                             d="m 140.264,374.573 v 20.743 l 36.543,21.039 36.543,-21.039 v -20.743 l -36.543,-21.039 -36.543,21.039"
                             style="fill:#f3f5fb;fill-opacity:1;fill-rule:nonzero;stroke:none"
                             id="path39553"
                             inkscape:connector-curvature="0" /></g><g
                           id="g39555"><path
                             d="m 140.264,374.573 h 1.001 v 20.165 l 35.542,20.463 35.542,-20.463 v -19.586 l -35.542,-20.463 -36.044,20.751 -0.499,-0.867 h 1.001 -1.001 l -0.499,-0.867 36.543,-21.039 c 0.309,-0.179 0.688,-0.179 0.998,0 l 36.543,21.039 c 0.31,0.178 0.502,0.51 0.502,0.867 v 20.743 c 0,0.358 -0.192,0.689 -0.502,0.868 l -36.543,21.039 c -0.31,0.178 -0.689,0.178 -0.998,0 l -36.543,-21.039 c -0.31,-0.179 -0.502,-0.51 -0.502,-0.868 v -20.743 c 0,-0.357 0.192,-0.689 0.502,-0.867 l 0.499,0.867"
                             style="fill:#262424;fill-opacity:1;fill-rule:nonzero;stroke:none"
                             id="path39557"
                             inkscape:connector-curvature="0" /></g><g
                           id="g39559"><path
                             d="m 176.807,354.689 -35.542,20.463 v 19.586 l 0.002,10e-4 35.54,-20.462 v -19.588"
                             style="fill:#e2def2;fill-opacity:1;fill-rule:nonzero;stroke:none"
                             id="path39561"
                             inkscape:connector-curvature="0" /></g><g
                           id="g39563"><path
                             d="m 176.807,353.534 -36.543,21.039 h 1.001 -1.001 v 20.743 l 1.003,-0.577 -0.002,-10e-4 v -19.586 l 35.542,-20.463 v -1.155"
                             style="fill:#282734;fill-opacity:1;fill-rule:nonzero;stroke:none"
                             id="path39565"
                             inkscape:connector-curvature="0" /></g><g
                           id="g39567"><path
                             d="m 176.807,354.689 v 19.588 l 35.54,20.462 0.002,-10e-4 v -19.586 l -35.542,-20.463"
                             style="fill:#bbb2e0;fill-opacity:1;fill-rule:nonzero;stroke:none"
                             id="path39569"
                             inkscape:connector-curvature="0" /></g><g
                           id="g39571"><path
                             d="m 176.807,353.534 v 1.155 l 35.542,20.463 v 19.586 l -0.002,10e-4 1.003,0.577 v -20.743 l -36.543,-21.039"
                             style="fill:#2a2949;fill-opacity:1;fill-rule:nonzero;stroke:none"
                             id="path39573"
                             inkscape:connector-curvature="0" /></g><g
                           id="g39575"><path
                             d="m 140.264,374.573 h 0.5 v 19.878 l 35.543,-20.463 V 354.4 l -35.793,20.607 -0.25,-0.434 h 0.5 -0.5 l -0.25,-0.434 36.543,-21.039 c 0.155,-0.089 0.346,-0.089 0.5,10e-4 0.155,0.089 0.25,0.254 0.25,0.433 v 20.743 c 0,0.179 -0.095,0.345 -0.25,0.434 l -36.543,21.039 c -0.155,0.089 -0.346,0.089 -0.501,-10e-4 -0.154,-0.089 -0.249,-0.254 -0.249,-0.433 v -20.743 c 0,-0.179 0.095,-0.344 0.25,-0.434 l 0.25,0.434"
                             style="fill:#100f0d;fill-opacity:1;fill-rule:nonzero;stroke:none"
                             id="path39577"
                             inkscape:connector-curvature="0" /></g><g
                           id="g39579"><path
                             d="m 213.351,374.573 h 0.5 v 20.743 c 0,0.179 -0.095,0.344 -0.25,0.433 -0.155,0.09 -0.345,0.09 -0.5,10e-4 l -36.543,-21.039 c -0.155,-0.089 -0.251,-0.255 -0.251,-0.434 v -20.743 c 0,-0.179 0.095,-0.344 0.25,-0.433 0.155,-0.09 0.345,-0.09 0.5,-10e-4 l 36.543,21.039 c 0.155,0.09 0.251,0.255 0.251,0.434 h -0.5 l -0.25,0.434 -35.793,-20.607 v 19.588 l 35.542,20.463 v -19.878 h 0.501 l -0.25,0.434 0.25,-0.434"
                             style="fill:#100f0d;fill-opacity:1;fill-rule:nonzero;stroke:none"
                             id="path39581"
                             inkscape:connector-curvature="0" /></g><g
                           id="g39583"><path
                             d="m 183.667,370.922 24.243,14.052 c 0.478,0.277 0.641,0.889 0.364,1.368 -0.277,0.478 -0.89,0.641 -1.368,0.364 l -24.243,-14.052 c -0.478,-0.277 -0.641,-0.89 -0.364,-1.368 0.277,-0.478 0.89,-0.641 1.368,-0.364 z m -37.489,14.052 24.184,-14.051 c 0.478,-0.278 1.091,-0.116 1.369,0.362 0.277,0.478 0.115,1.091 -0.363,1.368 l -24.184,14.052 c -0.478,0.278 -1.091,0.115 -1.368,-0.363 -0.278,-0.477 -0.116,-1.09 0.362,-1.368"
                             style="fill:#100f0d;fill-opacity:1;fill-rule:nonzero;stroke:none"
                             id="path39585"
                             inkscape:connector-curvature="0" /></g><g
                           id="g39587"><text
                             transform="matrix(1,0,0,-0.99729306,199.042,345.534)"
                             style="font-variant:normal;font-weight:normal;font-size:7.01900005px;font-family:Arial;-inkscape-font-specification:ArialMT;writing-mode:lr-tb;fill:#100f0d;fill-opacity:1;fill-rule:nonzero;stroke:none"
                             id="text39591"><tspan
                               x="0 6.625936 10.5285 14.431064 16.382345 19.891846 23.794411 26.131737 29.641237 33.5438"
                               y="0"
                               sodipodi:role="line"
                               id="tspan39589">Web server</tspan></text>
<text
                             transform="matrix(1,0,0,-0.99729306,346.331,349.09)"
                             style="font-variant:normal;font-weight:normal;font-size:7.01900005px;font-family:Arial;-inkscape-font-specification:ArialMT;writing-mode:lr-tb;fill:#100f0d;fill-opacity:1;fill-rule:nonzero;stroke:none"
                             id="text39595"><tspan
                               x="0 4.681673 8.5842371 12.486801 14.045019 15.603237 19.112738 23.015301 24.966583 26.524801 30.427364 34.329929 36.279808 39.789307 43.691872 46.029198 49.5387 53.441261"
                               y="0"
                               sodipodi:role="line"
                               id="tspan39593">Application server</tspan></text>
<text
                             transform="matrix(1,0,0,-0.99729306,360.001,248.34)"
                             style="font-variant:normal;font-weight:normal;font-size:7.01900005px;font-family:Arial;-inkscape-font-specification:ArialMT;writing-mode:lr-tb;fill:#100f0d;fill-opacity:1;fill-rule:nonzero;stroke:none"
                             id="text39599"><tspan
                               x="0 5.067718 8.9702816 10.921564 14.824128 18.726692 22.629255 26.138756"
                               y="0"
                               sodipodi:role="line"
                               id="tspan39597">Database</tspan></text>
<text
                             transform="matrix(1,0,0,-0.99729306,273.059,544.664)"
                             style="font-variant:normal;font-weight:normal;font-size:7.01900005px;font-family:Arial;-inkscape-font-specification:ArialMT;writing-mode:lr-tb;fill:#100f0d;fill-opacity:1;fill-rule:nonzero;stroke:none"
                             id="text39603"><tspan
                               x="0 4.681673 7.0190001 10.921564 15.989282 19.498781 23.401346"
                               y="0"
                               sodipodi:role="line"
                               id="tspan39601">Browser</tspan></text>
</g><g
                           id="g39605"><path
                             d="m 281.766,285.054 c 0,5.417 13.833,9.808 30.898,9.808 17.066,0 30.899,-4.391 30.899,-9.808 v -51.495 c 0,-5.416 -13.833,-9.808 -30.899,-9.808 -17.065,0 -30.898,4.392 -30.898,9.808 v 51.495"
                             style="fill:#ced1ed;fill-opacity:1;fill-rule:nonzero;stroke:none"
                             id="path39607"
                             inkscape:connector-curvature="0" /></g><g
                           id="g39609"><path
                             d="m 281.766,285.054 h 1 c 0.002,0.461 0.141,0.924 0.468,1.435 0.567,0.892 1.751,1.872 3.468,2.764 2.572,1.347 6.301,2.513 10.762,3.325 4.461,0.815 9.657,1.283 15.2,1.283 8.446,0.002 16.092,-1.092 21.546,-2.825 2.725,-0.863 4.9,-1.893 6.323,-2.964 0.712,-0.534 1.233,-1.075 1.56,-1.583 0.327,-0.511 0.466,-0.974 0.468,-1.435 v -51.495 c -0.002,-0.46 -0.141,-0.923 -0.468,-1.434 -0.567,-0.891 -1.75,-1.872 -3.468,-2.764 -2.572,-1.346 -6.301,-2.513 -10.76,-3.325 -4.461,-0.815 -9.658,-1.284 -15.201,-1.284 -8.445,-0.002 -16.091,1.093 -21.546,2.826 -2.726,0.863 -4.9,1.893 -6.324,2.964 -0.712,0.534 -1.233,1.075 -1.56,1.583 -0.327,0.511 -0.466,0.974 -0.468,1.434 v 51.495 h -2.001 v -51.495 c -0.002,-0.893 0.291,-1.753 0.787,-2.518 0.874,-1.343 2.328,-2.459 4.223,-3.454 2.847,-1.485 6.73,-2.68 11.329,-3.521 4.597,-0.839 9.904,-1.316 15.56,-1.316 8.621,0.002 16.423,1.103 22.151,2.921 2.866,0.912 5.216,1.995 6.919,3.271 0.851,0.639 1.545,1.33 2.042,2.099 0.496,0.765 0.789,1.625 0.787,2.518 v 51.495 c 0.002,0.894 -0.291,1.754 -0.787,2.519 -0.874,1.343 -2.329,2.459 -4.224,3.454 -2.846,1.485 -6.73,2.679 -11.328,3.52 -4.597,0.839 -9.903,1.316 -15.56,1.316 -8.62,-0.002 -16.423,-1.103 -22.152,-2.919 -2.866,-0.912 -5.216,-1.996 -6.919,-3.271 -0.851,-0.64 -1.544,-1.331 -2.041,-2.1 -0.496,-0.765 -0.789,-1.625 -0.787,-2.519 h 1.001"
                             style="fill:#100f0d;fill-opacity:1;fill-rule:nonzero;stroke:none"
                             id="path39611"
                             inkscape:connector-curvature="0" /></g><g
                           id="g39613"><path
                             d="m 280.765,250.479 c -0.002,-0.893 0.291,-1.753 0.787,-2.519 0.874,-1.343 2.328,-2.459 4.223,-3.454 2.847,-1.485 6.73,-2.679 11.329,-3.52 4.597,-0.839 9.904,-1.316 15.56,-1.316 8.621,0.002 16.423,1.103 22.151,2.92 2.866,0.912 5.216,1.996 6.919,3.271 0.851,0.639 1.545,1.33 2.042,2.099 0.496,0.766 0.789,1.626 0.787,2.519 h -2.002 c -0.002,-0.461 -0.141,-0.923 -0.468,-1.434 -0.567,-0.892 -1.75,-1.873 -3.468,-2.765 -2.572,-1.346 -6.301,-2.513 -10.76,-3.325 -4.461,-0.815 -9.657,-1.284 -15.201,-1.284 -8.445,-0.001 -16.091,1.093 -21.546,2.826 -2.726,0.863 -4.9,1.893 -6.324,2.965 -0.712,0.534 -1.233,1.075 -1.56,1.583 -0.327,0.511 -0.466,0.973 -0.468,1.434 z m 0,18.39 c -0.002,-0.893 0.291,-1.753 0.787,-2.519 0.874,-1.343 2.328,-2.458 4.223,-3.453 2.847,-1.486 6.73,-2.681 11.329,-3.522 4.597,-0.839 9.904,-1.315 15.56,-1.316 8.621,0.002 16.423,1.104 22.151,2.92 2.866,0.913 5.216,1.997 6.919,3.272 0.851,0.64 1.545,1.331 2.042,2.099 0.496,0.766 0.789,1.626 0.787,2.519 h -2.002 c -0.002,-0.461 -0.141,-0.923 -0.468,-1.434 -0.567,-0.892 -1.75,-1.872 -3.468,-2.764 -2.572,-1.347 -6.301,-2.514 -10.76,-3.327 -4.461,-0.814 -9.657,-1.283 -15.201,-1.283 -8.445,-0.002 -16.091,1.092 -21.546,2.827 -2.726,0.863 -4.9,1.892 -6.324,2.964 -0.712,0.534 -1.233,1.075 -1.56,1.583 -0.327,0.511 -0.466,0.973 -0.468,1.434 z m 0,16.184 c -0.002,-0.893 0.291,-1.753 0.787,-2.518 0.874,-1.343 2.328,-2.459 4.223,-3.454 2.847,-1.484 6.73,-2.679 11.329,-3.52 4.597,-0.839 9.904,-1.316 15.56,-1.316 8.621,0.002 16.423,1.104 22.151,2.92 2.866,0.912 5.216,1.996 6.919,3.271 0.851,0.639 1.545,1.33 2.042,2.099 0.496,0.765 0.789,1.625 0.787,2.518 h -2.002 c -0.002,-0.46 -0.141,-0.922 -0.468,-1.434 -0.567,-0.891 -1.75,-1.872 -3.468,-2.764 -2.572,-1.346 -6.301,-2.513 -10.76,-3.325 -4.461,-0.815 -9.657,-1.284 -15.201,-1.283 -8.445,-0.002 -16.091,1.092 -21.546,2.826 -2.726,0.862 -4.9,1.892 -6.324,2.964 -0.712,0.534 -1.233,1.074 -1.56,1.582 -0.327,0.512 -0.466,0.974 -0.468,1.434 h -2.001"
                             style="fill:#100f0d;fill-opacity:1;fill-rule:nonzero;stroke:none"
                             id="path39615"
                             inkscape:connector-curvature="0" /></g><g
                           id="g39617"><path
                             d="m 350.994,496.311 h -16.418 v 15.847 l 6.087,6.2 h 10.331 v -22.047"
                             style="fill:#f3f5fb;fill-opacity:1;fill-rule:nonzero;stroke:none"
                             id="path39619"
                             inkscape:connector-curvature="0" /></g><g
                           id="g39621"><path
                             d="m 334.577,511.913 6.14,0.494 v 6.123 l -6.14,-6.617"
                             style="fill:#ced1ed;fill-opacity:1;fill-rule:nonzero;stroke:none"
                             id="path39623"
                             inkscape:connector-curvature="0" /></g><g
                           id="g39625"><path
                             d="m 319.193,495.608 h -16.418 v 15.848 l 6.088,6.198 h 10.33 v -22.046"
                             style="fill:#f3f5fb;fill-opacity:1;fill-rule:nonzero;stroke:none"
                             id="path39627"
                             inkscape:connector-curvature="0" /></g><g
                           id="g39629"><path
                             d="m 302.775,511.209 6.14,0.494 v 6.124 l -6.14,-6.618"
                             style="fill:#ced1ed;fill-opacity:1;fill-rule:nonzero;stroke:none"
                             id="path39631"
                             inkscape:connector-curvature="0" /></g><g
                           id="g39633"><path
                             d="m 319.022,505.758 c 0.265,0 0.481,0.215 0.481,0.48 v 11.521 c 0,0.264 -0.216,0.48 -0.481,0.48 h -10.587 l -0.188,-0.038 -0.048,-0.033 -0.105,-0.069 -5.777,-5.761 -0.051,-0.077 -0.051,-0.077 -0.038,-0.186 v -16.32 c 0,-0.265 0.216,-0.48 0.481,-0.48 h 16.364 c 0.265,0 0.481,0.215 0.481,0.48 v 2.88 c 0,0.265 -0.216,0.48 -0.481,0.48 -0.266,0 -0.481,-0.215 -0.481,-0.48 v -2.4 H 303.14 v 15.36 h 5.295 c 0.265,0 0.48,0.215 0.48,0.48 v 5.281 h 9.625 v -11.041 c 10e-4,-0.265 0.216,-0.48 0.482,-0.48 z m -11.069,6.72 h -4.133 l 4.133,4.122 v -4.122"
                             style="fill:#231f20;fill-opacity:1;fill-rule:nonzero;stroke:none"
                             id="path39635"
                             inkscape:connector-curvature="0" /></g><g
                           id="g39637"><path
                             d="m 351.361,505.76 c 0.267,0 0.484,0.216 0.484,0.481 v 11.521 c 0,0.26 -0.217,0.477 -0.484,0.477 h -10.584 l -0.185,-0.036 -0.072,-0.05 -0.081,-0.054 -5.777,-5.76 -0.054,-0.077 -0.049,-0.076 -0.037,-0.185 V 495.68 c 0,-0.266 0.217,-0.482 0.484,-0.482 h 16.364 c 0.267,0 0.484,0.216 0.484,0.482 v 2.88 c 0,0.265 -0.217,0.481 -0.484,0.481 -0.265,0 -0.482,-0.216 -0.482,-0.481 v -2.399 H 335.48 v 15.358 h 5.293 c 0.266,0 0.482,0.217 0.482,0.482 v 5.279 h 9.624 v -11.039 c 0.005,-0.27 0.217,-0.481 0.482,-0.481 z m -11.067,6.718 h -4.134 l 4.134,4.123 v -4.123"
                             style="fill:#231f20;fill-opacity:1;fill-rule:nonzero;stroke:none"
                             id="path39639"
                             inkscape:connector-curvature="0" /></g><g
                           id="g39641"><text
                             transform="matrix(1,0,0,-0.99729306,339.842,500.009)"
                             style="font-variant:normal;font-weight:bold;font-size:7.01900005px;font-family:Arial;-inkscape-font-specification:Arial-BoldMT;writing-mode:lr-tb;fill:#231f20;fill-opacity:1;fill-rule:nonzero;stroke:none"
                             id="text39645"><tspan
                               x="0 3.902564 8.5842371 14.045019 -31.556723 -26.488302 -22.198992 -16.351463"
                               y="0"
                               sodipodi:role="line"
                               id="tspan39643">JSONHTML</tspan></text>
</g><g
                           id="g39647"><path
                             d="m 160.451,496.435 h 27.296 v 21.366 h -27.296 z"
                             style="fill:#f3f5fb;fill-opacity:1;fill-rule:nonzero;stroke:none"
                             id="path39649"
                             inkscape:connector-curvature="0" /></g><g
                           id="g39651"><path
                             d="m 170.18,510 c 0,-1.295 -1.053,-2.345 -2.352,-2.345 -1.299,0 -2.351,1.05 -2.351,2.345 0,1.295 1.052,2.345 2.351,2.345 1.299,0 2.352,-1.05 2.352,-2.345"
                             style="fill:#acafdf;fill-opacity:1;fill-rule:nonzero;stroke:none"
                             id="path39653"
                             inkscape:connector-curvature="0" /></g></g></g></g></g></g></g></g></g></g></g><g
       id="g39655"><g
         id="g39657"
         clip-path="url(#clipPath39661)"><g
           id="g39663"><g
             id="g39665"
             clip-path="url(#clipPath39669)"><g
               id="g39671"><g
                 id="g39673"
                 clip-path="url(#clipPath39677)"><g
                   id="g39679"><g
                     id="g39681"
                     clip-path="url(#clipPath39685)"><g
                       id="g39687"><g
                         id="g39689"
                         clip-path="url(#clipPath39693)"><g
                           id="g39695"><g
                             id="g39697"
                             clip-path="url(#clipPath39701)"><g
                               id="g39703"><path
                                 d="m 188.245,518.285 h -27.881 c -0.274,0 -0.498,-0.222 -0.498,-0.496 v -21.85 c 0,-0.275 0.224,-0.497 0.498,-0.497 h 27.881 c 0.275,0 0.498,0.222 0.498,0.497 v 21.85 c 0,0.274 -0.223,0.496 -0.498,0.496 z m -0.498,-21.849 h -26.885 v 20.857 h 26.885 z"
                                 style="fill:#231f20;fill-opacity:1;fill-rule:nonzero;stroke:none"
                                 id="path39705"
                                 inkscape:connector-curvature="0" /></g><g
                               id="g39707"><path
                                 d="m 167.832,507.292 c 1.529,0 2.773,1.241 2.773,2.765 0,1.525 -1.244,2.766 -2.773,2.766 -1.529,0 -2.773,-1.241 -2.773,-2.765 0,-1.525 1.244,-2.766 2.773,-2.766 z m 0,4.538 c 0.98,0 1.777,-0.796 1.777,-1.772 0,-0.977 -0.797,-1.773 -1.777,-1.773 -0.98,0 -1.777,0.796 -1.777,1.772 0,0.977 0.797,1.773 1.777,1.773"
                                 style="fill:#231f20;fill-opacity:1;fill-rule:nonzero;stroke:none"
                                 id="path39709"
                                 inkscape:connector-curvature="0" /></g><g
                               id="g39711"><path
                                 d="m 163.351,498.422 c 0.117,0 0.234,0.04 0.329,0.123 l 8.121,7.132 5.129,-5.115 c 0.195,-0.194 0.51,-0.194 0.704,0 0.195,0.194 0.195,0.508 0,0.702 l -2.393,2.387 4.571,4.992 5.607,-5.125 c 0.202,-0.186 0.517,-0.172 0.703,0.03 0.186,0.202 0.172,0.516 -0.031,0.702 l -5.974,5.462 c -0.098,0.089 -0.228,0.133 -0.359,0.13 -0.131,-0.006 -0.256,-0.064 -0.345,-0.161 l -4.877,-5.327 -2.361,2.355 c -0.186,0.185 -0.484,0.195 -0.681,0.022 l -8.472,-7.44 c -0.207,-0.181 -0.227,-0.495 -0.045,-0.701 0.099,-0.112 0.236,-0.168 0.374,-0.168"
                                 style="fill:#231f20;fill-opacity:1;fill-rule:nonzero;stroke:none"
                                 id="path39713"
                                 inkscape:connector-curvature="0" /></g></g></g></g></g></g></g></g></g></g></g></g></g><g
       id="g39715"><g
         id="g39717"
         clip-path="url(#clipPath39721)"><g
           id="g39723"><g
             id="g39725"
             clip-path="url(#clipPath39729)"><g
               id="g39731"><g
                 id="g39733"
                 clip-path="url(#clipPath39737)"><g
                   id="g39739"><g
                     id="g39741"
                     clip-path="url(#clipPath39745)"><g
                       id="g39747"><g
                         id="g39749"
                         clip-path="url(#clipPath39753)"><g
                           id="g39755"><path
                             d="m 148.023,495.754 h -16.418 v 15.848 l 6.087,6.199 h 10.331 v -22.047"
                             style="fill:#f3f5fb;fill-opacity:1;fill-rule:nonzero;stroke:none"
                             id="path39757"
                             inkscape:connector-curvature="0" /></g><g
                           id="g39759"><path
                             d="m 131.605,511.355 6.14,0.495 v 6.123 l -6.14,-6.618"
                             style="fill:#ced1ed;fill-opacity:1;fill-rule:nonzero;stroke:none"
                             id="path39761"
                             inkscape:connector-curvature="0" /></g><g
                           id="g39763"><path
                             d="m 118.818,496.165 h -16.417 v 15.847 l 6.087,6.2 h 10.33 v -22.047"
                             style="fill:#f3f5fb;fill-opacity:1;fill-rule:nonzero;stroke:none"
                             id="path39765"
                             inkscape:connector-curvature="0" /></g><g
                           id="g39767"><path
                             d="m 102.401,511.767 6.14,0.494 v 6.123 l -6.14,-6.617"
                             style="fill:#ced1ed;fill-opacity:1;fill-rule:nonzero;stroke:none"
                             id="path39769"
                             inkscape:connector-curvature="0" /></g><g
                           id="g39771"><path
                             d="m 118.958,505.904 c 0.266,0 0.481,0.215 0.481,0.48 v 11.521 c 0,0.264 -0.215,0.48 -0.481,0.48 H 108.37 l -0.187,-0.038 -0.048,-0.033 -0.106,-0.069 -5.775,-5.761 -0.052,-0.077 -0.051,-0.077 -0.037,-0.186 v -16.32 c 0,-0.264 0.215,-0.48 0.481,-0.48 h 16.363 c 0.266,0 0.481,0.216 0.481,0.48 v 2.88 c 0,0.265 -0.215,0.48 -0.481,0.48 -0.266,0 -0.482,-0.215 -0.482,-0.48 v -2.4 h -15.4 v 15.36 h 5.294 c 0.266,0 0.481,0.215 0.481,0.48 v 5.281 h 9.625 v -11.041 c 0,-0.265 0.216,-0.48 0.482,-0.48 z m -11.069,6.72 h -4.132 l 4.132,4.122 v -4.122"
                             style="fill:#231f20;fill-opacity:1;fill-rule:nonzero;stroke:none"
                             id="path39773"
                             inkscape:connector-curvature="0" /></g><g
                           id="g39775"><path
                             d="m 147.833,505.906 c 0.266,0 0.482,0.216 0.482,0.481 v 11.521 c 0,0.261 -0.216,0.477 -0.482,0.477 h -10.585 l -0.185,-0.036 -0.072,-0.05 -0.082,-0.054 -5.775,-5.76 -0.054,-0.077 -0.05,-0.076 -0.036,-0.185 v -16.321 c 0,-0.266 0.217,-0.482 0.483,-0.482 h 16.365 c 0.266,0 0.483,0.216 0.483,0.482 v 2.88 c 0,0.265 -0.217,0.481 -0.483,0.481 -0.266,0 -0.483,-0.216 -0.483,-0.481 v -2.399 H 131.95 v 15.358 h 5.293 c 0.266,0 0.483,0.217 0.483,0.482 v 5.279 h 9.624 v -11.039 c 0.004,-0.27 0.216,-0.481 0.483,-0.481 z m -11.068,6.718 h -4.133 l 4.133,4.123 v -4.123"
                             style="fill:#231f20;fill-opacity:1;fill-rule:nonzero;stroke:none"
                             id="path39777"
                             inkscape:connector-curvature="0" /></g><g
                           id="g39779"><text
                             transform="matrix(1,0,0,-0.99729306,141.301,500.034)"
                             style="font-variant:normal;font-weight:bold;font-size:7.01900005px;font-family:Arial;-inkscape-font-specification:Arial-BoldMT;writing-mode:lr-tb;fill:#231f20;fill-opacity:1;fill-rule:nonzero;stroke:none"
                             id="text39783"><tspan
                               x="0 3.9039679 -30.343138 -25.275419 -20.593746"
                               y="0"
                               sodipodi:role="line"
                               id="tspan39781">JSCSS</tspan></text>
</g></g></g></g></g></g></g></g></g></g></g></g></svg>