<?xml version="1.0" encoding="UTF-8" standalone="no"?>
<!-- Created with Inkscape (http://www.inkscape.org/) -->

<svg
   xmlns:dc="http://purl.org/dc/elements/1.1/"
   xmlns:cc="http://creativecommons.org/ns#"
   xmlns:rdf="http://www.w3.org/1999/02/22-rdf-syntax-ns#"
   xmlns:svg="http://www.w3.org/2000/svg"
   xmlns="http://www.w3.org/2000/svg"
   xmlns:sodipodi="http://sodipodi.sourceforge.net/DTD/sodipodi-0.dtd"
   xmlns:inkscape="http://www.inkscape.org/namespaces/inkscape"
   version="1.1"
   id="svg1191"
   xml:space="preserve"
   width="387.70303"
   height="158.17557"
   viewBox="0 0 387.70303 158.17557"
   sodipodi:docname="Listing3.6.svg"
   inkscape:version="0.92.3 (2405546, 2018-03-11)"><metadata
     id="metadata1197"><rdf:RDF><cc:Work
         rdf:about=""><dc:format>image/svg+xml</dc:format><dc:type
           rdf:resource="http://purl.org/dc/dcmitype/StillImage" /><dc:title></dc:title></cc:Work></rdf:RDF></metadata><defs
     id="defs1195"><clipPath
       clipPathUnits="userSpaceOnUse"
       id="clipPath1419"><path
         d="M 166.38,566.078 H 356.7 v -46.08 H 166.38 Z"
         id="path1417"
         inkscape:connector-curvature="0"
         style="clip-rule:evenodd" /></clipPath><clipPath
       clipPathUnits="userSpaceOnUse"
       id="clipPath1427"><path
         d="M 0,666.03 H 531 V 0.03 H 0 Z"
         id="path1425"
         inkscape:connector-curvature="0" /></clipPath><clipPath
       clipPathUnits="userSpaceOnUse"
       id="clipPath1477"><path
         d="m 63.72,557.798 h 191.82 v -49.98 H 63.72 Z"
         id="path1475"
         inkscape:connector-curvature="0"
         style="clip-rule:evenodd" /></clipPath><clipPath
       clipPathUnits="userSpaceOnUse"
       id="clipPath1485"><path
         d="M 0,666.03 H 531 V 0.03 H 0 Z"
         id="path1483"
         inkscape:connector-curvature="0" /></clipPath><clipPath
       clipPathUnits="userSpaceOnUse"
       id="clipPath1603"><path
         d="m 111.6,519.218 h 339.9 v -17.88 H 111.6 Z"
         id="path1601"
         inkscape:connector-curvature="0"
         style="clip-rule:evenodd" /></clipPath><clipPath
       clipPathUnits="userSpaceOnUse"
       id="clipPath1611"><path
         d="M 0,666.03 H 531 V 0.03 H 0 Z"
         id="path1609"
         inkscape:connector-curvature="0" /></clipPath><clipPath
       clipPathUnits="userSpaceOnUse"
       id="clipPath1689"><path
         d="m 137.64,499.058 h 255.6 v -17.52 h -255.6 z"
         id="path1687"
         inkscape:connector-curvature="0"
         style="clip-rule:evenodd" /></clipPath><clipPath
       clipPathUnits="userSpaceOnUse"
       id="clipPath1697"><path
         d="M 0,666.03 H 531 V 0.03 H 0 Z"
         id="path1695"
         inkscape:connector-curvature="0" /></clipPath><clipPath
       clipPathUnits="userSpaceOnUse"
       id="clipPath1767"><path
         d="m 140.1,478.598 h 219 v -30.06 h -219 z"
         id="path1765"
         inkscape:connector-curvature="0"
         style="clip-rule:evenodd" /></clipPath><clipPath
       clipPathUnits="userSpaceOnUse"
       id="clipPath1775"><path
         d="M 0,666.03 H 531 V 0.03 H 0 Z"
         id="path1773"
         inkscape:connector-curvature="0" /></clipPath><clipPath
       clipPathUnits="userSpaceOnUse"
       id="clipPath1841"><path
         d="m 59.88,470.438 h 50.52 v -24.84 H 59.88 Z"
         id="path1839"
         inkscape:connector-curvature="0"
         style="clip-rule:evenodd" /></clipPath><clipPath
       clipPathUnits="userSpaceOnUse"
       id="clipPath1849"><path
         d="M 0,666.03 H 531 V 0.03 H 0 Z"
         id="path1847"
         inkscape:connector-curvature="0" /></clipPath><clipPath
       clipPathUnits="userSpaceOnUse"
       id="clipPath1891"><path
         d="m 129.12,458.618 h 157.86 v -29.76 H 129.12 Z"
         id="path1889"
         inkscape:connector-curvature="0"
         style="clip-rule:evenodd" /></clipPath><clipPath
       clipPathUnits="userSpaceOnUse"
       id="clipPath1899"><path
         d="M 0,666.03 H 531 V 0.03 H 0 Z"
         id="path1897"
         inkscape:connector-curvature="0" /></clipPath><clipPath
       clipPathUnits="userSpaceOnUse"
       id="clipPath1945"><path
         d="m 212.64,311.678 h 164.94 v -25.56 H 212.64 Z"
         id="path1943"
         inkscape:connector-curvature="0"
         style="clip-rule:evenodd" /></clipPath><clipPath
       clipPathUnits="userSpaceOnUse"
       id="clipPath1953"><path
         d="M 0,666.03 H 531 V 0.03 H 0 Z"
         id="path1951"
         inkscape:connector-curvature="0" /></clipPath><clipPath
       clipPathUnits="userSpaceOnUse"
       id="clipPath2059"><path
         d="m 149.34,275.198 h 254.88 v -46.08 H 149.34 Z"
         id="path2057"
         inkscape:connector-curvature="0"
         style="clip-rule:evenodd" /></clipPath><clipPath
       clipPathUnits="userSpaceOnUse"
       id="clipPath2067"><path
         d="M 0,666.03 H 531 V 0.03 H 0 Z"
         id="path2065"
         inkscape:connector-curvature="0" /></clipPath><clipPath
       clipPathUnits="userSpaceOnUse"
       id="clipPath2189"><path
         d="m 126.12,104.738 h 99.9 v -28.2 h -99.9 z"
         id="path2187"
         inkscape:connector-curvature="0"
         style="clip-rule:evenodd" /></clipPath><clipPath
       clipPathUnits="userSpaceOnUse"
       id="clipPath2197"><path
         d="M 0,666.03 H 531 V 0.03 H 0 Z"
         id="path2195"
         inkscape:connector-curvature="0" /></clipPath></defs><sodipodi:namedview
     pagecolor="#ffffff"
     bordercolor="#666666"
     borderopacity="1"
     objecttolerance="10"
     gridtolerance="10"
     guidetolerance="10"
     inkscape:pageopacity="0"
     inkscape:pageshadow="2"
     inkscape:window-width="1920"
     inkscape:window-height="1017"
     id="namedview1193"
     showgrid="false"
     inkscape:zoom="1.3313993"
     inkscape:cx="57.959265"
     inkscape:cy="165.14484"
     inkscape:window-x="1672"
     inkscape:window-y="-8"
     inkscape:window-maximized="1"
     inkscape:current-layer="g1199"
     fit-margin-top="0"
     fit-margin-left="0"
     fit-margin-right="0"
     fit-margin-bottom="0" /><g
     id="g1199"
     inkscape:groupmode="layer"
     inkscape:label="Hugo in Action Static sites and dynamic Jamstack apps (Atishay Jain) (z-lib.org)"
     transform="matrix(1.3333333,0,0,-1.3333333,-136.51848,415.90483)"><text
       id="text1309"
       style="font-variant:normal;font-weight:bold;font-size:7.98000002px;font-family:'Courier New';-inkscape-font-specification:Courier-Bold;writing-mode:lr-tb;fill:#262626;fill-opacity:1;fill-rule:nonzero;stroke:none"
       transform="scale(1,-1)"
       x="102.12"
       y="-306.758"><tspan
         id="tspan1307"
         sodipodi:role="line"
         y="-306.758"
         x="102.12 106.92396 111.72792 116.53188 121.33584 126.1398 130.94376">key1: |</tspan></text>
<text
       id="text1313"
       style="font-variant:normal;font-weight:normal;font-size:7.98000002px;font-family:'Courier New';-inkscape-font-specification:Courier;writing-mode:lr-tb;fill:#262626;fill-opacity:1;fill-rule:nonzero;stroke:none"
       transform="scale(1,-1)"
       x="121.33584"
       y="-296.798"><tspan
         id="tspan1311"
         sodipodi:role="line"
         y="-296.798"
         x="121.33584 126.1398 130.94376 135.74773 140.49184 145.29579 150.09975 154.90372 159.70767 164.51163 169.3156 174.11955 178.92351 183.72746 188.53143 193.33539 198.13936 202.94331 207.74727 212.55124 217.35519 222.15915 226.96312 231.76707 236.57103 241.37498 246.17896">This is a multiline string </tspan></text>
<text
       id="text1317"
       style="font-variant:normal;font-weight:normal;font-size:7.98000002px;font-family:'Courier New';-inkscape-font-specification:Courier;writing-mode:lr-tb;fill:#262626;fill-opacity:1;fill-rule:nonzero;stroke:none"
       transform="scale(1,-1)"
       x="121.33584"
       y="-286.77899"><tspan
         id="tspan1315"
         sodipodi:role="line"
         y="-286.77899"
         x="121.33584 126.1398 130.94376 135.74773 140.49184 145.29579 150.09975 154.90372 159.70767 164.51163 169.3156 174.11955 178.92351 183.72746 188.53143 193.33539 198.13936 202.94331 207.74727 212.55124 217.35519 222.15915 226.96312 231.76707 236.57103 241.37498 246.17896">where enter keys are valid </tspan></text>
<text
       id="text1321"
       style="font-variant:normal;font-weight:normal;font-size:7.98000002px;font-family:'Courier New';-inkscape-font-specification:Courier;writing-mode:lr-tb;fill:#262626;fill-opacity:1;fill-rule:nonzero;stroke:none"
       transform="scale(1,-1)"
       x="121.33584"
       y="-268.77899"><tspan
         id="tspan1319"
         sodipodi:role="line"
         y="-268.77899"
         x="121.33584 126.1398 130.94376 135.74773 140.49184 145.29579 150.09975 154.90372 159.70767 164.51163 169.3156 174.11955 178.92351 183.72746 188.53143 193.33539 198.13936 202.94331 207.74727 212.55124 217.35519 222.15915 226.96312 231.76707 236.57103 241.37498 246.17896 250.98291 255.78688 260.53098 265.33493 270.13889 274.94287 279.74683 284.55078 289.35474 294.15869 298.96265 303.76663 308.57059 313.37454 318.1785 322.98245 327.78641 332.59039 337.39435 342.1983">This is another para. The string ends with two </tspan></text>
<text
       id="text1325"
       style="font-variant:normal;font-weight:normal;font-size:7.98000002px;font-family:'Courier New';-inkscape-font-specification:Courier;writing-mode:lr-tb;fill:#262626;fill-opacity:1;fill-rule:nonzero;stroke:none"
       transform="scale(1,-1)"
       x="121.33584"
       y="-258.759"><tspan
         id="tspan1323"
         sodipodi:role="line"
         y="-258.759"
         x="121.33584 126.1398 130.94376 135.74773 140.49184 145.29579 150.09975 154.90372 159.70767 164.51163 169.3156 174.11955 178.92351">empty lines. </tspan></text>
<text
       id="text1329"
       style="font-variant:normal;font-weight:bold;font-size:7.98000002px;font-family:'Courier New';-inkscape-font-specification:Courier-Bold;writing-mode:lr-tb;fill:#262626;fill-opacity:1;fill-rule:nonzero;stroke:none"
       transform="scale(1,-1)"
       x="102.12"
       y="-232.78"><tspan
         id="tspan1327"
         sodipodi:role="line"
         y="-232.78"
         x="102.12 106.92396 111.72792 116.53188 121.33584 126.1398 130.94376">key2: &gt;</tspan></text>
<text
       id="text1333"
       style="font-variant:normal;font-weight:normal;font-size:7.98000002px;font-family:'Courier New';-inkscape-font-specification:Courier;writing-mode:lr-tb;fill:#262626;fill-opacity:1;fill-rule:nonzero;stroke:none"
       transform="scale(1,-1)"
       x="121.33584"
       y="-222.75999"><tspan
         id="tspan1331"
         sodipodi:role="line"
         y="-222.75999"
         x="121.33584 126.1398 130.94376 135.74773 140.49184 145.29579 150.09975 154.90372 159.70767 164.51163 169.3156 174.11955 178.92351 183.72746 188.53143 193.33539 198.13936 202.94331 207.74727 212.55124 217.35519 222.15915 226.96312 231.76707 236.57103 241.37498 246.17896 250.98291 255.78688 260.53098 265.33493 270.13889 274.94287 279.74683 284.55078 289.35474 294.15869 298.96265 303.76663 308.57059 313.37454 318.1785 322.98245">This is a multiline string where new lines </tspan></text>
<text
       id="text1337"
       style="font-variant:normal;font-weight:normal;font-size:7.98000002px;font-family:'Courier New';-inkscape-font-specification:Courier;writing-mode:lr-tb;fill:#262626;fill-opacity:1;fill-rule:nonzero;stroke:none"
       transform="scale(1,-1)"
       x="121.33584"
       y="-212.8"><tspan
         id="tspan1335"
         sodipodi:role="line"
         y="-212.8"
         x="121.33584 126.1398 130.94376 135.74773 140.49184 145.29579 150.09975 154.90372 159.70767 164.51163 169.3156 174.11955 178.92351 183.72746 188.53143 193.33539 198.13936 202.94331 207.74727 212.55124 217.35519 222.15915 226.96312 231.76707">will be merged back in. </tspan></text>
<text
       id="text1341"
       style="font-variant:normal;font-weight:normal;font-size:7.98000002px;font-family:'Courier New';-inkscape-font-specification:Courier;writing-mode:lr-tb;fill:#000000;fill-opacity:1;fill-rule:nonzero;stroke:none"
       transform="scale(1,-1)"
       x="121.33584"
       y="-194.80099"><tspan
         id="tspan1339"
         sodipodi:role="line"
         y="-194.80099"
         x="121.33584 126.1398 130.94376 135.74773 140.49184 145.29579 150.09975 154.90372 159.70767 164.51163 169.3156 174.11955 178.92351 183.72746 188.53143 193.33539 198.13936 202.94331 207.74727 212.55124 217.35519 222.15915 226.96312 231.76707 236.57103 241.37498 246.17896 250.98291 255.78688 260.53098 265.33493 270.13889 274.94287 279.74683 284.55078 289.35474 294.15869 298.96265 303.76663 308.57059 313.37454 318.1785 322.98245">Again we need two blank lines to close it. </tspan></text>
<g
       id="g1939"><g
         id="g1941"
         clip-path="url(#clipPath1945)"><g
           id="g1947"><g
             id="g1949"
             clip-path="url(#clipPath1953)"><g
               id="g1955"><text
                 transform="matrix(1,0,0,-1,270.54,301.478)"
                 style="font-variant:normal;font-weight:bold;font-size:9px;font-family:Humanist521BT;-inkscape-font-specification:Humanist521BT-BoldCondensed;writing-mode:lr-tb;fill:#656565;fill-opacity:1;fill-rule:nonzero;stroke:none"
                 id="text1959"><tspan
                   x="0 5.2020001 9.1800003 12.7197 14.8797"
                   y="0"
                   sodipodi:role="line"
                   id="tspan1957">Decla</tspan></text>
<text
                 transform="matrix(1,0,0,-1,289.5,301.478)"
                 style="font-variant:normal;font-weight:bold;font-size:9px;font-family:Humanist521BT;-inkscape-font-specification:Humanist521BT-BoldCondensed;writing-mode:lr-tb;fill:#656565;fill-opacity:1;fill-rule:nonzero;stroke:none"
                 id="text1963"><tspan
                   x="0"
                   y="0"
                   id="tspan1961">r</tspan></text>
<text
                 transform="matrix(1,0,0,-1,292.86,301.478)"
                 style="font-variant:normal;font-weight:bold;font-size:9px;font-family:Humanist521BT;-inkscape-font-specification:Humanist521BT-BoldCondensed;writing-mode:lr-tb;fill:#656565;fill-opacity:1;fill-rule:nonzero;stroke:none"
                 id="text1967"><tspan
                   x="0 3.951 7.4429998 9.783 13.824"
                   y="0"
                   sodipodi:role="line"
                   id="tspan1965">es a </tspan></text>
<text
                 transform="matrix(1,0,0,-1,309,301.478)"
                 style="font-variant:normal;font-weight:bold;font-size:9px;font-family:Humanist521BT;-inkscape-font-specification:Humanist521BT-BoldCondensed;writing-mode:lr-tb;fill:#656565;fill-opacity:1;fill-rule:nonzero;stroke:none"
                 id="text1971"><tspan
                   x="0"
                   y="0"
                   id="tspan1969">m</tspan></text>
<text
                 transform="matrix(1,0,0,-1,315.72,301.478)"
                 style="font-variant:normal;font-weight:bold;font-size:9px;font-family:Humanist521BT;-inkscape-font-specification:Humanist521BT-BoldCondensed;writing-mode:lr-tb;fill:#656565;fill-opacity:1;fill-rule:nonzero;stroke:none"
                 id="text1975"><tspan
                   x="0 4.473 6.6240001 9.6120005 11.7693 13.9203"
                   y="0"
                   sodipodi:role="line"
                   id="tspan1973">ultili</tspan></text>
<text
                 transform="matrix(1,0,0,-1,331.74,301.478)"
                 style="font-variant:normal;font-weight:bold;font-size:9px;font-family:Humanist521BT;-inkscape-font-specification:Humanist521BT-BoldCondensed;writing-mode:lr-tb;fill:#656565;fill-opacity:1;fill-rule:nonzero;stroke:none"
                 id="text1979"><tspan
                   x="0"
                   y="0"
                   id="tspan1977">n</tspan></text>
<text
                 transform="matrix(1,0,0,-1,336.24,301.478)"
                 style="font-variant:normal;font-weight:bold;font-size:9px;font-family:Humanist521BT;-inkscape-font-specification:Humanist521BT-BoldCondensed;writing-mode:lr-tb;fill:#656565;fill-opacity:1;fill-rule:nonzero;stroke:none"
                 id="text1983"><tspan
                   x="0 3.951 6.2325001 9.7244997"
                   y="0"
                   sodipodi:role="line"
                   id="tspan1981">e st</tspan></text>
<text
                 transform="matrix(1,0,0,-1,348.96,301.478)"
                 style="font-variant:normal;font-weight:bold;font-size:9px;font-family:Humanist521BT;-inkscape-font-specification:Humanist521BT-BoldCondensed;writing-mode:lr-tb;fill:#656565;fill-opacity:1;fill-rule:nonzero;stroke:none"
                 id="text1987"><tspan
                   x="0"
                   y="0"
                   id="tspan1985">r</tspan></text>
<text
                 transform="matrix(1,0,0,-1,352.38,301.478)"
                 style="font-variant:normal;font-weight:bold;font-size:9px;font-family:Humanist521BT;-inkscape-font-specification:Humanist521BT-BoldCondensed;writing-mode:lr-tb;fill:#656565;fill-opacity:1;fill-rule:nonzero;stroke:none"
                 id="text1991"><tspan
                   x="0"
                   y="0"
                   id="tspan1989">i</tspan></text>
<text
                 transform="matrix(1,0,0,-1,354.479,301.478)"
                 style="font-variant:normal;font-weight:bold;font-size:9px;font-family:Humanist521BT;-inkscape-font-specification:Humanist521BT-BoldCondensed;writing-mode:lr-tb;fill:#656565;fill-opacity:1;fill-rule:nonzero;stroke:none"
                 id="text1995"><tspan
                   x="0"
                   y="0"
                   id="tspan1993">n</tspan></text>
<text
                 transform="matrix(1,0,0,-1,358.979,301.478)"
                 style="font-variant:normal;font-weight:bold;font-size:9px;font-family:Humanist521BT;-inkscape-font-specification:Humanist521BT-BoldCondensed;writing-mode:lr-tb;fill:#656565;fill-opacity:1;fill-rule:nonzero;stroke:none"
                 id="text1999"><tspan
                   x="0 4.0770001"
                   y="0"
                   sodipodi:role="line"
                   id="tspan1997">g </tspan></text>
<text
                 transform="matrix(1,0,0,-1,270.539,291.999)"
                 style="font-variant:normal;font-weight:bold;font-size:9px;font-family:Humanist521BT;-inkscape-font-specification:Humanist521BT-BoldCondensed;writing-mode:lr-tb;fill:#656565;fill-opacity:1;fill-rule:nonzero;stroke:none"
                 id="text2003"><tspan
                   x="0 5.697 7.8210001 10.809 15.291"
                   y="0"
                   sodipodi:role="line"
                   id="tspan2001">with </tspan></text>
<text
                 transform="matrix(1,0,0,-1,288.179,291.999)"
                 style="font-variant:normal;font-weight:bold;font-size:9px;font-family:Humanist521BT;-inkscape-font-specification:Humanist521BT-BoldCondensed;writing-mode:lr-tb;fill:#656565;fill-opacity:1;fill-rule:nonzero;stroke:none"
                 id="text2007"><tspan
                   x="0"
                   y="0"
                   id="tspan2005">n</tspan></text>
<text
                 transform="matrix(1,0,0,-1,292.619,291.999)"
                 style="font-variant:normal;font-weight:bold;font-size:9px;font-family:Humanist521BT;-inkscape-font-specification:Humanist521BT-BoldCondensed;writing-mode:lr-tb;fill:#656565;fill-opacity:1;fill-rule:nonzero;stroke:none"
                 id="text2011"><tspan
                   x="0 3.96 9.6660004 11.826"
                   y="0"
                   sodipodi:role="line"
                   id="tspan2009">ewli</tspan></text>
<text
                 transform="matrix(1,0,0,-1,306.599,291.999)"
                 style="font-variant:normal;font-weight:bold;font-size:9px;font-family:Humanist521BT;-inkscape-font-specification:Humanist521BT-BoldCondensed;writing-mode:lr-tb;fill:#656565;fill-opacity:1;fill-rule:nonzero;stroke:none"
                 id="text2015"><tspan
                   x="0"
                   y="0"
                   id="tspan2013">n</tspan></text>
<text
                 transform="matrix(1,0,0,-1,311.038,291.999)"
                 style="font-variant:normal;font-weight:bold;font-size:9px;font-family:Humanist521BT;-inkscape-font-specification:Humanist521BT-BoldCondensed;writing-mode:lr-tb;fill:#656565;fill-opacity:1;fill-rule:nonzero;stroke:none"
                 id="text2019"><tspan
                   x="0 3.96 6.3000002 9.8999996 14.3397"
                   y="0"
                   sodipodi:role="line"
                   id="tspan2017">e cha</tspan></text>
<text
                 transform="matrix(1,0,0,-1,329.459,291.999)"
                 style="font-variant:normal;font-weight:bold;font-size:9px;font-family:Humanist521BT;-inkscape-font-specification:Humanist521BT-BoldCondensed;writing-mode:lr-tb;fill:#656565;fill-opacity:1;fill-rule:nonzero;stroke:none"
                 id="text2023"><tspan
                   x="0"
                   y="0"
                   id="tspan2021">r</tspan></text>
<text
                 transform="matrix(1,0,0,-1,332.818,291.999)"
                 style="font-variant:normal;font-weight:bold;font-size:9px;font-family:Humanist521BT;-inkscape-font-specification:Humanist521BT-BoldCondensed;writing-mode:lr-tb;fill:#656565;fill-opacity:1;fill-rule:nonzero;stroke:none"
                 id="text2027"><tspan
                   x="0 4.0679998 7.6094999 10.6245"
                   y="0"
                   sodipodi:role="line"
                   id="tspan2025">acte</tspan></text>
<text
                 transform="matrix(1,0,0,-1,347.398,291.999)"
                 style="font-variant:normal;font-weight:bold;font-size:9px;font-family:Humanist521BT;-inkscape-font-specification:Humanist521BT-BoldCondensed;writing-mode:lr-tb;fill:#656565;fill-opacity:1;fill-rule:nonzero;stroke:none"
                 id="text2031"><tspan
                   x="0"
                   y="0"
                   id="tspan2029">r</tspan></text>
<text
                 transform="matrix(1,0,0,-1,350.818,291.999)"
                 style="font-variant:normal;font-weight:bold;font-size:9px;font-family:Humanist521BT;-inkscape-font-specification:Humanist521BT-BoldCondensed;writing-mode:lr-tb;fill:#656565;fill-opacity:1;fill-rule:nonzero;stroke:none"
                 id="text2035"><tspan
                   x="0"
                   y="0"
                   id="tspan2033">s</tspan></text>
</g><g
               id="g2037"><path
                 d="m 231.84,308.138 v -2.1 l -0.18,0.06 -4.08,1.92 -0.24,0.12 0.24,0.12 4.08,1.92 0.18,0.06 v -0.18 l -0.06,-0.12 -4.08,-1.92 -0.12,0.24 h 0.12 l 4.08,-1.92 -0.12,-0.24 -0.06,0.12 v 1.92"
                 style="fill:#000000;fill-opacity:1;fill-rule:nonzero;stroke:none"
                 id="path2039"
                 inkscape:connector-curvature="0" /></g><g
               id="g2041"><path
                 d="m 231.6,308.138 h 0.24 v 1.92 h -0.24 z"
                 style="fill:#000000;fill-opacity:1;fill-rule:nonzero;stroke:none"
                 id="path2043"
                 inkscape:connector-curvature="0" /></g><g
               id="g2045"><path
                 d="m 231.84,308.018 h 32.82 v 0.24 h -32.82 z"
                 style="fill:#000000;fill-opacity:1;fill-rule:nonzero;stroke:none"
                 id="path2047"
                 inkscape:connector-curvature="0" /></g><g
               id="g2049"><path
                 d="m 264.42,290.978 h 0.24 v 17.16 h -0.24 z"
                 style="fill:#000000;fill-opacity:1;fill-rule:nonzero;stroke:none"
                 id="path2051"
                 inkscape:connector-curvature="0" /></g></g></g></g></g><g
       id="g2053"><g
         id="g2055"
         clip-path="url(#clipPath2059)"><g
           id="g2061"><g
             id="g2063"
             clip-path="url(#clipPath2067)"><g
               id="g2069"><text
                 transform="matrix(1,0,0,-1,229.26,251.678)"
                 style="font-variant:normal;font-weight:bold;font-size:9px;font-family:Humanist521BT;-inkscape-font-specification:Humanist521BT-BoldCondensed;writing-mode:lr-tb;fill:#656565;fill-opacity:1;fill-rule:nonzero;stroke:none"
                 id="text2073"><tspan
                   x="0 4.842 8.802 12.3381 16.4142 20.8503 24.3864 28.346399 30.622499 36.328499 40.288502 42.564602 47.0466 50.5476 54.507599 56.783699 64.280701 66.467697 68.8041 72.989098 77.365799 83.656799 87.778801 90.054901 92.187897"
                   y="0"
                   sodipodi:role="line"
                   id="tspan2071">Because we use &gt;, YAML ig</tspan></text>
<text
                 transform="matrix(1,0,0,-1,325.62,251.678)"
                 style="font-variant:normal;font-weight:bold;font-size:9px;font-family:Humanist521BT;-inkscape-font-specification:Humanist521BT-BoldCondensed;writing-mode:lr-tb;fill:#656565;fill-opacity:1;fill-rule:nonzero;stroke:none"
                 id="text2077"><tspan
                   x="0"
                   y="0"
                   id="tspan2075">n</tspan></text>
<text
                 transform="matrix(1,0,0,-1,330.06,251.678)"
                 style="font-variant:normal;font-weight:bold;font-size:9px;font-family:Humanist521BT;-inkscape-font-specification:Humanist521BT-BoldCondensed;writing-mode:lr-tb;fill:#656565;fill-opacity:1;fill-rule:nonzero;stroke:none"
                 id="text2081"><tspan
                   x="0"
                   y="0"
                   id="tspan2079">o</tspan></text>
<text
                 transform="matrix(1,0,0,-1,334.44,251.678)"
                 style="font-variant:normal;font-weight:bold;font-size:9px;font-family:Humanist521BT;-inkscape-font-specification:Humanist521BT-BoldCondensed;writing-mode:lr-tb;fill:#656565;fill-opacity:1;fill-rule:nonzero;stroke:none"
                 id="text2085"><tspan
                   x="0"
                   y="0"
                   id="tspan2083">r</tspan></text>
<text
                 transform="matrix(1,0,0,-1,337.8,251.678)"
                 style="font-variant:normal;font-weight:bold;font-size:9px;font-family:Humanist521BT;-inkscape-font-specification:Humanist521BT-BoldCondensed;writing-mode:lr-tb;fill:#656565;fill-opacity:1;fill-rule:nonzero;stroke:none"
                 id="text2089"><tspan
                   x="0 3.96 7.461 9.7982998 12.7953 17.2323 21.192301"
                   y="0"
                   sodipodi:role="line"
                   id="tspan2087">es the </tspan></text>
<text
                 transform="matrix(1,0,0,-1,361.32,251.678)"
                 style="font-variant:normal;font-weight:bold;font-size:9px;font-family:Humanist521BT;-inkscape-font-specification:Humanist521BT-BoldCondensed;writing-mode:lr-tb;fill:#656565;fill-opacity:1;fill-rule:nonzero;stroke:none"
                 id="text2093"><tspan
                   x="0"
                   y="0"
                   id="tspan2091">n</tspan></text>
<text
                 transform="matrix(1,0,0,-1,365.759,251.678)"
                 style="font-variant:normal;font-weight:bold;font-size:9px;font-family:Humanist521BT;-inkscape-font-specification:Humanist521BT-BoldCondensed;writing-mode:lr-tb;fill:#656565;fill-opacity:1;fill-rule:nonzero;stroke:none"
                 id="text2097"><tspan
                   x="0 3.96 9.6660004 11.826"
                   y="0"
                   sodipodi:role="line"
                   id="tspan2095">ewli</tspan></text>
<text
                 transform="matrix(1,0,0,-1,379.739,251.678)"
                 style="font-variant:normal;font-weight:bold;font-size:9px;font-family:Humanist521BT;-inkscape-font-specification:Humanist521BT-BoldCondensed;writing-mode:lr-tb;fill:#656565;fill-opacity:1;fill-rule:nonzero;stroke:none"
                 id="text2101"><tspan
                   x="0"
                   y="0"
                   id="tspan2099">n</tspan></text>
<text
                 transform="matrix(1,0,0,-1,384.179,251.678)"
                 style="font-variant:normal;font-weight:bold;font-size:9px;font-family:Humanist521BT;-inkscape-font-specification:Humanist521BT-BoldCondensed;writing-mode:lr-tb;fill:#656565;fill-opacity:1;fill-rule:nonzero;stroke:none"
                 id="text2105"><tspan
                   x="0 3.951 7.4429998"
                   y="0"
                   sodipodi:role="line"
                   id="tspan2103">es </tspan></text>
<text
                 transform="matrix(1,0,0,-1,229.259,242.199)"
                 style="font-variant:normal;font-weight:bold;font-size:9px;font-family:Humanist521BT;-inkscape-font-specification:Humanist521BT-BoldCondensed;writing-mode:lr-tb;fill:#656565;fill-opacity:1;fill-rule:nonzero;stroke:none"
                 id="text2109"><tspan
                   x="0"
                   y="0"
                   id="tspan2107">a</tspan></text>
<text
                 transform="matrix(1,0,0,-1,233.279,242.199)"
                 style="font-variant:normal;font-weight:bold;font-size:9px;font-family:Humanist521BT;-inkscape-font-specification:Humanist521BT-BoldCondensed;writing-mode:lr-tb;fill:#656565;fill-opacity:1;fill-rule:nonzero;stroke:none"
                 id="text2113"><tspan
                   x="0"
                   y="0"
                   id="tspan2111">n</tspan></text>
<text
                 transform="matrix(1,0,0,-1,237.779,242.199)"
                 style="font-variant:normal;font-weight:bold;font-size:9px;font-family:Humanist521BT;-inkscape-font-specification:Humanist521BT-BoldCondensed;writing-mode:lr-tb;fill:#656565;fill-opacity:1;fill-rule:nonzero;stroke:none"
                 id="text2117"><tspan
                   x="0 4.5089998 6.7914 8.9153996 13.2624"
                   y="0"
                   sodipodi:role="line"
                   id="tspan2115">d joi</tspan></text>
<text
                 transform="matrix(1,0,0,-1,253.199,242.199)"
                 style="font-variant:normal;font-weight:bold;font-size:9px;font-family:Humanist521BT;-inkscape-font-specification:Humanist521BT-BoldCondensed;writing-mode:lr-tb;fill:#656565;fill-opacity:1;fill-rule:nonzero;stroke:none"
                 id="text2121"><tspan
                   x="0"
                   y="0"
                   id="tspan2119">n</tspan></text>
<text
                 transform="matrix(1,0,0,-1,257.639,242.199)"
                 style="font-variant:normal;font-weight:bold;font-size:9px;font-family:Humanist521BT;-inkscape-font-specification:Humanist521BT-BoldCondensed;writing-mode:lr-tb;fill:#656565;fill-opacity:1;fill-rule:nonzero;stroke:none"
                 id="text2125"><tspan
                   x="0 3.483 5.8211999 8.8002005 13.2732 17.2152 19.5534 23.0364"
                   y="0"
                   sodipodi:role="line"
                   id="tspan2123">s the st</tspan></text>
<text
                 transform="matrix(1,0,0,-1,283.679,242.199)"
                 style="font-variant:normal;font-weight:bold;font-size:9px;font-family:Humanist521BT;-inkscape-font-specification:Humanist521BT-BoldCondensed;writing-mode:lr-tb;fill:#656565;fill-opacity:1;fill-rule:nonzero;stroke:none"
                 id="text2129"><tspan
                   x="0"
                   y="0"
                   id="tspan2127">r</tspan></text>
<text
                 transform="matrix(1,0,0,-1,287.038,242.199)"
                 style="font-variant:normal;font-weight:bold;font-size:9px;font-family:Humanist521BT;-inkscape-font-specification:Humanist521BT-BoldCondensed;writing-mode:lr-tb;fill:#656565;fill-opacity:1;fill-rule:nonzero;stroke:none"
                 id="text2133"><tspan
                   x="0"
                   y="0"
                   id="tspan2131">i</tspan></text>
<text
                 transform="matrix(1,0,0,-1,289.198,242.199)"
                 style="font-variant:normal;font-weight:bold;font-size:9px;font-family:Humanist521BT;-inkscape-font-specification:Humanist521BT-BoldCondensed;writing-mode:lr-tb;fill:#656565;fill-opacity:1;fill-rule:nonzero;stroke:none"
                 id="text2137"><tspan
                   x="0"
                   y="0"
                   id="tspan2135">n</tspan></text>
<text
                 transform="matrix(1,0,0,-1,293.638,242.199)"
                 style="font-variant:normal;font-weight:bold;font-size:9px;font-family:Humanist521BT;-inkscape-font-specification:Humanist521BT-BoldCondensed;writing-mode:lr-tb;fill:#656565;fill-opacity:1;fill-rule:nonzero;stroke:none"
                 id="text2141"><tspan
                   x="0 4.1399999 7.6202998 9.8999996"
                   y="0"
                   sodipodi:role="line"
                   id="tspan2139">gs i</tspan></text>
<text
                 transform="matrix(1,0,0,-1,305.698,242.199)"
                 style="font-variant:normal;font-weight:bold;font-size:9px;font-family:Humanist521BT;-inkscape-font-specification:Humanist521BT-BoldCondensed;writing-mode:lr-tb;fill:#656565;fill-opacity:1;fill-rule:nonzero;stroke:none"
                 id="text2145"><tspan
                   x="0"
                   y="0"
                   id="tspan2143">n</tspan></text>
<text
                 transform="matrix(1,0,0,-1,310.138,242.199)"
                 style="font-variant:normal;font-weight:bold;font-size:9px;font-family:Humanist521BT;-inkscape-font-specification:Humanist521BT-BoldCondensed;writing-mode:lr-tb;fill:#656565;fill-opacity:1;fill-rule:nonzero;stroke:none"
                 id="text2149"><tspan
                   x="0 2.9879999 7.3260002 9.6092997 13.6503 15.9939 19.485901"
                   y="0"
                   sodipodi:role="line"
                   id="tspan2147">to a si</tspan></text>
<text
                 transform="matrix(1,0,0,-1,331.798,242.199)"
                 style="font-variant:normal;font-weight:bold;font-size:9px;font-family:Humanist521BT;-inkscape-font-specification:Humanist521BT-BoldCondensed;writing-mode:lr-tb;fill:#656565;fill-opacity:1;fill-rule:nonzero;stroke:none"
                 id="text2153"><tspan
                   x="0"
                   y="0"
                   id="tspan2151">n</tspan></text>
<text
                 transform="matrix(1,0,0,-1,336.238,242.199)"
                 style="font-variant:normal;font-weight:bold;font-size:9px;font-family:Humanist521BT;-inkscape-font-specification:Humanist521BT-BoldCondensed;writing-mode:lr-tb;fill:#656565;fill-opacity:1;fill-rule:nonzero;stroke:none"
                 id="text2157"><tspan
                   x="0 4.0949998 6.2459998 10.197 12.5325 14.6835"
                   y="0"
                   sodipodi:role="line"
                   id="tspan2155">gle li</tspan></text>
<text
                 transform="matrix(1,0,0,-1,353.038,242.199)"
                 style="font-variant:normal;font-weight:bold;font-size:9px;font-family:Humanist521BT;-inkscape-font-specification:Humanist521BT-BoldCondensed;writing-mode:lr-tb;fill:#656565;fill-opacity:1;fill-rule:nonzero;stroke:none"
                 id="text2161"><tspan
                   x="0"
                   y="0"
                   id="tspan2159">n</tspan></text>
<text
                 transform="matrix(1,0,0,-1,357.538,242.199)"
                 style="font-variant:normal;font-weight:bold;font-size:9px;font-family:Humanist521BT;-inkscape-font-specification:Humanist521BT-BoldCondensed;writing-mode:lr-tb;fill:#656565;fill-opacity:1;fill-rule:nonzero;stroke:none"
                 id="text2165"><tspan
                   x="0 3.951 6.1290002"
                   y="0"
                   sodipodi:role="line"
                   id="tspan2163">e. </tspan></text>
</g><g
               id="g2167"><path
                 d="m 182.22,234.158 v -2.1 l -0.18,0.06 -4.14,1.92 -0.24,0.12 0.24,0.12 4.14,1.86 0.18,0.06 v -0.18 l -0.06,-0.12 -4.14,-1.86 -0.12,0.24 h 0.12 l 4.14,-1.92 -0.12,-0.24 -0.06,0.12 v 1.92"
                 style="fill:#000000;fill-opacity:1;fill-rule:nonzero;stroke:none"
                 id="path2169"
                 inkscape:connector-curvature="0" /></g><g
               id="g2171"><path
                 d="m 181.98,234.158 h 0.24 v 1.86 h -0.24 z"
                 style="fill:#000000;fill-opacity:1;fill-rule:nonzero;stroke:none"
                 id="path2173"
                 inkscape:connector-curvature="0" /></g><g
               id="g2175"><path
                 d="m 182.22,234.038 h 42.54 v 0.24 h -42.54 z"
                 style="fill:#000000;fill-opacity:1;fill-rule:nonzero;stroke:none"
                 id="path2177"
                 inkscape:connector-curvature="0" /></g><g
               id="g2179"><path
                 d="m 224.52,234.158 h 0.24 v 24.6 h -0.24 z"
                 style="fill:#000000;fill-opacity:1;fill-rule:nonzero;stroke:none"
                 id="path2181"
                 inkscape:connector-curvature="0" /></g></g></g></g></g></g></svg>