<?xml version="1.0" encoding="UTF-8" standalone="no"?>
<!-- Created with Inkscape (http://www.inkscape.org/) -->

<svg
   xmlns:dc="http://purl.org/dc/elements/1.1/"
   xmlns:cc="http://creativecommons.org/ns#"
   xmlns:rdf="http://www.w3.org/1999/02/22-rdf-syntax-ns#"
   xmlns:svg="http://www.w3.org/2000/svg"
   xmlns="http://www.w3.org/2000/svg"
   xmlns:sodipodi="http://sodipodi.sourceforge.net/DTD/sodipodi-0.dtd"
   xmlns:inkscape="http://www.inkscape.org/namespaces/inkscape"
   version="1.1"
   id="svg815"
   xml:space="preserve"
   width="496.63998"
   height="250"
   viewBox="0 0 496.63998 250"
   sodipodi:docname="Table3.2.svg"
   inkscape:version="0.92.3 (2405546, 2018-03-11)"><metadata
     id="metadata821"><rdf:RDF><cc:Work
         rdf:about=""><dc:format>image/svg+xml</dc:format><dc:type
           rdf:resource="http://purl.org/dc/dcmitype/StillImage" /><dc:title></dc:title></cc:Work></rdf:RDF></metadata><defs
     id="defs819"><clipPath
       clipPathUnits="userSpaceOnUse"
       id="clipPath1127"><path
         d="m 229.855,409.235 h -24.021 v -22.081 h 24.021 z"
         id="path1125"
         inkscape:connector-curvature="0" /></clipPath><clipPath
       clipPathUnits="userSpaceOnUse"
       id="clipPath1139"><path
         d="m 327.378,409.435 h -22.081 v -22.107 h 22.081 z"
         id="path1137"
         inkscape:connector-curvature="0" /></clipPath><clipPath
       clipPathUnits="userSpaceOnUse"
       id="clipPath1147"><path
         d="m 305.28,409.418 h 22.08 v -22.08 h -22.08 z"
         id="path1145"
         inkscape:connector-curvature="0"
         style="clip-rule:evenodd" /></clipPath><clipPath
       clipPathUnits="userSpaceOnUse"
       id="clipPath1155"><path
         d="m 304.2,409.418 h 24.24 v -22.08 H 304.2 Z"
         id="path1153"
         inkscape:connector-curvature="0"
         style="clip-rule:evenodd" /></clipPath><clipPath
       clipPathUnits="userSpaceOnUse"
       id="clipPath1163"><path
         d="M 0,666.03 H 531 V 0.03 H 0 Z"
         id="path1161"
         inkscape:connector-curvature="0" /></clipPath><clipPath
       clipPathUnits="userSpaceOnUse"
       id="clipPath1183"><path
         d="M 425.871,409.422 H 403.79 v -22.081 h 22.081 z"
         id="path1181"
         inkscape:connector-curvature="0" /></clipPath><linearGradient
       x1="0"
       y1="0"
       x2="1"
       y2="0"
       gradientUnits="userSpaceOnUse"
       gradientTransform="matrix(15.555,-15.555,15.558,15.553,406.857,405.957)"
       spreadMethod="pad"
       id="linearGradient1191"><stop
         style="stop-opacity:1;stop-color:#100f0d"
         offset="0"
         id="stop1187" /><stop
         style="stop-opacity:1;stop-color:#ffffff"
         offset="1"
         id="stop1189" /></linearGradient><linearGradient
       x1="0"
       y1="0"
       x2="1"
       y2="0"
       gradientUnits="userSpaceOnUse"
       gradientTransform="matrix(-15.555,15.555,-15.558,-15.553,423.117,391.106)"
       spreadMethod="pad"
       id="linearGradient1201"><stop
         style="stop-opacity:1;stop-color:#100f0d"
         offset="0"
         id="stop1197" /><stop
         style="stop-opacity:1;stop-color:#ffffff"
         offset="1"
         id="stop1199" /></linearGradient></defs><sodipodi:namedview
     pagecolor="#ffffff"
     bordercolor="#666666"
     borderopacity="1"
     objecttolerance="10"
     gridtolerance="10"
     guidetolerance="10"
     inkscape:pageopacity="0"
     inkscape:pageshadow="2"
     inkscape:window-width="1920"
     inkscape:window-height="1017"
     id="namedview817"
     showgrid="false"
     fit-margin-top="0"
     fit-margin-left="0"
     fit-margin-right="0"
     fit-margin-bottom="0"
     inkscape:zoom="0.94144144"
     inkscape:cx="234.08881"
     inkscape:cy="138.42934"
     inkscape:window-x="1672"
     inkscape:window-y="-8"
     inkscape:window-maximized="1"
     inkscape:current-layer="g823" /><g
     id="g823"
     inkscape:groupmode="layer"
     inkscape:label="Hugo in Action Static sites and dynamic Jamstack apps (Atishay Jain) (z-lib.org)"
     transform="matrix(1.3333333,0,0,-1.3333333,-124.16,555.57065)"><g
       id="g987"><path
         d="m 93.12,378.278 h 273.96 v 38.16 H 93.12 Z"
         style="fill:#48617c;fill-opacity:1;fill-rule:nonzero;stroke:none"
         id="path989"
         inkscape:connector-curvature="0" /></g><g
       id="g991"><path
         d="m 367.08,416.438 h 98.52 v -38.16 h -98.52"
         style="fill:#48617c;fill-opacity:1;fill-rule:nonzero;stroke:none"
         id="path993"
         inkscape:connector-curvature="0" /></g><g
       id="g995"><text
         transform="matrix(1,0,0,-1,99.12,367.958)"
         style="font-variant:normal;font-size:7.98000002px;font-family:'Franklin Gothic Book';-inkscape-font-specification:FranklinGothic-Demi;writing-mode:lr-tb;fill:#262626;fill-opacity:1;fill-rule:nonzero;stroke:none"
         id="text999"><tspan
           x="0 5.2747798 9.59196 16.143539"
           y="0"
           sodipodi:role="line"
           id="tspan997">Name</tspan></text>
<text
         transform="matrix(1,0,0,-1,176.1,367.958)"
         style="font-variant:normal;font-weight:normal;font-size:7.98000002px;font-family:'Franklin Gothic Book';-inkscape-font-specification:FranklinGothic-Book;writing-mode:lr-tb;fill:#262626;fill-opacity:1;fill-rule:nonzero;stroke:none"
         id="text1003"><tspan
           x="0 4.4767799 8.9535599 15.50514 98.546616 102.54459 107.81937 114.37096 196.99269 200.19266 205.14824 210.42302"
           y="0"
           sodipodi:role="line"
           id="tspan1001">YAMLTOMLJSON</tspan></text>
<text
         transform="matrix(1,0,0,-1,99.12,350.978)"
         style="font-variant:normal;font-size:7.98000002px;font-family:'Franklin Gothic Book';-inkscape-font-specification:FranklinGothic-Demi;writing-mode:lr-tb;fill:#262626;fill-opacity:1;fill-rule:nonzero;stroke:none"
         id="text1007"><tspan
           x="0 5.2827601 9.1291199 13.45428 16.183439 20.5086 22.59936 24.643038 27.047413 31.372572 35.697731 40.022892 44.348053 46.438812 50.763973 53.493134 55.583893 58.587563"
           y="0"
           sodipodi:role="line"
           id="tspan1005">Overall popularity</tspan></text>
<text
         transform="matrix(1,0,0,-1,176.1,350.978)"
         style="font-variant:normal;font-weight:normal;font-size:7.98000002px;font-family:'Franklin Gothic Book';-inkscape-font-specification:FranklinGothic-Book;writing-mode:lr-tb;fill:#262626;fill-opacity:1;fill-rule:nonzero;stroke:none"
         id="text1011"><tspan
           x="0 6.5595598 10.88472 15.20988 17.141041 21.4662 98.570557 102.57652 106.90167 197.02541 202.30975 204.24092 208.24687"
           y="0"
           sodipodi:role="line"
           id="tspan1009">MediumLowHigh</tspan></text>
<text
         transform="matrix(1,0,0,-1,99.12,333.939)"
         style="font-variant:normal;font-size:7.98000002px;font-family:'Franklin Gothic Book';-inkscape-font-specification:FranklinGothic-Demi;writing-mode:lr-tb;fill:#262626;fill-opacity:1;fill-rule:nonzero;stroke:none"
         id="text1015"><tspan
           x="0 5.2827601 9.2424364 13.567596 18.052357 22.377516 24.777901 26.86866 31.193821 33.594204 38.813923 43.134293 47.619053 51.944214"
           y="0"
           sodipodi:role="line"
           id="tspan1013">Usage in Hugo </tspan></text>
<text
         transform="matrix(1,0,0,-1,99.12,323.979)"
         style="font-variant:normal;font-size:7.98000002px;font-family:'Franklin Gothic Book';-inkscape-font-specification:FranklinGothic-Demi;writing-mode:lr-tb;fill:#262626;fill-opacity:1;fill-rule:nonzero;stroke:none"
         id="text1019"><tspan
           x="0 4.32516 8.6503201 15.20988 21.76944 26.094601 30.41976 32.510521 35.55888"
           y="0"
           sodipodi:role="line"
           id="tspan1017">community</tspan></text>
<text
         transform="matrix(1,0,0,-1,176.1,333.939)"
         style="font-variant:normal;font-weight:normal;font-size:7.98000002px;font-family:'Franklin Gothic Book';-inkscape-font-specification:FranklinGothic-Book;writing-mode:lr-tb;fill:#262626;fill-opacity:1;fill-rule:nonzero;stroke:none"
         id="text1023"><tspan
           x="0 4.00596 8.261694 98.49794 103.77431 105.70547 109.71143 196.9472 200.96353 205.2887"
           y="0"
           sodipodi:role="line"
           id="tspan1021">LowHighLow</tspan></text>
<text
         transform="matrix(1,0,0,-1,99.12,306.938)"
         style="font-variant:normal;font-size:7.98000002px;font-family:'Franklin Gothic Book';-inkscape-font-specification:FranklinGothic-Demi;writing-mode:lr-tb;fill:#262626;fill-opacity:1;fill-rule:nonzero;stroke:none"
         id="text1027"><tspan
           x="0 5.2827601 9.6079197 13.93308 18.25824 22.583401 26.90856 28.948248 31.039007 33.129768 36.129452"
           y="0"
           sodipodi:role="line"
           id="tspan1025">Readability</tspan></text>
<text
         transform="matrix(1,0,0,-1,176.1,306.938)"
         style="font-variant:normal;font-weight:normal;font-size:7.98000002px;font-family:'Franklin Gothic Book';-inkscape-font-specification:FranklinGothic-Book;writing-mode:lr-tb;fill:#262626;fill-opacity:1;fill-rule:nonzero;stroke:none"
         id="text1031"><tspan
           x="0 5.2747798 7.1979599 11.156838 98.516289 105.11575 109.43293 113.75011 115.67329 119.99047 196.96954 203.52112 207.8383 212.15549 214.07866 218.39584"
           y="0"
           sodipodi:role="line"
           id="tspan1029">HighMediumMedium</tspan></text>
<text
         transform="matrix(1,0,0,-1,99.12,289.959)"
         style="font-variant:normal;font-size:7.98000002px;font-family:'Franklin Gothic Book';-inkscape-font-specification:FranklinGothic-Demi;writing-mode:lr-tb;fill:#262626;fill-opacity:1;fill-rule:nonzero;stroke:none"
         id="text1035"><tspan
           x="0 5.2827601 7.3208518 10.369212 15.651972 19.977133 24.302292 26.70108 30.707041 35.0322 39.290329 43.615486 47.940647 50.669807 53.667892"
           y="0"
           sodipodi:role="line"
           id="tspan1033">GitHub support </tspan></text>
<text
         transform="matrix(1,0,0,-1,99.12,279.939)"
         style="font-variant:normal;font-size:7.98000002px;font-family:'Franklin Gothic Book';-inkscape-font-specification:FranklinGothic-Demi;writing-mode:lr-tb;fill:#262626;fill-opacity:1;fill-rule:nonzero;stroke:none"
         id="text1039"><tspan
           x="0 5.9131799 7.9959602 11.03634 15.35352 17.756298 24.786678 29.103859 31.825039 36.301819 40.618999 44.936176 50.849358"
           y="0"
           sodipodi:role="line"
           id="tspan1037">with Markdown</tspan></text>
<text
         transform="matrix(1,0,0,-1,176.1,289.959)"
         style="font-variant:normal;font-weight:normal;font-size:7.98000002px;font-family:'Franklin Gothic Book';-inkscape-font-specification:FranklinGothic-Book;writing-mode:lr-tb;fill:#262626;fill-opacity:1;fill-rule:nonzero;stroke:none"
         id="text1043"><tspan
           x="0 4.4847598 7.0088339 11.333994 15.499554 19.824715 24.149874 98.553795 103.03856 107.36372 111.52928 115.85444 120.1796 197.04376 201.52852 205.85368 210.01924 214.34439 218.66956"
           y="0"
           sodipodi:role="line"
           id="tspan1041">PresentAbsentAbsent</tspan></text>
<text
         transform="matrix(1,0,0,-1,99.12,262.958)"
         style="font-variant:normal;font-size:7.98000002px;font-family:'Franklin Gothic Book';-inkscape-font-specification:FranklinGothic-Demi;writing-mode:lr-tb;fill:#262626;fill-opacity:1;fill-rule:nonzero;stroke:none"
         id="text1047"><tspan
           x="0 5.2827601 9.6079197 11.647608 15.972768 20.297928 23.346289 25.437048 29.283407"
           y="0"
           sodipodi:role="line"
           id="tspan1045">Objective</tspan></text>
<text
         transform="matrix(1,0,0,-1,176.1,262.958)"
         style="font-variant:normal;font-weight:normal;font-size:7.98000002px;font-family:'Franklin Gothic Book';-inkscape-font-specification:FranklinGothic-Book;writing-mode:lr-tb;fill:#262626;fill-opacity:1;fill-rule:nonzero;stroke:none"
         id="text1051"><tspan
           x="0 5.2827601 9.6079197 16.16748 20.49264 24.817801 27.221376 29.790936 34.116096 38.441257 42.766415 47.091576 51.354492 53.285652 55.216812 57.147972 59.717533 98.600883 103.88444 108.20959 112.53476 114.93833 120.22109 124.54626 127.91381 130.31738 134.64255 137.05251 139.45609 143.78125 148.1064 150.03757 154.36273 158.36868 160.77226 163.29553 167.61909 169.55026 173.87543 177.88138 197.1443 199.23506 203.56023 205.97018 210.29535 212.81862 219.36142 223.68658 226.25615 228.1873 232.51247 236.83762 239.2412 241.17236 245.49751 248.06708 252.39224 254.91551 258.75867 263.08383 267.409 271.73416 275.74011"
           y="0"
           sodipodi:role="line"
           id="tspan1049">Human readabilityOne way of doing thingsInformation interchange</tspan></text>
<text
         transform="matrix(1,0,0,-1,99.12,245.978)"
         style="font-variant:normal;font-size:7.98000002px;font-family:'Franklin Gothic Book';-inkscape-font-specification:FranklinGothic-Demi;writing-mode:lr-tb;fill:#262626;fill-opacity:1;fill-rule:nonzero;stroke:none"
         id="text1055"><tspan
           x="0 5.2827601 9.6079197 12.610794 16.934359 19.337934 22.386293 26.232655 30.557814 34.882973 38.84584"
           y="0"
           sodipodi:role="line"
           id="tspan1053">Data types </tspan></text>
<text
         transform="matrix(1,0,0,-1,99.12,235.959)"
         style="font-variant:normal;font-size:7.98000002px;font-family:'Franklin Gothic Book';-inkscape-font-specification:FranklinGothic-Demi;writing-mode:lr-tb;fill:#262626;fill-opacity:1;fill-rule:nonzero;stroke:none"
         id="text1059"><tspan
           x="0 3.9572821 8.2824421 12.607602 16.932762 21.257921 23.987082 26.984369 31.302347"
           y="0"
           sodipodi:role="line"
           id="tspan1057">supported</tspan></text>
<text
         transform="matrix(1,0,0,-1,176.1,245.978)"
         style="font-variant:normal;font-weight:normal;font-size:7.98000002px;font-family:'Franklin Gothic Book';-inkscape-font-specification:FranklinGothic-Book;writing-mode:lr-tb;fill:#262626;fill-opacity:1;fill-rule:nonzero;stroke:none"
         id="text1063"><tspan
           x="0 4.3171802 8.6343603 15.18594 19.50312 23.820299 26.38188 28.783859 31.18185 35.339432 37.901009 40.418701 42.336292 46.653473 50.651455 53.053432 55.451424 59.768604 64.085785 68.402962 70.326141 74.643326 78.960503 83.277687 85.679665"
           y="0"
           sodipodi:role="line"
           id="tspan1061">number, string, boolean, </tspan></text>
<text
         transform="matrix(1,0,0,-1,176.1,235.959)"
         style="font-variant:normal;font-weight:normal;font-size:7.98000002px;font-family:'Franklin Gothic Book';-inkscape-font-specification:FranklinGothic-Book;writing-mode:lr-tb;fill:#262626;fill-opacity:1;fill-rule:nonzero;stroke:none"
         id="text1067"><tspan
           x="0 4.3171802 8.6343603 10.55754 12.48072 14.8827 17.282286 19.205465 21.128647 25.286226 27.847807 30.249786 32.649372 36.966553 38.889732 42.728111 45.247398 47.170578 51.487759 55.804939 60.12212 62.683697"
           y="0"
           sodipodi:role="line"
           id="tspan1065">null, list, dictionary</tspan></text>
<text
         transform="matrix(1,0,0,-1,274.62,245.978)"
         style="font-variant:normal;font-weight:normal;font-size:7.98000002px;font-family:'Franklin Gothic Book';-inkscape-font-specification:FranklinGothic-Book;writing-mode:lr-tb;fill:#262626;fill-opacity:1;fill-rule:nonzero;stroke:none"
         id="text1071"><tspan
           x="0 4.3171802 8.6343603 15.232224 19.549404 23.866585 26.384274 28.786255 31.184244 35.341824 37.903404 40.464985 42.388165 46.705345 50.662624 53.064606 55.462597 59.779778 64.096954 68.414139 70.337318 74.654495 78.97168 83.288857 85.690834"
           y="0"
           sodipodi:role="line"
           id="tspan1069">number, string, boolean, </tspan></text>
<text
         transform="matrix(1,0,0,-1,274.62,235.959)"
         style="font-variant:normal;font-weight:normal;font-size:7.98000002px;font-family:'Franklin Gothic Book';-inkscape-font-specification:FranklinGothic-Book;writing-mode:lr-tb;fill:#262626;fill-opacity:1;fill-rule:nonzero;stroke:none"
         id="text1075"><tspan
           x="0 4.3171802 8.6343603 11.19594 15.51312 17.9151 20.313089 22.236271 24.159451 28.31703 30.878611 33.28059 35.678581 39.995762 41.918941 45.75732 48.275009 50.198189 54.515369 58.83255 63.149731 65.711311"
           y="0"
           sodipodi:role="line"
           id="tspan1073">date, list, dictionary</tspan></text>
<text
         transform="matrix(1,0,0,-1,373.08,245.978)"
         style="font-variant:normal;font-weight:normal;font-size:7.98000002px;font-family:'Franklin Gothic Book';-inkscape-font-specification:FranklinGothic-Book;writing-mode:lr-tb;fill:#262626;fill-opacity:1;fill-rule:nonzero;stroke:none"
         id="text1079"><tspan
           x="0 4.3171802 8.6343603 15.18594 19.50312 23.820299 26.38188 28.783859 31.181051 35.338631 37.900211 40.417904 42.335495 46.652676 50.650658 53.052635 55.449829 59.76701 64.08419 68.401367 70.324547 74.641731 78.958908 83.276085 85.67807"
           y="0"
           sodipodi:role="line"
           id="tspan1077">number, string, boolean, </tspan></text>
<text
         transform="matrix(1,0,0,-1,373.08,235.959)"
         style="font-variant:normal;font-weight:normal;font-size:7.98000002px;font-family:'Franklin Gothic Book';-inkscape-font-specification:FranklinGothic-Book;writing-mode:lr-tb;fill:#262626;fill-opacity:1;fill-rule:nonzero;stroke:none"
         id="text1083"><tspan
           x="0 4.3171802 8.6343603 10.55754 12.48072 14.8827 17.282286 19.205465 21.128647 25.286226 27.847807 30.249786 32.649372 36.966553 38.889732 42.728111 45.247398 47.170578 51.487759 55.804939 60.12212 62.683697 66.043282"
           y="0"
           sodipodi:role="line"
           id="tspan1081">null, list, dictionary </tspan></text>
</g><g
       id="g1085"><path
         d="m 169.98,229.178 h 0.24 v 187.5 h -0.24 z"
         style="fill:#000000;fill-opacity:1;fill-rule:nonzero;stroke:none"
         id="path1087"
         inkscape:connector-curvature="0" /></g><g
       id="g1089"><path
         d="m 268.5,229.178 h 0.24 v 187.5 h -0.24 z"
         style="fill:#000000;fill-opacity:1;fill-rule:nonzero;stroke:none"
         id="path1091"
         inkscape:connector-curvature="0" /></g><g
       id="g1093"><path
         d="m 366.96,229.178 h 0.24 v 187.5 h -0.24 z"
         style="fill:#000000;fill-opacity:1;fill-rule:nonzero;stroke:none"
         id="path1095"
         inkscape:connector-curvature="0" /></g><g
       id="g1097"><path
         d="M 93.12,416.198 H 465.6 v 0.48 H 93.12 Z"
         style="fill:#000000;fill-opacity:1;fill-rule:nonzero;stroke:none"
         id="path1099"
         inkscape:connector-curvature="0" /></g><g
       id="g1101"><path
         d="M 93.12,378.158 H 465.6 v 0.24 H 93.12 Z"
         style="fill:#000000;fill-opacity:1;fill-rule:nonzero;stroke:none"
         id="path1103"
         inkscape:connector-curvature="0" /></g><g
       id="g1105"><path
         d="M 93.12,229.178 H 465.6 v 0.24 H 93.12 Z"
         style="fill:#000000;fill-opacity:1;fill-rule:nonzero;stroke:none"
         id="path1107"
         inkscape:connector-curvature="0" /></g><g
       id="g1109"><path
         d="m 229.855,389.402 h -5.459 v 8.098 h -2.261 v -10.299 h 7.72 v 2.201"
         style="fill:#100f0d;fill-opacity:1;fill-rule:nonzero;stroke:none"
         id="path1111"
         inkscape:connector-curvature="0" /></g><g
       id="g1113"><path
         d="m 209.949,397.497 v -10.344 h 2.219 v 7.135 l 2.323,-4.796 h 1.747 l 2.401,4.964 v -7.301 h 2.13 v 10.342 h -2.908 l -2.579,-4.677 -2.456,4.677 h -2.877"
         style="fill:#100f0d;fill-opacity:1;fill-rule:nonzero;stroke:none"
         id="path1115"
         inkscape:connector-curvature="0" /></g><g
       id="g1117"><path
         d="m 220.536,403.11 -1.465,3.873 -1.634,-3.873 z m 0.794,-2.107 h -4.779 l -0.972,-2.347 h -2.116 l 4.475,10.553 h 2.164 l 4.294,-10.553 h -2.261 l -0.805,2.347"
         style="fill:#cc1e25;fill-opacity:1;fill-rule:nonzero;stroke:none"
         id="path1119"
         inkscape:connector-curvature="0" /></g><g
       id="g1121"><g
         id="g1123"
         clip-path="url(#clipPath1127)"><g
           id="g1129"><path
             d="m 216.897,409.235 -4.308,-6.459 v -4.095 h -2.64 v 4.095 l -4.114,6.459 h 2.967 l 2.616,-4.159 2.638,4.159 h 2.841"
             style="fill:#100f0d;fill-opacity:1;fill-rule:nonzero;stroke:none"
             id="path1131"
             inkscape:connector-curvature="0" /></g></g></g><g
       id="g1133"><g
         id="g1135"
         clip-path="url(#clipPath1139)"><g
           id="g1141"><g
             id="g1143"
             clip-path="url(#clipPath1147)"><g
               id="g1149"><g
                 id="g1151"
                 clip-path="url(#clipPath1155)"><g
                   id="g1157"><g
                     id="g1159"
                     clip-path="url(#clipPath1163)"><g
                       id="g1165"><path
                         d="m 305.297,409.436 h 4.919 v -2.443 h -2.272 v -17.208 h 2.272 v -2.456 h -4.919 v 22.107"
                         style="fill:#787a7c;fill-opacity:1;fill-rule:nonzero;stroke:none"
                         id="path1167"
                         inkscape:connector-curvature="0" /></g><g
                       id="g1169"><path
                         d="m 321.528,404.785 v -2.561 h -3.937 v -11.916 h -2.77 v 11.916 h -3.957 v 2.561 h 10.664"
                         style="fill:#100f0d;fill-opacity:1;fill-rule:nonzero;stroke:none"
                         id="path1171"
                         inkscape:connector-curvature="0" /></g><g
                       id="g1173"><path
                         d="m 327.378,387.329 h -4.92 v 2.442 h 2.273 v 17.208 h -2.273 v 2.457 h 4.92 v -22.107"
                         style="fill:#787a7c;fill-opacity:1;fill-rule:nonzero;stroke:none"
                         id="path1175"
                         inkscape:connector-curvature="0" /></g></g></g></g></g></g></g></g></g><g
       id="g1177"><g
         id="g1179"
         clip-path="url(#clipPath1183)"><g
           id="g1185"><path
             d="m 414.812,392.986 c 4.885,-6.659 9.665,1.858 9.659,6.981 -0.008,6.057 -6.147,9.442 -9.663,9.442 -5.644,0 -11.018,-4.665 -11.018,-11.046 0,-7.093 6.161,-11.022 11.018,-11.022 -1.099,0.158 -4.762,0.944 -4.812,9.38 -0.032,5.706 1.862,7.986 4.804,6.983 0.066,-0.024 3.245,-1.279 3.245,-5.376 0,-4.079 -3.233,-5.342 -3.233,-5.342"
             style="fill:url(#linearGradient1191);fill-opacity:1;fill-rule:evenodd;stroke:none"
             id="path1193"
             inkscape:connector-curvature="0" /></g><g
           id="g1195"><path
             d="m 414.806,403.709 c -3.228,1.113 -7.182,-1.548 -7.182,-6.877 0,-8.7 6.448,-9.49 7.229,-9.49 5.644,0 11.018,4.664 11.018,11.045 0,7.093 -6.161,11.022 -11.018,11.022 1.346,0.186 7.251,-1.456 7.251,-9.528 0,-5.264 -4.409,-8.129 -7.278,-6.904 -0.065,0.024 -3.245,1.278 -3.245,5.375 0,4.079 3.225,5.357 3.225,5.357"
             style="fill:url(#linearGradient1201);fill-opacity:1;fill-rule:evenodd;stroke:none"
             id="path1203"
             inkscape:connector-curvature="0" /></g></g></g></g></svg>