<?xml version="1.0" encoding="UTF-8" standalone="no"?>
<!-- Created with Inkscape (http://www.inkscape.org/) -->

<svg
   version="1.1"
   id="svg128517"
   width="517.68793"
   height="404.634"
   viewBox="0 0 517.68793 404.634"
   sodipodi:docname="8.1.svg"
   inkscape:version="1.2 (dc2aedaf03, 2022-05-15)"
   xmlns:inkscape="http://www.inkscape.org/namespaces/inkscape"
   xmlns:sodipodi="http://sodipodi.sourceforge.net/DTD/sodipodi-0.dtd"
   xmlns="http://www.w3.org/2000/svg"
   xmlns:svg="http://www.w3.org/2000/svg">
  <defs
     id="defs128521">
    <clipPath
       clipPathUnits="userSpaceOnUse"
       id="clipPath128601">
      <path
         d="m 84.12,409.778 h 390 V 59.918 h -390 z"
         clip-rule="evenodd"
         id="path128599" />
    </clipPath>
    <clipPath
       clipPathUnits="userSpaceOnUse"
       id="clipPath128609">
      <path
         d="m 66.12,611.918 h 408 v -552 h -408 z"
         clip-rule="evenodd"
         id="path128607" />
    </clipPath>
    <clipPath
       clipPathUnits="userSpaceOnUse"
       id="clipPath128617">
      <path
         d="M 0,666.03 H 531 V 0.03 H 0 Z"
         id="path128615" />
    </clipPath>
    <clipPath
       clipPathUnits="userSpaceOnUse"
       id="clipPath128639">
      <path
         d="M 472.929,400.303 H 84.113 V 96.822 h 388.816 z"
         id="path128637" />
    </clipPath>
    <clipPath
       clipPathUnits="userSpaceOnUse"
       id="clipPath128647">
      <path
         d="m 84.12,400.298 h 388.8 V 96.818 H 84.12 Z"
         clip-rule="evenodd"
         id="path128645" />
    </clipPath>
    <clipPath
       clipPathUnits="userSpaceOnUse"
       id="clipPath128655">
      <path
         d="m 84.12,409.778 h 390 V 59.918 h -390 z"
         clip-rule="evenodd"
         id="path128653" />
    </clipPath>
    <clipPath
       clipPathUnits="userSpaceOnUse"
       id="clipPath128663">
      <path
         d="m 66.12,611.918 h 408 v -552 h -408 z"
         clip-rule="evenodd"
         id="path128661" />
    </clipPath>
    <clipPath
       clipPathUnits="userSpaceOnUse"
       id="clipPath128671">
      <path
         d="M 0,666.03 H 531 V 0.03 H 0 Z"
         id="path128669" />
    </clipPath>
  </defs>
  <sodipodi:namedview
     id="namedview128519"
     pagecolor="#ffffff"
     bordercolor="#666666"
     borderopacity="1.0"
     inkscape:showpageshadow="2"
     inkscape:pageopacity="0.0"
     inkscape:pagecheckerboard="0"
     inkscape:deskcolor="#d1d1d1"
     showgrid="false"
     inkscape:zoom="0.98198198"
     inkscape:cx="238.80275"
     inkscape:cy="89.614679"
     inkscape:window-width="1920"
     inkscape:window-height="1027"
     inkscape:window-x="1912"
     inkscape:window-y="22"
     inkscape:window-maximized="1"
     inkscape:current-layer="g128523" />
  <g
     id="g128523"
     inkscape:groupmode="layer"
     inkscape:label="Hugo in Action Static sites and dynamic Jamstack apps (Atishay Jain) (z-lib.org)23"
     transform="matrix(1.3333333,0,0,-1.3333333,-112.87205,533.73065)">
    <g
       id="g128633">
      <g
         id="g128635"
         clip-path="url(#clipPath128639)">
        <g
           id="g128641">
          <g
             id="g128643"
             clip-path="url(#clipPath128647)">
            <g
               id="g128649">
              <g
                 id="g128651"
                 clip-path="url(#clipPath128655)">
                <g
                   id="g128657">
                  <g
                     id="g128659"
                     clip-path="url(#clipPath128663)">
                    <g
                       id="g128665">
                      <g
                         id="g128667"
                         clip-path="url(#clipPath128671)">
                        <g
                           id="g128673">
                          <path
                             d="M 397.445,97.071 H 136.729 v 302.984 h 260.716 z"
                             style="fill:none;stroke:#352916;stroke-width:0.497;stroke-linecap:butt;stroke-linejoin:miter;stroke-miterlimit:10;stroke-dasharray:none;stroke-opacity:1"
                             id="path128675" />
                        </g>
                        <g
                           id="g128677">
                          <path
                             d="m 294.415,207.826 h 77.596 v 151.471 h -77.596 z"
                             style="fill:#fef2f5;fill-opacity:1;fill-rule:nonzero;stroke:none"
                             id="path128679" />
                        </g>
                        <g
                           id="g128681">
                          <path
                             d="m 294.415,359.297 h 77.596 V 207.826 h -77.596 z"
                             style="fill:none;stroke:#100f0d;stroke-width:0.497;stroke-linecap:butt;stroke-linejoin:miter;stroke-miterlimit:4;stroke-dasharray:1.292, 1.292;stroke-dashoffset:0;stroke-opacity:1"
                             id="path128683" />
                        </g>
                        <g
                           id="g128685">
                          <path
                             d="m 311.66,305.723 h 25.865 v 38.728 H 311.66 Z"
                             style="fill:#fddde3;fill-opacity:1;fill-rule:nonzero;stroke:none"
                             id="path128687" />
                        </g>
                        <g
                           id="g128689">
                          <path
                             d="m 311.66,344.451 h 25.865 V 305.723 H 311.66 Z"
                             style="fill:none;stroke:#100f0d;stroke-width:0.497;stroke-linecap:butt;stroke-linejoin:miter;stroke-miterlimit:4;stroke-dasharray:none;stroke-opacity:1"
                             id="path128691" />
                        </g>
                        <g
                           id="g128693">
                          <path
                             d="m 315.97,301.42 h 25.865 v 38.729 H 315.97 Z"
                             style="fill:#f791a1;fill-opacity:1;fill-rule:nonzero;stroke:none"
                             id="path128695" />
                        </g>
                        <g
                           id="g128697">
                          <path
                             d="m 315.97,340.148 h 25.865 V 301.419 H 315.97 Z"
                             style="fill:none;stroke:#100f0d;stroke-width:0.497;stroke-linecap:butt;stroke-linejoin:miter;stroke-miterlimit:4;stroke-dasharray:none;stroke-opacity:1"
                             id="path128699" />
                        </g>
                        <g
                           id="g128701">
                          <path
                             d="m 346.146,316.481 45.364,0.03 v -24.588 l 38.149,0.028"
                             style="fill:none;stroke:#100f0d;stroke-width:0.497;stroke-linecap:butt;stroke-linejoin:miter;stroke-miterlimit:10;stroke-dasharray:none;stroke-opacity:1"
                             id="path128703" />
                        </g>
                        <g
                           id="g128705">
                          <path
                             d="m 428.676,290.506 5.385,1.448 -5.387,1.439 0.002,-2.887"
                             style="fill:#100f0d;fill-opacity:1;fill-rule:nonzero;stroke:none"
                             id="path128707" />
                        </g>
                        <g
                           id="g128709">
                          <path
                             d="m 320.281,297.117 h 25.865 v 38.728 h -25.865 z"
                             style="fill:#f25369;fill-opacity:1;fill-rule:nonzero;stroke:none"
                             id="path128711" />
                        </g>
                        <g
                           id="g128713">
                          <path
                             d="m 320.281,335.845 h 25.865 v -38.728 h -25.865 z"
                             style="fill:none;stroke:#100f0d;stroke-width:0.497;stroke-linecap:butt;stroke-linejoin:miter;stroke-miterlimit:4;stroke-dasharray:none;stroke-opacity:1"
                             id="path128715" />
                        </g>
                        <g
                           id="g128717">
                          <path
                             d="M 337.262,276.522 V 243.328 H 311.66 v 38.728 h 21.946 l 3.656,-5.534"
                             style="fill:#fabfca;fill-opacity:1;fill-rule:nonzero;stroke:none"
                             id="path128719" />
                        </g>
                        <g
                           id="g128721">
                          <path
                             d="M 337.262,276.522 V 243.328 H 311.66 v 38.728 h 21.946 z"
                             style="fill:none;stroke:#100f0d;stroke-width:0.497;stroke-linecap:butt;stroke-linejoin:miter;stroke-miterlimit:10;stroke-dasharray:none;stroke-opacity:1"
                             id="path128723" />
                        </g>
                        <g
                           id="g128725">
                          <path
                             d="m 333.606,282.056 c 0.298,-1.295 -0.193,-2.629 -1.306,-3.559 l 5.225,-2.25 -3.919,5.809"
                             style="fill:#f791a1;fill-opacity:1;fill-rule:nonzero;stroke:none"
                             id="path128727" />
                        </g>
                        <g
                           id="g128729">
                          <path
                             d="m 333.606,282.056 c 0.298,-1.295 -0.193,-2.629 -1.306,-3.559 l 5.225,-2.25 z"
                             style="fill:none;stroke:#100f0d;stroke-width:0.497;stroke-linecap:butt;stroke-linejoin:miter;stroke-miterlimit:10;stroke-dasharray:none;stroke-opacity:1"
                             id="path128731" />
                        </g>
                        <g
                           id="g128733">
                          <path
                             d="M 341.573,272.219 V 239.025 H 315.97 v 38.728 h 21.946 l 3.657,-5.534"
                             style="fill:#f791a1;fill-opacity:1;fill-rule:nonzero;stroke:none"
                             id="path128735" />
                        </g>
                        <g
                           id="g128737">
                          <path
                             d="M 341.573,272.219 V 239.025 H 315.97 v 38.728 h 21.946 z"
                             style="fill:none;stroke:#100f0d;stroke-width:0.497;stroke-linecap:butt;stroke-linejoin:miter;stroke-miterlimit:10;stroke-dasharray:none;stroke-opacity:1"
                             id="path128739" />
                        </g>
                        <g
                           id="g128741">
                          <path
                             d="m 337.916,277.753 c 0.298,-1.296 -0.193,-2.63 -1.305,-3.559 l 5.224,-2.25 -3.919,5.809"
                             style="fill:#f25369;fill-opacity:1;fill-rule:nonzero;stroke:none"
                             id="path128743" />
                        </g>
                        <g
                           id="g128745">
                          <path
                             d="m 337.916,277.753 c 0.298,-1.296 -0.193,-2.63 -1.305,-3.559 l 5.224,-2.25 z"
                             style="fill:none;stroke:#100f0d;stroke-width:0.497;stroke-linecap:butt;stroke-linejoin:miter;stroke-miterlimit:10;stroke-dasharray:none;stroke-opacity:1"
                             id="path128747" />
                        </g>
                        <g
                           id="g128749">
                          <path
                             d="m 346.146,254.085 45.364,-0.029 v 21.145 l 38.149,-0.027"
                             style="fill:none;stroke:#100f0d;stroke-width:0.497;stroke-linecap:butt;stroke-linejoin:miter;stroke-miterlimit:10;stroke-dasharray:none;stroke-opacity:1"
                             id="path128751" />
                        </g>
                        <g
                           id="g128753">
                          <path
                             d="m 428.674,273.731 5.387,1.44 -5.385,1.447 -0.002,-2.887"
                             style="fill:#100f0d;fill-opacity:1;fill-rule:nonzero;stroke:none"
                             id="path128755" />
                        </g>
                        <g
                           id="g128757">
                          <path
                             d="m 345.883,267.916 v -33.194 h -25.602 v 38.728 h 21.947 l 3.655,-5.534"
                             style="fill:#f25369;fill-opacity:1;fill-rule:nonzero;stroke:none"
                             id="path128759" />
                        </g>
                        <g
                           id="g128761">
                          <path
                             d="m 345.883,267.916 v -33.194 h -25.602 v 38.728 h 21.947 z"
                             style="fill:none;stroke:#100f0d;stroke-width:0.497;stroke-linecap:butt;stroke-linejoin:miter;stroke-miterlimit:10;stroke-dasharray:none;stroke-opacity:1"
                             id="path128763" />
                        </g>
                        <g
                           id="g128765">
                          <path
                             d="m 342.228,273.45 c 0.297,-1.295 -0.194,-2.629 -1.307,-3.559 l 5.225,-2.25 -3.918,5.809"
                             style="fill:#ef2e3d;fill-opacity:1;fill-rule:nonzero;stroke:none"
                             id="path128767" />
                        </g>
                        <g
                           id="g128769">
                          <path
                             d="m 342.228,273.45 c 0.297,-1.295 -0.194,-2.629 -1.307,-3.559 l 5.225,-2.25 z"
                             style="fill:none;stroke:#100f0d;stroke-width:0.497;stroke-linecap:butt;stroke-linejoin:miter;stroke-miterlimit:10;stroke-dasharray:none;stroke-opacity:1"
                             id="path128771" />
                        </g>
                        <g
                           id="g128773">
                          <path
                             d="m 360.769,222.681 c 0.275,0.207 0.655,0.207 0.931,0 l 5.806,-5.813 c 0.195,-0.271 0.195,-0.636 0,-0.912 l -5.69,-5.737 c -0.147,-0.155 -0.349,-0.241 -0.56,-0.241 -0.215,0 -0.419,0.086 -0.565,0.241 l -5.729,5.737 c -0.194,0.276 -0.194,0.641 0,0.912 l 3.957,3.955 1.423,-1.412 c -0.176,-0.52 0.077,-1.088 0.582,-1.299 v -3.529 c -0.418,-0.189 -0.651,-0.641 -0.556,-1.092 0.094,-0.448 0.491,-0.771 0.953,-0.771 0.457,0 0.853,0.323 0.948,0.771 0.095,0.451 -0.138,0.903 -0.557,1.092 v 3.451 l 1.332,-1.351 c -0.168,-0.426 -0.012,-0.912 0.368,-1.166 0.379,-0.254 0.887,-0.206 1.214,0.116 0.329,0.318 0.384,0.826 0.143,1.214 -0.245,0.392 -0.724,0.555 -1.155,0.396 l -1.423,1.428 c 0.139,0.358 0.052,0.766 -0.22,1.037 -0.271,0.276 -0.677,0.362 -1.034,0.219 l -1.461,1.442 1.293,1.312"
                             style="fill:#7c1a20;fill-opacity:1;fill-rule:nonzero;stroke:none"
                             id="path128775" />
                        </g>
                        <g
                           id="g128777">
                          <path
                             d="m 360.769,222.681 c 0.275,0.207 0.655,0.207 0.931,0 l 5.806,-5.813 c 0.195,-0.271 0.195,-0.636 0,-0.912 l -5.69,-5.737 c -0.147,-0.155 -0.349,-0.241 -0.56,-0.241 -0.215,0 -0.419,0.086 -0.565,0.241 l -5.729,5.737 c -0.194,0.276 -0.194,0.641 0,0.912 l 3.957,3.955 1.423,-1.412 c -0.176,-0.52 0.077,-1.088 0.582,-1.299 v -3.529 c -0.418,-0.189 -0.651,-0.641 -0.556,-1.092 0.094,-0.448 0.491,-0.771 0.953,-0.771 0.457,0 0.853,0.323 0.948,0.771 0.095,0.451 -0.138,0.903 -0.557,1.092 v 3.451 l 1.332,-1.351 c -0.168,-0.426 -0.012,-0.912 0.368,-1.166 0.379,-0.254 0.887,-0.206 1.214,0.116 0.329,0.318 0.384,0.826 0.143,1.214 -0.245,0.392 -0.724,0.555 -1.155,0.396 l -1.423,1.428 c 0.139,0.358 0.052,0.766 -0.22,1.037 -0.271,0.276 -0.677,0.362 -1.034,0.219 l -1.461,1.442 z"
                             style="fill:none;stroke:#352916;stroke-width:0.497;stroke-linecap:butt;stroke-linejoin:miter;stroke-miterlimit:10;stroke-dasharray:none;stroke-opacity:1"
                             id="path128779" />
                        </g>
                        <g
                           id="g128781">
                          <path
                             d="m 461.138,273.179 -1.177,-1.171 c -0.53,-0.525 -1.387,-0.525 -1.922,0 l -9.023,8.938 c -0.242,0.249 -0.242,0.649 0,0.903 l 2.187,2.182 c 0.254,0.245 0.654,0.245 0.904,0 l 9.01,-8.989 c 0.526,-0.529 0.526,-1.386 0,-1.915 z m -15.803,3.154 c -0.117,-0.116 -0.173,-0.28 -0.152,-0.439 0.169,-1.282 -0.314,-2.56 -1.28,-3.417 -0.965,-0.856 -2.297,-1.179 -3.552,-0.86 l 2.371,2.366 c 0.616,0.456 0.914,1.227 0.772,1.98 -0.143,0.748 -0.702,1.355 -1.445,1.557 -0.736,0.203 -1.525,-0.034 -2.034,-0.607 -0.034,-0.029 -0.069,-0.06 -0.099,-0.094 l -2.393,-2.371 c -0.323,1.334 0.074,2.745 1.057,3.713 0.849,0.861 2.055,1.27 3.258,1.106 0.143,-0.008 0.285,0.048 0.388,0.146 l 4.346,4.342 1.461,-1.446 c -0.427,-0.667 -0.327,-1.544 0.241,-2.099 l 0.479,-0.478 z m -2.634,12.772 -0.091,0.09 -3.095,0.99 c -0.263,0.082 -0.474,0.275 -0.587,0.525 l -1.309,2.87 c -0.164,0.366 -0.087,0.796 0.202,1.084 l 0.573,0.582 c 0.284,0.292 0.725,0.369 1.095,0.193 l 2.892,-1.304 c 0.25,-0.107 0.44,-0.323 0.527,-0.581 l 0.84,-2.629 c 0.095,-0.305 0.258,-0.581 0.483,-0.809 l 5.756,-5.784 -1.251,-1.239 z m 10.971,1.743 c 0.121,0.111 0.177,0.275 0.156,0.439 -0.168,1.282 0.31,2.56 1.275,3.416 0.97,0.856 2.302,1.179 3.553,0.861 l -2.376,-2.367 c -0.784,-0.783 -0.784,-2.053 0,-2.836 0.785,-0.782 2.056,-0.782 2.841,0 l 2.371,2.371 c 0.332,-1.329 -0.052,-2.74 -1.022,-3.717 -0.857,-0.857 -2.064,-1.266 -3.267,-1.102 -0.159,0.017 -0.324,-0.039 -0.436,-0.155 l -3.431,-3.426 -0.478,0.477 c -0.557,0.569 -1.436,0.668 -2.108,0.242 l -1.449,1.455 z m 0.406,-7.26 3.258,3.249 c 1.763,-0.129 3.466,0.689 4.466,2.147 0.996,1.459 1.143,3.34 0.379,4.932 -0.137,0.249 -0.448,0.348 -0.702,0.219 -0.052,-0.026 -0.103,-0.06 -0.146,-0.103 l -2.957,-2.952 c -0.177,-0.176 -0.419,-0.28 -0.673,-0.28 -0.254,0 -0.496,0.104 -0.673,0.28 -0.37,0.374 -0.37,0.977 0,1.347 l 2.953,2.952 c 0.121,0.12 0.177,0.292 0.146,0.46 -0.03,0.168 -0.137,0.314 -0.293,0.383 -1.594,0.766 -3.478,0.62 -4.94,-0.374 -1.461,-0.998 -2.28,-2.698 -2.142,-4.462 l -4.173,-4.14 -3.609,3.61 c -0.107,0.108 -0.189,0.237 -0.237,0.383 l -0.845,2.63 c -0.172,0.542 -0.569,0.985 -1.091,1.221 l -2.883,1.287 c -0.767,0.344 -1.668,0.177 -2.268,-0.418 l -0.577,-0.572 c -0.591,-0.598 -0.754,-1.493 -0.409,-2.259 l 1.31,-2.883 c 0.233,-0.516 0.677,-0.912 1.22,-1.088 l 2.857,-0.912 3.759,-3.741 -4.172,-4.165 c -1.315,0.094 -2.617,-0.336 -3.612,-1.2 -0.996,-0.866 -1.608,-2.092 -1.694,-3.404 -0.061,-0.857 0.103,-1.717 0.473,-2.492 0.074,-0.155 0.216,-0.267 0.384,-0.297 0.168,-0.026 0.341,0.026 0.461,0.151 l 2.958,2.947 c 0.37,0.37 0.974,0.37 1.349,0 0.371,-0.37 0.371,-0.972 0,-1.346 l -2.957,-2.948 c -0.203,-0.206 -0.203,-0.538 0,-0.744 0.043,-0.039 0.09,-0.078 0.142,-0.104 1.599,-0.765 3.483,-0.623 4.945,0.375 1.465,0.998 2.28,2.698 2.146,4.462 l 3.265,3.275 7.78,-7.763 c 0.944,-0.938 2.466,-0.938 3.41,0 l 1.172,1.17 c 0.94,0.938 0.94,2.457 0,3.395 l -7.78,7.772"
                             style="fill:#161a23;fill-opacity:1;fill-rule:nonzero;stroke:none"
                             id="path128783" />
                        </g>
                        <g
                           id="g128785">
                          <text
                             xml:space="preserve"
                             transform="matrix(1,0,0,-0.99811676,321.367,237.964)"
                             style="font-variant:normal;font-weight:normal;font-size:5.31px;font-family:Arial;-inkscape-font-specification:ArialMT;writing-mode:lr-tb;fill:#100f0d;fill-opacity:1;fill-rule:nonzero;stroke:none"
                             id="text128789"><tspan
                               x="0 3.54177 7.9650002"
                               y="0"
                               sodipodi:role="line"
                               id="tspan128787">YML</tspan></text>
                          <text
                             xml:space="preserve"
                             transform="matrix(1,0,0,-0.99811676,321.389,298.839)"
                             style="font-variant:normal;font-weight:normal;font-size:5.31px;font-family:Arial;-inkscape-font-specification:ArialMT;writing-mode:lr-tb;fill:#100f0d;fill-opacity:1;fill-rule:nonzero;stroke:none"
                             id="text128793"><tspan
                               x="0 2.654469 5.6068292 10.030059 12.982419 14.161239 17.1136 18.589779 21.542139"
                               y="0"
                               sodipodi:role="line"
                               id="tspan128791">Templates</tspan></text>
                          <text
                             xml:space="preserve"
                             transform="matrix(1,0,0,-0.9981463,320.228,225.685)"
                             style="font-variant:normal;font-weight:normal;font-size:7.013px;font-family:Arial;-inkscape-font-specification:ArialMT;writing-mode:lr-tb;fill:#100f0d;fill-opacity:1;fill-rule:nonzero;stroke:none"
                             id="text128797"><tspan
                               x="0 5.063386 8.9626141 12.861842 14.811456 18.710684 22.609913"
                               y="0"
                               sodipodi:role="line"
                               id="tspan128795">Content</tspan></text>
                          <text
                             xml:space="preserve"
                             transform="matrix(1,0,0,-0.9981463,318.362,289.521)"
                             style="font-variant:normal;font-weight:normal;font-size:7.013px;font-family:Arial;-inkscape-font-specification:ArialMT;writing-mode:lr-tb;fill:#100f0d;fill-opacity:1;fill-rule:nonzero;stroke:none"
                             id="text128801"><tspan
                               x="0 3.5057988 7.4050269 13.246856 17.146084 18.702971 22.602198 24.551811 28.45104"
                               y="0"
                               sodipodi:role="line"
                               id="tspan128799">Templates</tspan></text>
                          <text
                             xml:space="preserve"
                             transform="matrix(1,0,0,-0.9981463,319.798,202.017)"
                             style="font-variant:normal;font-weight:normal;font-size:7.013px;font-family:Arial;-inkscape-font-specification:ArialMT;writing-mode:lr-tb;fill:#100f0d;fill-opacity:1;fill-rule:nonzero;stroke:none"
                             id="text128805"><tspan
                               x="0 4.677671 8.5768986 12.476127 14.811456 18.317957"
                               y="0"
                               sodipodi:role="line"
                               id="tspan128803">Source</tspan></text>
                          <text
                             xml:space="preserve"
                             transform="matrix(1,0,0,-0.9981463,430.531,302.927)"
                             style="font-variant:normal;font-weight:normal;font-size:7.013px;font-family:Arial;-inkscape-font-specification:ArialMT;writing-mode:lr-tb;fill:#100f0d;fill-opacity:1;fill-rule:nonzero;stroke:none"
                             id="text128809"><tspan
                               x="0 5.063386 8.9626141 14.804443 18.703671 20.260557 21.817444 25.716671 27.666285 29.223171 33.122398"
                               y="0"
                               sodipodi:role="line"
                               id="tspan128807">Compilation</tspan></text>
                        </g>
                        <g
                           id="g128811">
                          <path
                             d="m 425.84,358.41 14.049,-13.959 -14.049,-13.959 -14.049,13.959 14.049,13.959"
                             style="fill:#7c1a20;fill-opacity:1;fill-rule:nonzero;stroke:none"
                             id="path128813" />
                        </g>
                        <g
                           id="g128815">
                          <path
                             d="m 425.84,358.41 14.049,-13.959 -14.049,-13.959 -14.049,13.959 z"
                             style="fill:none;stroke:#100f0d;stroke-width:0.404;stroke-linecap:butt;stroke-linejoin:miter;stroke-miterlimit:10;stroke-dasharray:none;stroke-opacity:1"
                             id="path128817" />
                        </g>
                        <g
                           id="g128819">
                          <text
                             xml:space="preserve"
                             transform="matrix(1,0,0,-0.99354198,422.329,341.474)"
                             style="font-variant:normal;font-weight:normal;font-size:8.052px;font-family:Arial;-inkscape-font-specification:ArialMT;writing-mode:lr-tb;fill:#fbfcfd;fill-opacity:1;fill-rule:nonzero;stroke:none"
                             id="text128823"><tspan
                               x="0"
                               y="0"
                               id="tspan128821">M</tspan></text>
                        </g>
                        <g
                           id="g128825">
                          <path
                             d="m 472.518,256.097 v 5.065 c 0,0.659 -0.348,1.268 -0.917,1.604 -1.22,0.716 -3.378,1.98 -4.697,2.754 -0.697,0.411 -1.565,0.398 -2.253,-0.024 -1.17,-0.721 -2.992,-1.844 -4.172,-2.569 -0.709,-0.439 -1.141,-1.209 -1.141,-2.042 v -5.186 c 0,-0.825 0.44,-1.591 1.155,-2.005 l 4.344,-2.535 c 0.578,-0.336 1.292,-0.344 1.876,-0.021 1.27,0.704 3.515,1.955 4.81,2.676 0.613,0.34 0.995,0.99 0.995,1.69 v 0.593"
                             style="fill:#ee2388;fill-opacity:1;fill-rule:evenodd;stroke:none"
                             id="path128827" />
                        </g>
                        <g
                           id="g128829">
                          <path
                             d="m 465.799,266.379 h 0.37 l 0.008,-0.004 h 0.008 l 0.009,-0.004 0.008,-0.004 0.009,-0.004 0.007,-0.005 0.009,-0.004 0.008,-0.004 0.009,-0.004 0.008,-0.004 0.008,-0.004 0.008,-0.005 0.009,-0.004 0.008,-0.004 0.009,-0.004 0.007,-0.004 0.009,-0.004 0.008,-0.005 0.009,-0.003 0.008,-0.005 0.016,-0.008 0.009,-0.004 0.008,-0.004 0.009,-0.004 0.007,-0.005 0.009,-0.004 0.008,-0.004 0.009,-0.004 0.008,-0.004 0.008,-0.004 0.008,-0.004 0.009,-0.005 0.008,-0.003 0.009,-0.005 0.007,-0.004 0.009,-0.004 0.008,-0.004 0.009,-0.004 0.008,-0.004 0.008,-0.005 0.008,-0.004 0.009,-0.004 0.008,-0.004 0.008,-0.004 0.245,0.004 0.016,-0.008 0.009,-0.005 0.008,-0.004 0.009,-0.004 0.007,-0.004 0.009,-0.004 0.008,-0.004 0.009,-0.005 0.008,-0.003 0.008,-0.005 0.008,-0.004 0.009,-0.004 0.008,-0.004 0.009,-0.004 0.008,-0.004 0.008,-0.004 0.008,-0.005 0.009,-0.004 0.008,-0.004 0.008,-0.004 0.008,-0.004 0.009,-0.004 0.008,-0.005 0.009,-0.003 0.008,-0.005 0.016,-0.008 0.009,-0.004 0.008,-0.004 0.009,-0.004 0.007,-0.005 0.009,-0.004 0.008,-0.004 0.009,-0.004 0.016,-0.008 4.701,-2.759 0.009,-0.004 0.008,-0.004 0.009,-0.005 0.008,-0.004 0.008,-0.004 0.008,-0.004 0.009,-0.004 0.008,-0.004 0.008,-0.005 0.016,-0.008 0.009,-0.004 0.008,-0.004 0.009,-0.004 0.008,-0.005 0.008,-0.003 0.008,-0.005 0.009,-0.004 0.008,-0.004 0.008,-0.004 0.009,-0.004 0.008,-0.004 0.008,-0.005 0.009,-0.004 0.008,-0.004 0.008,-0.004 0.008,-0.004 0.009,-0.004 0.008,-0.004 0.009,-0.005 0.007,-0.003 0.009,-0.005 0.008,-0.004 0.009,-0.004 0.012,-0.012 0.012,-0.013 0.013,-0.012 0.013,-0.013 0.012,-0.012 0.012,-0.013 0.013,-0.012 0.012,-0.012 0.013,-0.013 0.012,-0.012 0.012,-0.013 0.013,-0.012 0.013,-0.013 0.012,-0.012 0.012,-0.013 0.013,-0.012 0.013,-0.013 0.011,-0.012 0.013,-0.013 0.013,-0.012 0.012,-0.012 0.012,-0.013 0.013,-0.012 0.025,-0.025 0.012,-0.012 0.025,-0.025 0.013,-0.013 0.008,-0.012 0.009,-0.012 0.007,-0.013 v -0.004 l 0.009,-0.012 0.008,-0.013 v -0.004 l 0.009,-0.013 0.008,-0.012 0.008,-0.012 v -0.004 l 0.008,-0.013 v -0.004 l 0.009,-0.012 v -0.005 l 0.008,-0.012 0.009,-0.012 0.007,-0.013 0.009,-0.012 v -0.004 l 0.008,-0.013 v -0.004 l 0.009,-0.013 v -0.003 l 0.008,-0.013 v -0.004 l 0.008,-0.017 0.008,-0.016 v -0.004 l 0.009,-0.017 v -0.004 l 0.008,-0.017 v -0.004 l 0.009,-0.016 v -0.005 l 0.007,-0.016 v -0.004 l 0.009,-0.017 v -0.004 l 0.008,-0.016 0.009,-0.017 v -0.004 l 0.008,-0.017 v -0.004 l 0.008,-0.016 v -0.005 l 0.008,-0.016 v -0.004 l 0.009,-0.017 v -0.004 l 0.008,-0.016 v -0.005 l 0.009,-0.016 v -0.004 l 0.007,-0.017 v -0.004 l 0.009,-0.017 v -0.004 l 0.004,-0.016 v -0.005 l 0.004,-0.016 v -0.004 l 0.004,-0.017 v -0.004 l 0.005,-0.016 v -0.005 l 0.004,-0.016 v -0.004 l 0.004,-0.017 v -0.004 l 0.004,-0.017 v -0.004 l 0.004,-0.016 v -0.005 l 0.004,-0.016 v -0.004 l 0.004,-0.017 v -0.004 l 0.004,-0.016 v -0.005 l 0.005,-0.016 v -0.004 l 0.004,-0.017 v -0.004 l 0.004,-0.017 v -0.004 l 0.004,-0.016 v -0.004 l 0.005,-0.017 v -0.004 l 0.004,-0.017 v -0.004 l 0.003,-0.016 v -0.005 l 0.004,-0.016 v -0.004 l 0.005,-0.017 v -0.004 l 0.004,-0.016 v -0.005 l 0.004,-0.016 v -0.004 l 0.004,-0.017 v -0.004 l 0.005,-0.017 v -0.004 l 0.004,-0.016 v -0.005 l 0.004,-0.016 v -0.004 l 0.004,-0.017 v -0.004 l 0.004,-0.016 v -0.005 l 0.004,-0.016 v -0.004 l 0.004,-0.017 v -0.004 l 0.004,-0.017 v -6.466 l -0.004,-0.009 v -0.008 l -0.004,-0.008 -0.004,-0.009 -0.004,-0.008 -0.004,-0.008 -0.004,-0.008 -0.004,-0.009 -0.005,-0.008 -0.004,-0.008 -0.004,-0.009 -0.004,-0.008 -0.005,-0.008 -0.004,-0.009 -0.003,-0.007 -0.004,-0.009 -0.005,-0.008 -0.004,-0.008 -0.004,-0.009 -0.004,-0.008 -0.005,-0.008 0.162,-0.232 -0.004,-0.008 -0.004,-0.009 -0.004,-0.008 -0.004,-0.008 -0.004,-0.009 -0.004,-0.008 -0.005,-0.008 -0.004,-0.008 -0.004,-0.009 -0.004,-0.008 -0.005,-0.008 -0.004,-0.009 -0.003,-0.008 -0.004,-0.008 -0.005,-0.009 -0.004,-0.008 -0.004,-0.008 -0.004,-0.008 -0.005,-0.009 -0.004,-0.008 -0.004,-0.008 0.004,-0.034 -0.004,-0.008 -0.004,-0.008 -0.004,-0.008 -0.004,-0.008 -0.004,-0.009 -0.004,-0.008 -0.005,-0.008 -0.004,-0.009 -0.008,-0.016 -0.005,-0.008 -0.004,-0.009 -0.003,-0.008 -0.004,-0.008 -0.005,-0.009 -0.008,-0.016 -0.004,-0.009 -0.009,-0.016 -0.004,-0.009 -0.004,-0.009 -0.004,-0.007 -0.004,-0.008 -0.004,-0.009 -0.004,-0.008 -0.005,-0.009 -0.004,-0.008 -0.004,-0.008 -0.004,-0.008 -0.005,-0.008 -0.004,-0.009 -0.003,-0.008 -0.004,-0.009 -0.005,-0.007 -0.004,-0.008 -0.004,-0.009 -0.004,-0.008 -0.005,-0.008 -0.004,-0.009 -0.004,-0.009 -0.004,-0.007 -0.004,-0.009 -0.004,-0.008 -0.004,-0.008 -0.004,-0.009 -0.005,-0.009 -0.004,-0.007 -0.004,-0.008 -0.004,-0.009 -0.005,-0.008 -0.004,-0.008 -0.003,-0.009 -0.004,-0.009 -0.005,-0.007 -0.004,-0.009 -0.004,-0.008 -0.004,-0.008 -0.005,-0.009 -0.004,-0.009 -0.004,-0.008 -0.004,-0.007 -0.004,-0.009 -0.004,-0.008 -0.004,-0.008 -0.004,-0.009 -0.005,-0.007 -0.004,-0.01 -0.008,-0.016 -0.005,-0.008 -0.004,-0.009 -0.003,-0.008 -0.004,-0.007 -0.005,-0.009 -0.008,-0.016 -0.004,-0.009 -0.005,-0.009 -0.004,-0.008 -0.004,-0.007 -0.004,-0.01 -0.004,-0.008 -0.004,-0.008 -0.004,-0.009 -0.004,-0.008 -0.009,-0.007 -0.004,-0.01 -0.004,-0.003 -0.009,-0.008 -0.007,-0.009 -0.009,-0.004 -0.008,-0.009 -0.009,-0.004 -0.016,-0.008 -0.008,-0.004 -0.009,-0.004 -0.008,-0.005 -0.009,-0.004 -0.007,-0.004 -0.009,-0.004 -0.008,-0.004 -0.009,-0.004 -0.008,-0.005 -0.016,-0.008 -0.009,-0.004 -0.008,-0.003 -0.009,-0.005 -0.007,-0.004 -0.009,-0.004 -0.008,-0.004 -0.009,-0.005 -0.008,-0.004 -0.008,-0.004 -0.008,-0.004 -0.009,-0.004 -0.008,-0.004 -0.009,-0.005 -0.007,-0.004 -0.009,-0.004 -0.008,-0.004 -0.009,-0.004 -0.008,-0.004 -0.008,-0.005 -0.008,-0.003 -0.009,-0.005 -0.008,-0.004 -0.009,-0.004 -0.007,-0.004 -0.009,-0.004 -0.008,-0.004 -0.009,-0.005 -0.008,-0.004 -0.008,-0.004 -0.008,-0.004 -0.009,-0.004 -0.008,-0.004 -0.009,-0.004 -0.007,-0.005 -0.009,-0.003 -0.008,-0.005 -0.009,-0.004 -0.008,-0.004 -0.008,-0.004 -0.008,-0.004 -0.009,-0.004 -0.008,-0.005 -0.009,-0.004 -0.007,-0.004 -0.009,-0.004 -0.008,-0.004 -0.009,-0.004 -0.008,-0.005 -4.809,-2.675 -0.009,-0.005 -0.008,-0.004 -0.009,-0.004 -0.007,-0.004 -0.009,-0.004 -0.008,-0.004 -0.009,-0.005 -0.016,-0.008 -0.008,-0.004 -0.009,-0.004 -0.008,-0.004 -0.009,-0.005 -0.007,-0.004 -0.009,-0.004 -0.008,-0.004 -0.153,-0.132 -0.009,-0.005 -0.008,-0.003 -0.009,-0.005 -0.024,-0.012 -0.009,-0.004 -0.008,-0.004 -0.009,-0.005 -0.007,-0.004 -0.009,-0.004 -0.008,-0.004 -0.009,-0.004 -0.008,-0.004 -0.008,-0.005 -0.008,-0.004 -0.009,-0.004 -0.008,-0.004 -0.009,-0.004 -0.007,-0.004 -0.009,-0.004 -0.008,-0.004 -0.009,-0.004 -0.008,-0.005 -0.008,-0.004 -0.008,-0.004 -0.009,-0.004 -0.008,-0.004 -0.009,-0.005 -0.007,-0.004 -0.009,-0.004 -0.008,-0.004 -0.009,-0.004 -0.016,-0.008 -0.017,-0.005 h -0.004 l -0.016,-0.003 h -0.004 l -0.017,-0.005 h -0.004 l -0.016,-0.004 h -0.005 l -0.017,-0.004 h -0.004 l -0.016,-0.004 h -0.004 l -0.017,-0.004 h -0.004 l -0.016,-0.004 h -0.005 l -0.017,-0.005 h -0.004 l -0.016,-0.004 h -0.004 l -0.017,-0.004 h -0.004 l -0.016,-0.004 h -0.005 l -0.017,-0.004 h -0.004 l -0.016,-0.004 h -0.004 l -0.017,-0.005 h -0.004 l -0.016,-0.004 h -0.005 l -0.017,-0.004 h -0.004 l -0.016,-0.004 h -0.004 l -0.017,-0.004 h -0.004 l -0.016,-0.004 h -0.005 l -0.017,-0.005 h -0.651 l -0.017,0.005 h -0.004 l -0.016,0.004 h -0.004 l -0.017,0.004 h -0.004 l -0.016,0.004 h -0.005 l -0.034,0.008 h -0.003 l -0.017,0.005 h -0.004 l -0.017,0.004 h -0.003 l -0.017,0.004 h -0.005 l -0.017,0.004 h -0.003 l -0.017,0.004 h -0.004 l -0.017,0.004 h -0.003 l -0.017,0.005 h -0.005 l -0.017,0.004 h -0.003 l -0.017,0.004 h -0.004 l -0.017,0.004 h -0.003 l -0.017,0.004 h -0.005 l -0.017,0.004 h -0.003 l -0.017,0.005 h -0.004 l -0.017,0.003 h -0.003 l -0.017,0.005 h -0.005 l -0.017,0.004 h -0.003 l -0.017,0.004 -0.008,0.004 -0.009,0.004 -0.016,0.008 -0.008,0.005 -0.009,0.004 -0.008,0.004 -0.008,0.004 -0.008,0.004 -0.009,0.005 -0.008,0.004 -0.009,0.004 -0.008,0.004 -0.008,0.004 -0.008,0.004 -0.009,0.004 -0.008,0.004 -0.009,0.004 -0.007,0.005 -0.009,0.004 -0.008,0.004 -0.009,0.004 -0.016,0.008 -0.008,0.005 -0.009,0.004 -0.008,0.004 -0.009,0.004 -0.007,0.004 -0.009,0.004 -0.008,0.005 -0.009,0.003 -0.008,0.005 -0.008,0.004 -0.008,0.004 -0.009,0.004 -0.008,0.004 -0.009,0.004 v 0.021 l -0.007,0.004 -0.009,0.004 -0.008,0.005 -0.009,0.003 -0.008,0.005 -0.008,0.004 -0.008,0.004 -0.009,0.004 -0.008,0.004 -0.009,0.004 -0.007,0.005 -0.009,0.004 -0.008,0.004 -4.357,2.544 -0.009,0.003 -0.008,0.005 -0.008,0.004 -0.009,0.004 -0.007,0.004 -0.009,0.004 -0.008,0.004 -0.009,0.005 -0.008,0.004 -0.008,0.004 h -0.017 l -0.008,0.004 -0.009,0.004 -0.007,0.004 -0.009,0.005 -0.008,0.004 -0.009,0.004 -0.016,0.008 -0.008,0.004 -0.009,0.005 -0.008,0.003 -0.009,0.004 -0.007,0.005 -0.009,0.004 -0.008,0.004 -0.009,0.004 -0.033,0.071 -0.008,0.008 -0.009,0.004 -0.007,0.008 -0.009,0.009 -0.008,0.008 -0.009,0.008 -0.008,0.008 -0.008,0.009 -0.008,0.008 -0.009,0.008 -0.008,0.009 -0.009,0.008 -0.007,0.008 -0.009,0.009 -0.008,0.008 -0.009,0.008 -0.008,0.008 -0.008,0.009 -0.008,0.008 -0.009,0.008 -0.008,0.009 -0.009,0.007 -0.007,0.009 -0.009,0.008 -0.008,0.008 -0.009,0.009 -0.008,0.008 -0.008,0.008 -0.008,0.009 -0.009,0.008 -0.008,0.008 -0.009,0.008 -0.007,0.009 -0.009,0.008 -0.008,0.008 -0.009,0.009 -0.016,0.016 -0.008,0.009 -0.009,0.008 -0.008,0.009 -0.009,0.008 -0.007,0.009 -0.009,0.008 -0.008,0.007 -0.017,0.017 -0.008,0.008 -0.008,0.01 -0.009,0.008 -0.008,0.007 -0.009,0.009 -0.007,0.008 -0.009,0.009 -0.008,0.008 -0.009,0.007 -0.008,0.01 -0.008,0.007 -0.008,0.009 -0.009,0.008 -0.008,0.008 -0.009,0.008 -0.007,0.008 -0.009,0.01 -0.008,0.007 -0.009,0.009 -0.008,0.009 -0.005,0.008 -0.003,0.008 -0.004,0.007 -0.004,0.009 -0.005,0.009 -0.004,0.008 -0.004,0.008 -0.004,0.008 -0.005,0.008 -0.004,0.01 -0.004,0.008 -0.003,0.008 -0.005,0.008 -0.004,0.009 -0.008,0.015 -0.005,0.01 -0.004,0.007 -0.004,0.009 -0.004,0.008 -0.005,0.008 -0.003,0.009 -0.004,0.007 -0.004,0.009 -0.005,0.009 -0.004,0.008 -0.004,0.008 -0.004,0.007 -0.005,0.01 -0.004,0.007 -0.004,0.009 -0.003,0.009 -0.005,0.008 -0.004,0.008 -0.004,0.009 -0.004,0.007 -0.005,0.009 -0.004,0.008 -0.004,0.009 -0.004,0.008 -0.005,0.008 -0.003,0.009 -0.008,0.016 -0.005,0.008 -0.004,0.009 -0.004,0.008 -0.004,0.008 -0.005,0.009 -0.004,0.008 -0.004,0.008 -0.003,0.008 -0.005,0.008 -0.004,0.009 -0.004,0.008 -0.004,0.008 -0.005,0.009 -0.008,0.016 -0.004,0.009 -0.005,0.008 -0.003,0.008 -0.004,0.009 -0.004,0.008 -0.005,0.008 -0.004,0.008 -0.004,0.009 -0.008,0.016 -0.005,0.009 -0.004,0.008 -0.003,0.008 -0.005,0.009 -0.004,0.008 -0.004,0.008 -0.004,0.008 -0.125,0.145 -0.004,0.008 -0.004,0.009 -0.005,0.008 -0.004,0.008 -0.004,0.008 -0.003,0.009 -0.004,0.008 -0.005,0.008 -0.004,0.009 -0.004,0.008 v 0.041 l -0.004,0.009 -0.005,0.008 -0.004,0.008 -0.004,0.009 -0.005,0.008 -0.003,0.008 -0.004,0.009 -0.004,0.008 -0.004,0.008 -0.005,0.008 -0.004,0.009 -0.004,0.008 -0.004,0.008 -0.005,0.009 -0.004,0.008 -0.004,0.008 -0.003,0.009 -0.005,0.007 -0.004,0.009 -0.008,0.016 -0.005,0.009 -0.004,0.008 v 0.008 l -0.004,0.008 v 0.009 l -0.004,0.008 v 0.013 l -0.008,0.016 -0.004,0.013 -0.004,0.012 v 6.255 l 0.004,0.012 v 0.009 l 0.004,0.008 0.004,0.008 0.004,0.013 0.004,0.008 0.004,0.009 0.004,0.008 0.005,0.008 0.004,0.008 0.004,0.009 0.004,0.008 0.005,0.008 0.003,0.009 0.008,0.016 0.005,0.008 0.004,0.008 0.004,0.009 0.004,0.008 0.005,0.008 0.004,0.009 0.004,0.008 0.004,0.008 0.003,0.009 0.005,0.008 0.008,0.016 0.005,0.009 0.008,0.016 0.004,0.009 0.005,0.008 0.004,0.008 0.003,0.009 0.004,0.008 0.004,0.008 0.005,0.008 0.004,0.009 0.008,0.016 0.005,0.009 0.004,0.008 0.004,0.008 -0.017,0.136 0.004,0.009 0.005,0.009 0.004,0.007 0.004,0.009 0.004,0.008 0.004,0.008 0.004,0.009 0.004,0.008 0.005,0.008 0.004,0.008 0.004,0.009 0.008,0.016 0.005,0.009 0.003,0.008 0.004,0.008 0.004,0.009 0.005,0.008 0.004,0.008 0.004,0.008 0.005,0.009 0.004,0.008 0.004,0.008 0.004,0.009 0.003,0.008 0.005,0.008 0.017,0.074 0.004,0.009 0.008,0.016 0.005,0.009 0.003,0.008 0.004,0.008 0.005,0.009 0.004,0.008 0.008,0.016 0.004,0.009 0.005,0.008 0.004,0.008 0.004,0.009 0.003,0.008 0.005,0.008 0.004,0.009 0.004,0.008 0.004,0.008 0.005,0.009 0.004,0.008 0.008,0.016 0.005,0.009 0.003,0.008 0.004,0.008 0.004,0.009 0.005,0.008 0.004,0.008 0.004,0.008 0.004,0.008 0.005,0.009 0.008,0.016 0.003,0.009 0.005,0.008 0.004,0.008 0.004,0.008 0.004,0.009 0.005,0.008 0.004,0.008 0.004,0.009 0.004,0.008 0.005,0.008 0.003,0.009 0.008,0.016 0.005,0.008 0.004,0.009 0.004,0.008 0.004,0.008 0.009,0.009 0.007,0.008 0.009,0.008 0.008,0.009 0.009,0.008 0.008,0.008 0.008,0.008 0.008,0.009 0.009,0.008 0.008,0.008 0.009,0.008 0.007,0.008 0.009,0.009 0.008,0.008 0.009,0.008 0.008,0.009 0.033,0.033 0.009,0.008 0.007,0.008 0.009,0.009 0.008,0.008 0.009,0.008 0.008,0.009 0.008,0.008 0.025,0.025 0.009,0.008 0.007,0.008 0.009,0.009 0.008,0.008 0.009,0.008 0.016,0.016 0.008,0.009 0.009,0.008 0.017,0.017 0.007,0.008 0.009,0.008 0.008,0.009 0.009,0.008 0.008,0.008 0.008,0.009 0.008,0.008 0.009,0.008 0.017,0.017 0.007,0.008 0.009,0.008 0.008,0.009 0.009,0.008 0.008,0.008 0.008,0.009 0.008,0.008 0.009,0.008 0.033,0.033 0.008,0.009 0.009,0.008 0.008,0.008 0.008,0.009 0.008,0.007 0.017,0.017 0.009,0.008 0.008,0.009 0.016,0.016 0.009,0.008 0.008,0.009 0.009,0.008 0.007,0.008 0.009,0.009 0.008,0.008 0.009,0.004 0.008,0.009 0.008,0.004 0.008,0.008 0.009,0.004 0.008,0.004 0.009,0.005 0.007,0.003 0.009,0.004 0.008,0.005 0.009,0.004 4.17,2.568 0.008,0.004 0.008,0.004 0.009,0.005 0.008,0.004 0.009,0.004 0.007,0.004 0.009,0.004 0.008,0.004 0.009,0.005 0.024,0.012 0.009,0.004 0.008,0.004 0.009,0.005 0.007,0.003 0.009,0.005 0.008,0.004 0.009,0.004 0.008,0.004 0.016,0.008 0.009,0.005 0.008,0.004 0.009,0.004 0.007,0.004 0.208,0.12 0.008,0.004 0.009,0.004 0.008,0.005 0.009,0.004 0.007,0.004 0.009,0.004 0.008,0.004 0.009,0.004 0.008,0.004 0.008,0.005 0.008,0.003 0.009,0.005 0.008,0.004 0.009,0.004 0.007,0.004 0.009,0.004 0.008,0.004 0.009,0.005 0.016,0.008 0.008,0.004 0.009,0.004 0.008,0.004 0.009,0.005 0.007,0.004 0.009,0.004 0.008,0.004 0.009,0.004 0.008,0.004 0.008,0.005 0.008,0.003 0.009,0.005 0.008,0.004 0.009,0.004 0.016,0.008 0.008,0.004 0.009,0.004 0.008,0.005 0.008,0.004 0.008,0.004 0.009,0.004 0.008,0.004 0.009,0.004 0.008,0.005 0.008,0.003 0.008,0.005 0.009,0.004 0.008,0.004 0.009,0.004 0.007,0.004 0.009,0.004 0.008,0.005 0.009,0.004 0.024,0.012 0.009,0.004 0.008,0.005 h 0.016 l 0.009,0.004 h 0.336 z m -0.008,-1.118 h -0.606 l -0.008,-0.005 h -0.016 l -0.009,-0.004 h -0.021 l -0.008,-0.004 -0.008,-0.004 -0.009,-0.004 -0.004,-0.004 -0.008,-0.005 -0.005,-0.004 -0.003,-0.003 -0.008,-0.005 -0.009,-0.004 -0.008,-0.004 -0.009,-0.004 -0.004,-0.004 -0.003,-0.004 -0.009,-0.005 -0.008,-0.008 -0.005,-0.004 -0.008,-0.004 -0.004,-0.004 -0.008,-0.005 -0.004,-0.004 -0.004,-0.004 -0.005,-0.004 -0.008,-0.004 -0.004,-0.004 -0.005,-0.005 -0.004,-0.004 -0.004,-0.004 -0.004,-0.004 -0.004,-0.004 -0.029,-0.029 -0.005,-0.004 -0.003,-0.004 -0.004,-0.004 -0.004,-0.005 -0.005,-0.004 -0.004,-0.004 -0.004,-0.004 -0.004,-0.004 -0.005,-0.004 -0.004,-0.005 -0.004,-0.003 -0.008,-0.005 -4.104,-2.601 -0.009,-0.004 -0.008,-0.005 -0.008,-0.004 -0.008,-0.004 -0.009,-0.004 -0.008,-0.004 -0.009,-0.004 -0.007,-0.004 -0.009,-0.004 -0.008,-0.004 -0.009,-0.005 -0.008,-0.004 -0.008,-0.004 -0.008,-0.008 -0.009,-0.004 -0.004,-0.005 -0.004,-0.004 -0.004,-0.004 -0.005,-0.004 -0.003,-0.004 -0.004,-0.004 -0.004,-0.005 -0.005,-0.003 -0.004,-0.005 -0.008,-0.008 -0.005,-0.004 -0.004,-0.004 -0.004,-0.004 -0.003,-0.005 -0.005,-0.004 -0.004,-0.004 -0.004,-0.004 -0.004,-0.004 -0.005,-0.004 -0.004,-0.005 -0.004,-0.004 -0.004,-0.004 -0.005,-0.004 -0.003,-0.004 -0.004,-0.004 -0.004,-0.004 -0.005,-0.005 -0.004,-0.003 -0.004,-0.005 -0.004,-0.004 -0.005,-0.004 -0.004,-0.004 -0.004,-0.004 -0.003,-0.004 -0.005,-0.005 -0.004,-0.004 -0.004,-0.004 -0.004,-0.004 -0.005,-0.004 -0.004,-0.004 -0.004,-0.005 -0.004,-0.004 -0.005,-0.004 -0.003,-0.004 -0.004,-0.004 -0.004,-0.004 -0.005,-0.005 -0.004,-0.003 -0.004,-0.005 -0.004,-0.004 -0.005,-0.004 -0.004,-0.004 -0.004,-0.004 -0.003,-0.004 -0.004,-0.004 -0.005,-0.005 -0.004,-0.004 -0.004,-0.004 -0.005,-0.004 -0.004,-0.004 -0.004,-0.004 -0.004,-0.005 -0.005,-0.003 -0.003,-0.005 -0.004,-0.004 -0.004,-0.004 -0.005,-0.004 -0.008,-0.008 -0.004,-0.005 -0.004,-0.004 -0.005,-0.004 -0.004,-0.004 -0.003,-0.004 -0.005,-0.004 -0.004,-0.005 -0.004,-0.004 -0.004,-0.004 -0.005,-0.004 -0.004,-0.004 -0.004,-0.009 -0.004,-0.003 -0.004,-0.005 -0.004,-0.008 -0.004,-0.004 -0.008,-0.008 -0.005,-0.004 -0.004,-0.009 -0.004,-0.008 -0.005,-0.004 -0.004,-0.009 -0.004,-0.008 -0.003,-0.004 -0.005,-0.008 -0.004,-0.008 -0.004,-0.009 -0.004,-0.008 -0.004,-0.008 -0.005,-0.009 -0.012,-0.024 -0.004,-0.009 -0.004,-0.008 -0.004,-0.008 -0.005,-0.009 -0.004,-0.008 -0.004,-0.008 -0.004,-0.009 -0.004,-0.008 -0.005,-0.008 -0.004,-0.008 -0.003,-0.008 -0.004,-0.009 -0.005,-0.008 -0.004,-0.008 -0.004,-0.008 -0.004,-0.009 -0.005,-0.008 -0.004,-0.008 -0.004,-0.009 -0.008,-0.016 -0.004,-0.009 -0.004,-0.008 -0.004,-0.008 -0.005,-0.008 -0.004,-0.009 -0.004,-0.008 -0.004,-0.008 -0.005,-0.009 -0.004,-0.008 -0.003,-0.008 -0.004,-0.009 -0.005,-0.008 -0.004,-0.008 -0.004,-0.008 -0.004,-0.009 -0.005,-0.008 -0.004,-0.008 -0.004,-0.009 -0.008,-0.016 -0.004,-0.009 -0.004,-0.008 -0.004,-0.008 -0.005,-0.008 -0.004,-0.008 -0.004,-0.009 -0.004,-0.008 -0.005,-0.008 -0.004,-0.009 -0.003,-0.008 -0.004,-0.008 v -0.008 l -0.005,-0.009 -0.004,-0.008 v -0.025 l -0.004,-0.008 v -0.025 l -0.004,-0.008 v -6.417 l 0.004,-0.008 0.004,-0.009 0.004,-0.008 0.005,-0.008 v -0.008 l 0.004,-0.009 0.003,-0.008 0.004,-0.008 0.005,-0.009 0.004,-0.008 0.004,-0.008 0.004,-0.009 0.005,-0.008 0.004,-0.008 0.004,-0.008 0.004,-0.009 0.008,-0.016 0.004,-0.009 0.004,-0.008 0.005,-0.008 0.004,-0.009 0.004,-0.008 0.004,-0.008 0.005,-0.008 0.004,-0.009 0.003,-0.008 0.004,-0.008 0.005,-0.008 0.004,-0.008 0.004,-0.009 0.004,-0.008 0.005,-0.008 0.004,-0.005 0.004,-0.008 0.004,-0.004 0.004,-0.008 0.004,-0.005 0.004,-0.004 0.004,-0.004 0.005,-0.004 0.004,-0.004 0.004,-0.004 0.004,-0.005 0.005,-0.003 0.004,-0.005 0.003,-0.004 0.004,-0.004 0.005,-0.004 0.004,-0.004 0.004,-0.004 0.004,-0.005 0.004,-0.004 0.005,-0.004 0.004,-0.004 0.004,-0.004 0.004,-0.004 0.004,-0.005 0.004,-0.004 0.004,-0.004 0.005,-0.004 0.016,-0.016 0.005,-0.004 0.003,-0.005 0.004,-0.004 0.004,-0.004 0.005,-0.004 0.008,-0.008 0.005,-0.005 0.008,-0.008 0.004,-0.004 0.004,-0.004 0.004,-0.004 0.004,-0.005 0.004,-0.003 0.004,-0.005 0.005,-0.004 0.004,-0.004 0.004,-0.004 0.004,-0.004 0.005,-0.004 -0.063,0.153 0.017,-0.017 0.004,-0.004 0.004,-0.004 0.004,-0.004 0.004,-0.004 0.004,-0.004 0.004,-0.005 0.005,-0.003 0.004,-0.005 0.004,-0.004 0.004,-0.004 0.005,-0.004 0.003,-0.004 0.004,-0.004 0.004,-0.005 0.005,-0.004 0.012,-0.012 0.005,-0.004 0.004,-0.005 0.004,-0.004 0.003,-0.004 0.005,-0.004 0.008,-0.008 0.004,-0.005 0.005,-0.003 0.004,-0.005 0.004,-0.004 0.004,-0.004 0.005,-0.004 0.003,-0.004 0.004,-0.004 0.004,-0.004 0.005,-0.005 0.004,-0.004 0.004,-0.004 0.004,-0.004 0.005,-0.004 0.004,-0.004 0.004,-0.005 0.003,-0.004 0.005,-0.004 0.004,-0.004 0.004,-0.004 0.009,-0.009 0.004,-0.003 0.004,-0.005 0.004,-0.004 0.005,-0.004 0.003,-0.004 0.004,-0.004 0.004,-0.004 0.005,-0.005 0.004,-0.004 0.004,-0.004 0.004,-0.004 0.005,-0.004 0.004,-0.004 0.004,-0.005 0.003,-0.004 0.005,-0.004 0.008,-0.008 0.009,-0.004 0.004,-0.005 0.004,-0.004 0.004,-0.003 0.005,-0.006 0.003,-0.003 0.004,-0.004 0.009,-0.004 0.008,-0.004 0.009,-0.004 0.004,-0.005 0.007,-0.004 0.009,-0.004 0.004,-0.004 0.009,-0.005 0.008,-0.004 0.009,-0.004 0.007,-0.003 0.009,-0.005 0.008,-0.004 0.009,-0.004 0.008,-0.004 0.008,-0.004 4.345,-2.537 0.004,-0.003 0.004,-0.005 0.004,-0.004 0.005,-0.004 0.004,-0.004 0.004,-0.004 0.003,-0.004 0.005,-0.005 0.004,-0.004 0.004,-0.004 0.004,-0.004 0.005,-0.004 0.004,-0.004 0.004,-0.005 0.004,-0.004 0.005,-0.004 0.003,-0.004 0.008,-0.008 0.005,-0.005 0.004,-0.003 h 0.004 l 0.004,-0.004 h 0.013 l 0.003,-0.005 0.005,-0.004 h 0.004 l 0.004,-0.004 h 0.092 l 0.012,-0.004 0.008,-0.004 0.008,-0.004 0.009,-0.005 0.008,-0.004 0.009,-0.004 0.007,-0.004 0.009,-0.004 0.008,-0.004 0.009,-0.005 0.008,-0.004 0.008,-0.004 h 0.008 l 0.009,-0.004 h 0.539 l 0.009,0.004 h 0.008 l 0.016,0.008 0.009,0.005 0.008,0.004 0.009,0.004 0.008,0.004 0.016,0.008 0.013,0.005 h 0.124 l 0.005,0.004 0.004,0.004 h 0.004 l 0.003,0.004 0.005,0.004 h 0.004 l 0.004,0.004 0.004,0.005 0.005,0.004 0.004,0.003 0.004,0.005 0.004,0.004 0.005,0.004 0.003,0.004 0.004,0.004 0.004,0.004 0.005,0.005 0.004,0.004 0.004,0.004 0.004,0.004 0.005,0.004 0.004,0.004 4.813,2.677 0.004,0.004 0.004,0.005 0.005,0.004 0.012,0.012 0.004,0.004 0.004,0.005 0.004,0.004 0.004,0.004 0.005,0.004 0.008,0.008 0.004,0.005 0.005,0.003 0.004,0.005 0.003,0.004 0.004,0.004 0.005,0.004 0.004,0.004 0.004,0.004 0.004,0.005 0.005,0.004 0.012,0.012 0.008,0.008 0.004,0.005 0.004,0.004 0.005,0.004 0.004,0.004 0.004,0.004 0.004,0.004 0.005,0.005 0.004,0.003 0.003,0.005 0.004,0.004 0.005,0.004 0.004,0.004 0.008,0.008 0.005,0.005 0.004,0.004 0.004,0.004 0.004,0.004 0.004,0.004 0.004,0.004 0.004,0.005 0.004,0.004 0.005,0.004 0.008,0.008 0.004,0.004 0.005,0.005 0.004,0.003 0.003,0.005 0.004,0.004 0.005,0.004 0.004,0.004 0.004,0.004 0.004,0.004 0.005,0.004 0.004,0.005 0.016,0.016 0.004,0.004 0.004,0.005 0.005,0.003 0.004,0.005 0.004,0.004 0.004,0.004 0.005,0.004 0.004,0.004 0.003,0.004 0.004,0.005 0.005,0.004 0.004,0.004 0.004,0.004 0.004,0.004 0.005,0.004 0.004,0.005 0.004,0.004 0.004,0.004 0.012,0.012 0.004,0.005 0.005,0.003 0.004,0.005 0.008,0.008 0.005,0.004 0.004,0.004 0.003,0.004 0.009,0.009 0.004,0.004 0.004,0.004 0.004,0.004 0.005,0.004 0.004,0.004 0.004,0.005 0.004,0.003 0.004,0.005 0.004,0.004 0.008,0.008 0.005,0.004 0.004,0.004 0.004,0.005 0.004,0.004 0.005,0.004 0.004,0.004 0.003,0.004 0.017,0.017 0.004,0.004 0.005,0.004 0.004,0.004 0.004,0.004 0.004,0.004 0.004,0.004 0.004,0.005 0.004,0.004 0.004,0.004 0.005,0.004 0.008,0.008 0.004,0.005 0.005,0.004 0.004,0.004 0.003,0.004 0.004,0.004 0.005,0.004 0.004,0.005 0.004,0.003 0.004,0.005 0.005,0.004 0.004,0.004 0.004,0.004 0.004,0.004 0.004,0.004 0.004,0.005 0.004,0.004 0.004,0.004 0.005,0.004 0.004,0.004 0.004,0.004 0.004,0.005 0.005,0.004 0.004,0.004 0.003,0.004 v 6.412 l -0.003,0.009 -0.004,0.008 -0.005,0.008 -0.004,0.009 -0.004,0.008 -0.004,0.008 -0.005,0.009 -0.004,0.008 -0.004,0.008 -0.004,0.008 -0.004,0.009 -0.004,0.008 -0.004,0.008 -0.004,0.009 -0.005,0.008 -0.008,0.016 -0.004,0.008 -0.005,0.009 -0.004,0.008 -0.003,0.008 -0.004,0.009 -0.005,0.008 -0.004,0.008 -0.004,0.009 -0.004,0.008 -0.005,0.008 -0.004,0.008 -0.004,0.009 -0.004,0.008 -0.004,0.008 -0.004,0.009 -0.004,0.008 -0.004,0.008 -0.005,0.009 -0.004,0.008 -0.004,0.008 -0.004,0.008 -0.005,0.009 -0.004,0.008 -0.003,0.008 -0.004,0.009 -0.005,0.008 -0.004,0.008 -0.004,0.009 -0.004,0.008 -0.005,0.008 -0.004,0.008 -0.004,0.008 -0.004,0.009 -0.004,0.008 -0.008,0.016 -0.004,0.009 -0.005,0.008 -0.004,0.008 -0.004,0.009 -0.009,0.008 -0.007,0.008 -0.009,0.009 -0.008,0.008 -0.009,0.008 0.208,0.112 -0.009,0.008 -0.007,0.009 -0.009,0.008 -0.008,0.008 -0.009,0.008 -0.008,0.009 -0.008,0.008 -0.017,0.017 -0.008,0.008 -0.009,0.008 -0.007,0.009 -0.009,0.008 -0.008,0.008 -0.009,0.008 -0.008,0.009 -0.008,0.008 -0.008,0.008 -0.009,0.008 -0.008,0.008 -0.009,0.009 -0.007,0.008 -0.009,0.008 -0.004,0.005 -0.004,0.004 -0.004,0.004 -0.005,0.004 -0.004,0.004 -0.004,0.004 -0.004,0.005 -0.004,0.004 -0.004,0.004 -0.004,0.004 -0.004,0.004 -0.005,0.004 -0.004,0.005 -0.004,0.003 -0.004,0.005 -0.005,0.004 -0.004,0.004 -0.003,0.004 -0.004,0.004 -0.005,0.004 -0.004,0.004 -0.004,0.005 -0.004,0.004 -0.005,0.004 -0.004,0.004 -0.008,0.008 -0.004,0.005 -0.004,0.004 -0.004,0.004 -0.004,0.004 -0.005,0.004 -0.004,0.004 -0.004,0.005 -4.689,2.688 -0.008,0.004 -0.004,0.004 -0.005,0.004 -0.004,0.005 -0.004,0.003 -0.004,0.005 -0.005,0.004 -0.003,0.004 -0.008,0.008 -0.005,0.004 -0.004,0.005 -0.004,0.004 -0.004,0.004 -0.005,0.004 -0.004,0.004 -0.004,0.004 -0.008,0.004 -0.004,0.005 -0.008,0.008 -0.005,0.004 -0.008,0.004 -0.004,0.004 -0.005,0.004 -0.007,0.004 -0.004,0.005 -0.005,0.004 -0.008,0.004 -0.009,0.004 -0.004,0.004 -0.007,0.004 -0.005,0.005 -0.008,0.004 -0.009,0.004 -0.008,0.004 -0.009,0.004 -0.007,0.004 -0.009,0.005 -0.008,0.004 -0.009,0.004 -0.016,0.008 -0.004,0.004 h -0.008 l -0.009,0.005 h -0.631 l 0.071,0.037"
                             style="fill:#c80d7f;fill-opacity:1;fill-rule:evenodd;stroke:none"
                             id="path128831" />
                        </g>
                        <g
                           id="g128833">
                          <path
                             d="m 462.633,254.108 v 8.583 h 1.801 v -3.127 h 2.984 v 3.127 h 1.805 v -8.583 h -1.805 v 3.753 h -2.984 v -3.753 h -1.801"
                             style="fill:#ffffff;fill-opacity:1;fill-rule:nonzero;stroke:none"
                             id="path128835" />
                        </g>
                        <g
                           id="g128837">
                          <path
                             d="m 334.914,237.248 v 4.099 h 1.208 l 1.208,-1.507 1.208,1.507 h 1.207 v -4.099 h -1.207 v 2.351 l -1.208,-1.507 -1.208,1.507 v -2.351 z m 7.548,0 -1.811,1.989 h 1.208 v 2.11 h 1.207 v -2.11 h 1.208 l -1.812,-1.989"
                             style="fill:#231f20;fill-opacity:1;fill-rule:nonzero;stroke:none"
                             id="path128839" />
                        </g>
                        <g
                           id="g128841">
                          <path
                             d="m 461.138,273.179 -1.177,-1.171 c -0.53,-0.525 -1.387,-0.525 -1.922,0 l -9.023,8.938 c -0.242,0.249 -0.242,0.649 0,0.903 l 2.187,2.182 c 0.254,0.245 0.654,0.245 0.904,0 l 9.01,-8.989 c 0.526,-0.529 0.526,-1.386 0,-1.915 l 0.021,0.052"
                             style="fill:#2f3082;fill-opacity:1;fill-rule:nonzero;stroke:none"
                             id="path128843" />
                        </g>
                        <g
                           id="g128845">
                          <path
                             d="m 453.672,290.848 c 0.121,0.111 0.177,0.275 0.156,0.439 -0.168,1.282 0.31,2.56 1.275,3.416 0.97,0.856 2.302,1.179 3.553,0.861 l -2.376,-2.367 c -0.784,-0.783 -0.784,-2.053 0,-2.836 0.785,-0.782 2.056,-0.782 2.841,0 l 2.371,2.371 c 0.332,-1.329 -0.052,-2.74 -1.022,-3.717 -0.857,-0.857 -2.064,-1.266 -3.267,-1.102 -0.159,0.017 -0.324,-0.039 -0.436,-0.155 l -3.431,-3.425 -0.478,0.477 c -0.557,0.569 -1.436,0.667 -2.108,0.242 l -1.449,1.454 4.371,4.342"
                             style="fill:#ced1ed;fill-opacity:1;fill-rule:nonzero;stroke:none"
                             id="path128847" />
                        </g>
                        <g
                           id="g128849">
                          <path
                             d="m 445.336,276.333 c -0.117,-0.116 -0.173,-0.28 -0.152,-0.439 0.169,-1.282 -0.314,-2.56 -1.28,-3.417 -0.965,-0.856 -2.297,-1.179 -3.552,-0.86 l 2.371,2.366 c 0.616,0.456 0.914,1.227 0.772,1.98 -0.143,0.748 -0.702,1.355 -1.445,1.557 -0.736,0.203 -1.525,-0.034 -2.034,-0.607 -0.034,-0.029 -0.069,-0.06 -0.099,-0.094 l -2.393,-2.371 c -0.323,1.334 0.074,2.745 1.057,3.713 0.849,0.861 2.055,1.27 3.258,1.106 0.143,-0.008 0.285,0.048 0.388,0.146 l 4.346,4.342 1.461,-1.446 c -0.427,-0.667 -0.327,-1.544 0.241,-2.099 l 0.478,-0.478 -3.417,-3.399"
                             style="fill:#ced1ed;fill-opacity:1;fill-rule:nonzero;stroke:none"
                             id="path128851" />
                        </g>
                        <g
                           id="g128853">
                          <path
                             d="m 442.701,289.105 -0.091,0.09 -3.095,0.99 c -0.263,0.082 -0.474,0.275 -0.587,0.525 l -1.309,2.87 c -0.164,0.366 -0.087,0.796 0.202,1.084 l 0.573,0.582 c 0.284,0.292 0.725,0.369 1.095,0.193 l 2.892,-1.304 c 0.25,-0.107 0.44,-0.323 0.527,-0.581 l 0.84,-2.629 c 0.095,-0.305 0.258,-0.581 0.483,-0.809 l 5.755,-5.783 -1.25,-1.239 -6.035,6.011"
                             style="fill:#e4e8f7;fill-opacity:1;fill-rule:nonzero;stroke:none"
                             id="path128855" />
                        </g>
                        <g
                           id="g128857">
                          <path
                             d="m 164.081,320.784 h 72.764 v 70.615 h -72.764 z"
                             style="fill:#fef2f5;fill-opacity:1;fill-rule:nonzero;stroke:none"
                             id="path128859" />
                        </g>
                        <g
                           id="g128861">
                          <path
                             d="m 164.081,391.4 h 72.764 v -70.616 h -72.764 z"
                             style="fill:none;stroke:#100f0d;stroke-width:0.497;stroke-linecap:butt;stroke-linejoin:miter;stroke-miterlimit:4;stroke-dasharray:1.292, 1.292;stroke-dashoffset:0;stroke-opacity:1"
                             id="path128863" />
                        </g>
                        <g
                           id="g128865">
                          <path
                             d="m 183.515,342.3 h 25.866 v 38.728 h -25.866 z"
                             style="fill:#fddde3;fill-opacity:1;fill-rule:nonzero;stroke:none"
                             id="path128867" />
                        </g>
                        <g
                           id="g128869">
                          <path
                             d="m 183.515,381.028 h 25.866 V 342.3 h -25.866 z"
                             style="fill:none;stroke:#100f0d;stroke-width:0.497;stroke-linecap:butt;stroke-linejoin:miter;stroke-miterlimit:4;stroke-dasharray:none;stroke-opacity:1"
                             id="path128871" />
                        </g>
                        <g
                           id="g128873">
                          <path
                             d="m 226.242,337.511 c 0.275,0.207 0.655,0.207 0.931,0 l 5.806,-5.813 c 0.194,-0.271 0.194,-0.637 0,-0.912 l -5.69,-5.737 c -0.147,-0.155 -0.349,-0.241 -0.56,-0.241 -0.216,0 -0.419,0.086 -0.565,0.241 l -5.729,5.737 c -0.194,0.275 -0.194,0.641 0,0.912 l 3.957,3.954 1.423,-1.411 c -0.177,-0.521 0.077,-1.089 0.582,-1.3 v -3.529 c -0.418,-0.188 -0.651,-0.641 -0.556,-1.092 0.094,-0.448 0.491,-0.77 0.952,-0.77 0.457,0 0.854,0.322 0.949,0.77 0.095,0.451 -0.138,0.904 -0.556,1.092 v 3.452 l 1.332,-1.351 c -0.169,-0.427 -0.013,-0.912 0.366,-1.166 0.38,-0.254 0.888,-0.207 1.215,0.116 0.328,0.318 0.384,0.826 0.143,1.213 -0.246,0.392 -0.724,0.555 -1.155,0.396 l -1.423,1.429 c 0.138,0.357 0.052,0.766 -0.22,1.037 -0.271,0.275 -0.677,0.361 -1.034,0.219 l -1.461,1.442 1.293,1.312"
                             style="fill:#7c1a20;fill-opacity:1;fill-rule:nonzero;stroke:none"
                             id="path128875" />
                        </g>
                        <g
                           id="g128877">
                          <path
                             d="m 226.242,337.511 c 0.275,0.207 0.655,0.207 0.931,0 l 5.806,-5.813 c 0.194,-0.271 0.194,-0.637 0,-0.912 l -5.69,-5.737 c -0.147,-0.155 -0.349,-0.241 -0.56,-0.241 -0.216,0 -0.419,0.086 -0.565,0.241 l -5.729,5.737 c -0.194,0.275 -0.194,0.641 0,0.912 l 3.957,3.954 1.423,-1.411 c -0.177,-0.521 0.077,-1.089 0.582,-1.3 v -3.529 c -0.418,-0.188 -0.651,-0.641 -0.556,-1.092 0.094,-0.448 0.491,-0.77 0.952,-0.77 0.457,0 0.854,0.322 0.949,0.77 0.095,0.451 -0.138,0.904 -0.556,1.092 v 3.452 l 1.332,-1.351 c -0.169,-0.427 -0.013,-0.912 0.366,-1.166 0.38,-0.254 0.888,-0.207 1.215,0.116 0.328,0.318 0.384,0.826 0.143,1.213 -0.246,0.392 -0.724,0.555 -1.155,0.396 l -1.423,1.429 c 0.138,0.357 0.052,0.766 -0.22,1.037 -0.271,0.275 -0.677,0.361 -1.034,0.219 l -1.461,1.442 z"
                             style="fill:none;stroke:#352916;stroke-width:0.497;stroke-linecap:butt;stroke-linejoin:miter;stroke-miterlimit:10;stroke-dasharray:none;stroke-opacity:1"
                             id="path128879" />
                        </g>
                        <g
                           id="g128881">
                          <path
                             d="M 209.381,381.028 311.66,344.451 M 209.381,342.3 311.66,305.723"
                             style="fill:none;stroke:#100f0d;stroke-width:0.497;stroke-linecap:butt;stroke-linejoin:miter;stroke-miterlimit:4;stroke-dasharray:1.292, 1.292;stroke-dashoffset:0;stroke-opacity:1"
                             id="path128883" />
                        </g>
                        <g
                           id="g128885">
                          <path
                             d="m 164.081,190.49 h 72.764 v 119.667 h -72.764 z"
                             style="fill:#fef2f5;fill-opacity:1;fill-rule:nonzero;stroke:none"
                             id="path128887" />
                        </g>
                        <g
                           id="g128889">
                          <path
                             d="m 164.081,310.156 h 72.764 V 190.49 h -72.764 z"
                             style="fill:none;stroke:#100f0d;stroke-width:0.497;stroke-linecap:butt;stroke-linejoin:miter;stroke-miterlimit:4;stroke-dasharray:1.292, 1.292;stroke-dashoffset:0;stroke-opacity:1"
                             id="path128891" />
                        </g>
                        <g
                           id="g128893">
                          <path
                             d="m 181.224,264.198 h 25.866 v 38.728 h -25.866 z"
                             style="fill:#f791a1;fill-opacity:1;fill-rule:nonzero;stroke:none"
                             id="path128895" />
                        </g>
                        <g
                           id="g128897">
                          <path
                             d="M 181.224,302.925 H 207.09 V 264.197 H 181.224 Z"
                             style="fill:none;stroke:#100f0d;stroke-width:0.497;stroke-linecap:butt;stroke-linejoin:miter;stroke-miterlimit:4;stroke-dasharray:none;stroke-opacity:1"
                             id="path128899" />
                        </g>
                        <g
                           id="g128901">
                          <path
                             d="m 207.383,243.321 v -33.194 h -25.602 v 38.728 h 21.946 l 3.656,-5.534"
                             style="fill:#f791a1;fill-opacity:1;fill-rule:nonzero;stroke:none"
                             id="path128903" />
                        </g>
                        <g
                           id="g128905">
                          <path
                             d="m 207.383,243.321 v -33.194 h -25.602 v 38.728 h 21.946 z"
                             style="fill:none;stroke:#100f0d;stroke-width:0.497;stroke-linecap:butt;stroke-linejoin:miter;stroke-miterlimit:10;stroke-dasharray:none;stroke-opacity:1"
                             id="path128907" />
                        </g>
                        <g
                           id="g128909">
                          <path
                             d="m 203.726,248.855 c 0.298,-1.296 -0.194,-2.629 -1.306,-3.559 l 5.225,-2.251 -3.919,5.81"
                             style="fill:#f25369;fill-opacity:1;fill-rule:nonzero;stroke:none"
                             id="path128911" />
                        </g>
                        <g
                           id="g128913">
                          <path
                             d="m 203.726,248.855 c 0.298,-1.296 -0.194,-2.629 -1.306,-3.559 l 5.225,-2.251 z"
                             style="fill:none;stroke:#100f0d;stroke-width:0.497;stroke-linecap:butt;stroke-linejoin:miter;stroke-miterlimit:10;stroke-dasharray:none;stroke-opacity:1"
                             id="path128915" />
                        </g>
                        <g
                           id="g128917">
                          <path
                             d="m 226.242,216.401 c 0.275,0.207 0.655,0.207 0.931,0 l 5.806,-5.814 c 0.194,-0.27 0.194,-0.636 0,-0.912 l -5.69,-5.735 c -0.147,-0.156 -0.349,-0.241 -0.56,-0.241 -0.216,0 -0.419,0.085 -0.565,0.241 l -5.729,5.735 c -0.194,0.276 -0.194,0.642 0,0.912 l 3.957,3.955 1.423,-1.412 c -0.177,-0.52 0.077,-1.088 0.582,-1.299 v -3.529 c -0.418,-0.188 -0.651,-0.641 -0.556,-1.093 0.094,-0.447 0.491,-0.769 0.952,-0.769 0.457,0 0.854,0.322 0.949,0.769 0.095,0.452 -0.138,0.905 -0.556,1.093 v 3.451 l 1.332,-1.35 c -0.169,-0.426 -0.013,-0.912 0.366,-1.166 0.38,-0.254 0.888,-0.207 1.215,0.116 0.328,0.318 0.384,0.826 0.143,1.213 -0.246,0.391 -0.724,0.555 -1.155,0.396 l -1.423,1.428 c 0.138,0.357 0.052,0.767 -0.22,1.037 -0.271,0.275 -0.677,0.361 -1.034,0.22 l -1.461,1.441 1.293,1.313"
                             style="fill:#7c1a20;fill-opacity:1;fill-rule:nonzero;stroke:none"
                             id="path128919" />
                        </g>
                        <g
                           id="g128921">
                          <path
                             d="m 226.242,216.401 c 0.275,0.207 0.655,0.207 0.931,0 l 5.806,-5.814 c 0.194,-0.27 0.194,-0.636 0,-0.912 l -5.69,-5.735 c -0.147,-0.156 -0.349,-0.241 -0.56,-0.241 -0.216,0 -0.419,0.085 -0.565,0.241 l -5.729,5.735 c -0.194,0.276 -0.194,0.642 0,0.912 l 3.957,3.955 1.423,-1.412 c -0.177,-0.52 0.077,-1.088 0.582,-1.299 v -3.529 c -0.418,-0.188 -0.651,-0.641 -0.556,-1.093 0.094,-0.447 0.491,-0.769 0.952,-0.769 0.457,0 0.854,0.322 0.949,0.769 0.095,0.452 -0.138,0.905 -0.556,1.093 v 3.451 l 1.332,-1.35 c -0.169,-0.426 -0.013,-0.912 0.366,-1.166 0.38,-0.254 0.888,-0.207 1.215,0.116 0.328,0.318 0.384,0.826 0.143,1.213 -0.246,0.391 -0.724,0.555 -1.155,0.396 l -1.423,1.428 c 0.138,0.357 0.052,0.767 -0.22,1.037 -0.271,0.275 -0.677,0.361 -1.034,0.22 l -1.461,1.441 z"
                             style="fill:none;stroke:#352916;stroke-width:0.497;stroke-linecap:butt;stroke-linejoin:miter;stroke-miterlimit:10;stroke-dasharray:none;stroke-opacity:1"
                             id="path128923" />
                        </g>
                        <g
                           id="g128925">
                          <path
                             d="m 207.09,302.925 108.88,37.223 M 207.09,264.198 315.97,301.42 M 203.726,248.855 315.97,277.753 M 207.383,210.126 315.97,239.025"
                             style="fill:none;stroke:#100f0d;stroke-width:0.497;stroke-linecap:butt;stroke-linejoin:miter;stroke-miterlimit:4;stroke-dasharray:1.292, 1.292;stroke-dashoffset:0;stroke-opacity:1"
                             id="path128927" />
                        </g>
                        <g
                           id="g128929">
                          <text
                             xml:space="preserve"
                             transform="matrix(1,0,0,-0.9981463,186.536,335.845)"
                             style="font-variant:normal;font-weight:normal;font-size:7.013px;font-family:Arial;-inkscape-font-specification:ArialMT;writing-mode:lr-tb;fill:#100f0d;fill-opacity:1;fill-rule:nonzero;stroke:none"
                             id="text128933"><tspan
                               x="0 4.2849431 8.1841707 12.083399 17.925228"
                               y="0"
                               sodipodi:role="line"
                               id="tspan128931">Theme</tspan></text>
                          <text
                             xml:space="preserve"
                             transform="matrix(1,0,0,-0.9981463,174.589,201.909)"
                             style="font-variant:normal;font-weight:normal;font-size:7.013px;font-family:Arial;-inkscape-font-specification:ArialMT;writing-mode:lr-tb;fill:#100f0d;fill-opacity:1;fill-rule:nonzero;stroke:none"
                             id="text128937"><tspan
                               x="0 4.677671 8.5768986 12.476127 14.811456 18.710684 22.609913 24.557423 28.063923 31.96315 35.862377 39.761604"
                               y="0"
                               sodipodi:role="line"
                               id="tspan128935">Shared code </tspan></text>
                          <text
                             xml:space="preserve"
                             transform="matrix(1,0,0,-0.9981463,177.121,193.508)"
                             style="font-variant:normal;font-weight:normal;font-size:7.013px;font-family:Arial;-inkscape-font-specification:ArialMT;writing-mode:lr-tb;fill:#100f0d;fill-opacity:1;fill-rule:nonzero;stroke:none"
                             id="text128941"><tspan
                               x="0 3.8992281 7.7984562 11.697684 13.645194 17.151693 21.050922 24.95015 26.899765 30.798992 34.698219"
                               y="0"
                               sodipodi:role="line"
                               id="tspan128939">and content</tspan></text>
                        </g>
                        <g
                           id="g128943">
                          <path
                             d="m 164.081,105.221 h 72.764 v 70.615 h -72.764 z"
                             style="fill:#fef2f5;fill-opacity:1;fill-rule:nonzero;stroke:none"
                             id="path128945" />
                        </g>
                        <g
                           id="g128947">
                          <path
                             d="m 164.081,175.836 h 72.764 v -70.615 h -72.764 z"
                             style="fill:none;stroke:#100f0d;stroke-width:0.497;stroke-linecap:butt;stroke-linejoin:miter;stroke-miterlimit:4;stroke-dasharray:1.292, 1.292;stroke-dashoffset:0;stroke-opacity:1"
                             id="path128949" />
                        </g>
                        <g
                           id="g128951">
                          <path
                             d="m 209.249,154.359 v -33.194 h -25.602 v 38.728 h 21.947 l 3.655,-5.534"
                             style="fill:#fabfca;fill-opacity:1;fill-rule:nonzero;stroke:none"
                             id="path128953" />
                        </g>
                        <g
                           id="g128955">
                          <path
                             d="m 209.249,154.359 v -33.194 h -25.602 v 38.728 h 21.947 z"
                             style="fill:none;stroke:#100f0d;stroke-width:0.497;stroke-linecap:butt;stroke-linejoin:miter;stroke-miterlimit:10;stroke-dasharray:none;stroke-opacity:1"
                             id="path128957" />
                        </g>
                        <g
                           id="g128959">
                          <path
                             d="m 205.784,159.893 c 0.297,-1.295 -0.194,-2.629 -1.307,-3.559 l 5.225,-2.251 -3.918,5.81"
                             style="fill:#f791a1;fill-opacity:1;fill-rule:nonzero;stroke:none"
                             id="path128961" />
                        </g>
                        <g
                           id="g128963">
                          <path
                             d="m 205.784,159.893 c 0.297,-1.295 -0.194,-2.629 -1.307,-3.559 l 5.225,-2.251 z"
                             style="fill:none;stroke:#100f0d;stroke-width:0.497;stroke-linecap:butt;stroke-linejoin:miter;stroke-miterlimit:10;stroke-dasharray:none;stroke-opacity:1"
                             id="path128965" />
                        </g>
                        <g
                           id="g128967">
                          <path
                             d="M 205.784,159.893 311.66,282.056 M 209.249,121.165 311.66,243.328"
                             style="fill:none;stroke:#100f0d;stroke-width:0.497;stroke-linecap:butt;stroke-linejoin:miter;stroke-miterlimit:4;stroke-dasharray:1.292, 1.292;stroke-dashoffset:0;stroke-opacity:1"
                             id="path128969" />
                        </g>
                        <g
                           id="g128971">
                          <text
                             xml:space="preserve"
                             transform="matrix(1,0,0,-0.9981463,85.87,229.385)"
                             style="font-variant:normal;font-weight:normal;font-size:7.013px;font-family:Arial;-inkscape-font-specification:ArialMT;writing-mode:lr-tb;fill:#100f0d;fill-opacity:1;fill-rule:nonzero;stroke:none"
                             id="text128975"><tspan
                               x="0 4.677671 8.5768986 10.526513 14.425741 18.324968"
                               y="0"
                               sodipodi:role="line"
                               id="tspan128973">Author</tspan></text>
                        </g>
                        <g
                           id="g128977">
                          <path
                             d="m 87.26,254.215 h 13.967 c 0.429,0 0.776,-0.347 0.776,-0.775 v -13.943 c 0,-0.427 -0.347,-0.774 -0.776,-0.774 H 87.26 c -0.429,0 -0.776,0.347 -0.776,0.774 v 13.943 c 0,0.428 0.347,0.775 0.776,0.775"
                             style="fill:#7c1a20;fill-opacity:1;fill-rule:nonzero;stroke:none"
                             id="path128979" />
                        </g>
                        <g
                           id="g128981">
                          <path
                             d="m 87.26,254.215 h 13.967 c 0.429,0 0.776,-0.347 0.776,-0.775 v -13.943 c 0,-0.427 -0.347,-0.774 -0.776,-0.774 H 87.26 c -0.429,0 -0.776,0.347 -0.776,0.774 v 13.943 c 0,0.428 0.347,0.775 0.776,0.775 z"
                             style="fill:none;stroke:#ffffff;stroke-width:0.497;stroke-linecap:butt;stroke-linejoin:miter;stroke-miterlimit:4;stroke-dasharray:none;stroke-opacity:1"
                             id="path128983" />
                        </g>
                        <g
                           id="g128985">
                          <path
                             d="m 97.43,250.828 0.767,0.766 1.18,-1.178 -0.767,-0.766 z m -0.177,-0.176 1.18,-1.179 -7.318,-7.304 -1.18,1.178 z m -7.436,-7.54 1.062,-1.061 -1.77,-0.707 0.708,1.768"
                             style="fill:#ffffff;fill-opacity:1;fill-rule:nonzero;stroke:none"
                             id="path128987" />
                        </g>
                        <g
                           id="g128989">
                          <path
                             d="m 88.306,313.512 h 11.165 c 1.322,0 2.393,-1.069 2.393,-2.388 v -12.867 c 0,-1.319 -1.071,-2.388 -2.393,-2.388 H 88.306 c -1.321,0 -2.392,1.069 -2.392,2.388 v 12.867 c 0,1.319 1.071,2.388 2.392,2.388"
                             style="fill:#7c1a20;fill-opacity:1;fill-rule:nonzero;stroke:none"
                             id="path128991" />
                        </g>
                        <g
                           id="g128993">
                          <path
                             d="m 88.306,313.512 h 11.165 c 1.322,0 2.393,-1.069 2.393,-2.388 v -12.867 c 0,-1.319 -1.071,-2.388 -2.393,-2.388 H 88.306 c -1.321,0 -2.392,1.069 -2.392,2.388 v 12.867 c 0,1.319 1.071,2.388 2.392,2.388 z"
                             style="fill:none;stroke:#100f0d;stroke-width:0.497;stroke-linecap:butt;stroke-linejoin:miter;stroke-miterlimit:4;stroke-dasharray:none;stroke-opacity:1"
                             id="path128995" />
                        </g>
                        <g
                           id="g128997">
                          <text
                             xml:space="preserve"
                             transform="matrix(1,0,0,-0.9981463,84.113,287.477)"
                             style="font-variant:normal;font-weight:normal;font-size:7.013px;font-family:Arial;-inkscape-font-specification:ArialMT;writing-mode:lr-tb;fill:#100f0d;fill-opacity:1;fill-rule:nonzero;stroke:none"
                             id="text129001"><tspan
                               x="0 5.063386 8.9626141 12.469114 16.368341 17.925228 21.824455 25.723684 29.622911"
                               y="0"
                               sodipodi:role="line"
                               id="tspan128999">Developer</tspan></text>
                        </g>
                        <g
                           id="g129003">
                          <path
                             d="m 226.242,121.01 c 0.275,0.207 0.655,0.207 0.931,0 l 5.806,-5.813 c 0.194,-0.271 0.194,-0.637 0,-0.913 l -5.69,-5.735 c -0.147,-0.156 -0.349,-0.241 -0.56,-0.241 -0.216,0 -0.419,0.085 -0.565,0.241 l -5.729,5.735 c -0.194,0.276 -0.194,0.642 0,0.913 l 3.957,3.955 1.423,-1.413 c -0.177,-0.52 0.077,-1.087 0.582,-1.298 v -3.529 c -0.418,-0.189 -0.651,-0.641 -0.556,-1.093 0.094,-0.448 0.491,-0.77 0.952,-0.77 0.457,0 0.854,0.322 0.949,0.77 0.095,0.452 -0.138,0.904 -0.556,1.093 v 3.451 l 1.332,-1.351 c -0.169,-0.426 -0.013,-0.912 0.366,-1.166 0.38,-0.254 0.888,-0.207 1.215,0.116 0.328,0.318 0.384,0.826 0.143,1.213 -0.246,0.392 -0.724,0.556 -1.155,0.397 l -1.423,1.427 c 0.138,0.358 0.052,0.767 -0.22,1.037 -0.271,0.276 -0.677,0.362 -1.034,0.22 l -1.461,1.441 1.293,1.313"
                             style="fill:#7c1a20;fill-opacity:1;fill-rule:nonzero;stroke:none"
                             id="path129005" />
                        </g>
                        <g
                           id="g129007">
                          <path
                             d="m 226.242,121.01 c 0.275,0.207 0.655,0.207 0.931,0 l 5.806,-5.813 c 0.194,-0.271 0.194,-0.637 0,-0.913 l -5.69,-5.735 c -0.147,-0.156 -0.349,-0.241 -0.56,-0.241 -0.216,0 -0.419,0.085 -0.565,0.241 l -5.729,5.735 c -0.194,0.276 -0.194,0.642 0,0.913 l 3.957,3.955 1.423,-1.413 c -0.177,-0.52 0.077,-1.087 0.582,-1.298 v -3.529 c -0.418,-0.189 -0.651,-0.641 -0.556,-1.093 0.094,-0.448 0.491,-0.77 0.952,-0.77 0.457,0 0.854,0.322 0.949,0.77 0.095,0.452 -0.138,0.904 -0.556,1.093 v 3.451 l 1.332,-1.351 c -0.169,-0.426 -0.013,-0.912 0.366,-1.166 0.38,-0.254 0.888,-0.207 1.215,0.116 0.328,0.318 0.384,0.826 0.143,1.213 -0.246,0.392 -0.724,0.556 -1.155,0.397 l -1.423,1.427 c 0.138,0.358 0.052,0.767 -0.22,1.037 -0.271,0.276 -0.677,0.362 -1.034,0.22 l -1.461,1.441 z"
                             style="fill:none;stroke:#352916;stroke-width:0.497;stroke-linecap:butt;stroke-linejoin:miter;stroke-miterlimit:10;stroke-dasharray:none;stroke-opacity:1"
                             id="path129009" />
                        </g>
                        <g
                           id="g129011">
                          <text
                             xml:space="preserve"
                             transform="matrix(1,0,0,-0.9981463,171.664,111.609)"
                             style="font-variant:normal;font-weight:normal;font-size:7.013px;font-family:Arial;-inkscape-font-specification:ArialMT;writing-mode:lr-tb;fill:#100f0d;fill-opacity:1;fill-rule:nonzero;stroke:none"
                             id="text129015"><tspan
                               x="0 4.677671 8.5768986 12.476127 14.811456 18.710684 22.609913 24.557423 28.063923 31.96315 35.862377 37.811993 41.71122 45.610447"
                               y="0"
                               sodipodi:role="line"
                               id="tspan129013">Shared content</tspan></text>
                        </g>
                        <g
                           id="g129017">
                          <path
                             d="m 101.863,304.534 h 30.466"
                             style="fill:none;stroke:#7c1a20;stroke-width:0.497;stroke-linecap:butt;stroke-linejoin:miter;stroke-miterlimit:10;stroke-dasharray:none;stroke-opacity:1"
                             id="path129019" />
                        </g>
                        <g
                           id="g129021">
                          <path
                             d="m 131.344,303.091 5.386,1.443 -5.386,1.444 v -2.887"
                             style="fill:#7c1a20;fill-opacity:1;fill-rule:nonzero;stroke:none"
                             id="path129023" />
                        </g>
                        <g
                           id="g129025">
                          <path
                             d="m 102.242,246.486 h 30.466"
                             style="fill:none;stroke:#7c1a20;stroke-width:0.497;stroke-linecap:butt;stroke-linejoin:miter;stroke-miterlimit:10;stroke-dasharray:none;stroke-opacity:1"
                             id="path129027" />
                        </g>
                        <g
                           id="g129029">
                          <path
                             d="m 131.723,245.042 5.386,1.444 -5.386,1.443 v -2.887"
                             style="fill:#7c1a20;fill-opacity:1;fill-rule:nonzero;stroke:none"
                             id="path129031" />
                        </g>
                      </g>
                    </g>
                  </g>
                </g>
              </g>
            </g>
          </g>
        </g>
      </g>
    </g>
  </g>
</svg>
