<?xml version="1.0" encoding="UTF-8" standalone="no"?>
<!-- Created with Inkscape (http://www.inkscape.org/) -->

<svg
   xmlns:dc="http://purl.org/dc/elements/1.1/"
   xmlns:cc="http://creativecommons.org/ns#"
   xmlns:rdf="http://www.w3.org/1999/02/22-rdf-syntax-ns#"
   xmlns:svg="http://www.w3.org/2000/svg"
   xmlns="http://www.w3.org/2000/svg"
   xmlns:sodipodi="http://sodipodi.sourceforge.net/DTD/sodipodi-0.dtd"
   xmlns:inkscape="http://www.inkscape.org/namespaces/inkscape"
   version="1.1"
   id="svg1205"
   xml:space="preserve"
   width="347.82718"
   height="71.451431"
   viewBox="0 0 347.82718 71.451431"
   sodipodi:docname="Listing3.10.svg"
   inkscape:version="0.92.3 (2405546, 2018-03-11)"><metadata
     id="metadata1211"><rdf:RDF><cc:Work
         rdf:about=""><dc:format>image/svg+xml</dc:format><dc:type
           rdf:resource="http://purl.org/dc/dcmitype/StillImage" /><dc:title></dc:title></cc:Work></rdf:RDF></metadata><defs
     id="defs1209"><clipPath
       clipPathUnits="userSpaceOnUse"
       id="clipPath1413"><path
         d="m 216.24,330.458 h 190.08 v -47.52 H 216.24 Z"
         id="path1411"
         inkscape:connector-curvature="0"
         style="clip-rule:evenodd" /></clipPath><clipPath
       clipPathUnits="userSpaceOnUse"
       id="clipPath1421"><path
         d="M 0,666.03 H 531 V 0.03 H 0 Z"
         id="path1419"
         inkscape:connector-curvature="0" /></clipPath><clipPath
       clipPathUnits="userSpaceOnUse"
       id="clipPath1495"><path
         d="m 102.12,174.818 h 372 V 63.698 h -372 z"
         id="path1493"
         inkscape:connector-curvature="0"
         style="clip-rule:evenodd" /></clipPath><clipPath
       clipPathUnits="userSpaceOnUse"
       id="clipPath1503"><path
         d="m 102.12,186.338 h 372 V 62.198 h -372 z"
         id="path1501"
         inkscape:connector-curvature="0"
         style="clip-rule:evenodd" /></clipPath><clipPath
       clipPathUnits="userSpaceOnUse"
       id="clipPath1511"><path
         d="M 0,666.03 H 531 V 0.03 H 0 Z"
         id="path1509"
         inkscape:connector-curvature="0" /></clipPath><clipPath
       clipPathUnits="userSpaceOnUse"
       id="clipPath1581"><path
         d="m 102.12,186.338 h 372 V 62.198 h -372 z"
         id="path1579"
         inkscape:connector-curvature="0"
         style="clip-rule:evenodd" /></clipPath><clipPath
       clipPathUnits="userSpaceOnUse"
       id="clipPath1589"><path
         d="M 0,666.03 H 531 V 0.03 H 0 Z"
         id="path1587"
         inkscape:connector-curvature="0" /></clipPath></defs><sodipodi:namedview
     pagecolor="#ffffff"
     bordercolor="#666666"
     borderopacity="1"
     objecttolerance="10"
     gridtolerance="10"
     guidetolerance="10"
     inkscape:pageopacity="0"
     inkscape:pageshadow="2"
     inkscape:window-width="1920"
     inkscape:window-height="1017"
     id="namedview1207"
     showgrid="false"
     fit-margin-top="0"
     fit-margin-left="0"
     fit-margin-right="0"
     fit-margin-bottom="0"
     inkscape:zoom="1.5033982"
     inkscape:cx="165.21258"
     inkscape:cy="21.601445"
     inkscape:window-x="1672"
     inkscape:window-y="-8"
     inkscape:window-maximized="1"
     inkscape:current-layer="g1213" /><g
     id="g1213"
     inkscape:groupmode="layer"
     inkscape:label="Hugo in Action Static sites and dynamic Jamstack apps (Atishay Jain) (z-lib.org)"
     transform="matrix(1.3333333,0,0,-1.3333333,-136.66914,437.89066)"><text
       id="text1355"
       style="font-variant:normal;font-weight:bold;font-size:7.98000002px;font-family:'Courier New';-inkscape-font-specification:Courier-Bold;writing-mode:lr-tb;fill:#262626;fill-opacity:1;fill-rule:nonzero;stroke:none"
       transform="scale(1,-1)"
       x="102.12"
       y="-324.99799"><tspan
         id="tspan1353"
         sodipodi:role="line"
         y="-324.99799"
         x="102.12 106.92396 111.72792">---</tspan></text>
<text
       id="text1359"
       style="font-variant:normal;font-weight:normal;font-size:7.98000002px;font-family:'Courier New';-inkscape-font-specification:Courier;writing-mode:lr-tb;fill:#4d4d4d;fill-opacity:1;fill-rule:nonzero;stroke:none"
       transform="scale(1,-1)"
       x="102.12"
       y="-304.95901"><tspan
         id="tspan1357"
         sodipodi:role="line"
         y="-304.95901"
         x="102.12 106.92396 111.72792 116.53188 121.33584 126.1398 130.94376 135.74773 140.49184 145.29579 150.09975 154.90372 159.70767 164.51163 169.31558 174.11955 178.92351 183.72746 188.53143 193.33539 198.13934 202.94331 207.74727 212.55122 217.35519 222.15915 226.9631 231.76706 236.57103 241.37498 246.17894 250.98291 255.78687 260.53098 265.33493 270.13892 274.94287"># Note that the file extension is .md</tspan></text>
<text
       id="text1363"
       style="font-variant:normal;font-weight:normal;font-size:7.98000002px;font-family:'Courier New';-inkscape-font-specification:Courier;writing-mode:lr-tb;fill:#262626;fill-opacity:1;fill-rule:nonzero;stroke:none"
       transform="scale(1,-1)"
       x="102.12"
       y="-294.99899"><tspan
         id="tspan1361"
         sodipodi:role="line"
         y="-294.99899"
         x="102.12 106.92396 111.72792 116.53188 121.33584 126.1398 130.94376 135.74773 140.49184 145.29579 150.09975 154.90372 159.70767 164.51163 169.31558 174.11955 178.92351 183.72746 188.53143 193.33539 198.13934 202.94331 207.74727 212.55122 217.35519 222.15915 226.9631">&lt;metadata section in YAML&gt; </tspan></text>
<text
       id="text1367"
       style="font-variant:normal;font-weight:bold;font-size:7.98000002px;font-family:'Courier New';-inkscape-font-specification:Courier-Bold;writing-mode:lr-tb;fill:#262626;fill-opacity:1;fill-rule:nonzero;stroke:none"
       transform="scale(1,-1)"
       x="102.12"
       y="-284.979"><tspan
         id="tspan1365"
         sodipodi:role="line"
         y="-284.979"
         x="102.12 106.92396 111.72792">---</tspan></text>
<text
       id="text1371"
       style="font-variant:normal;font-weight:normal;font-size:7.98000002px;font-family:'Courier New';-inkscape-font-specification:Courier;writing-mode:lr-tb;fill:#000000;fill-opacity:1;fill-rule:nonzero;stroke:none"
       transform="scale(1,-1)"
       x="102.12"
       y="-274.95801"><tspan
         id="tspan1369"
         sodipodi:role="line"
         y="-274.95801"
         x="102.12 106.92396 111.72792 116.53188 121.33584 126.1398 130.94376 135.74773 140.49184 145.29579 150.09975 154.90372 159.70767 164.51163 169.31558 174.11955 178.92351 183.72746 188.53143 193.33539 198.13934 202.94331 207.74727 212.55122 217.35519 222.15915 226.9631">&lt;data section in Markdown&gt; </tspan></text>
<g
       id="g1407"><g
         id="g1409"
         clip-path="url(#clipPath1413)"><g
           id="g1415"><g
             id="g1417"
             clip-path="url(#clipPath1421)"><g
               id="g1423"><text
                 transform="matrix(1,0,0,-1,309.06,310.058)"
                 style="font-variant:normal;font-weight:bold;font-size:9px;font-family:Humanist521BT;-inkscape-font-specification:Humanist521BT-BoldCondensed;writing-mode:lr-tb;fill:#656565;fill-opacity:1;fill-rule:nonzero;stroke:none"
                 id="text1427"><tspan
                   x="0"
                   y="0"
                   id="tspan1425">W</tspan></text>
<text
                 transform="matrix(1,0,0,-1,317.1,310.058)"
                 style="font-variant:normal;font-weight:bold;font-size:9px;font-family:Humanist521BT;-inkscape-font-specification:Humanist521BT-BoldCondensed;writing-mode:lr-tb;fill:#656565;fill-opacity:1;fill-rule:nonzero;stroke:none"
                 id="text1431"><tspan
                   x="0"
                   y="0"
                   id="tspan1429">r</tspan></text>
<text
                 transform="matrix(1,0,0,-1,320.459,310.058)"
                 style="font-variant:normal;font-weight:bold;font-size:9px;font-family:Humanist521BT;-inkscape-font-specification:Humanist521BT-BoldCondensed;writing-mode:lr-tb;fill:#656565;fill-opacity:1;fill-rule:nonzero;stroke:none"
                 id="text1435"><tspan
                   x="0 4.0679998 8.5950003 12.0771 14.3586 18.4266 20.708099 24.9111 29.3661 35.607601 39.749401"
                   y="0"
                   sodipodi:role="line"
                   id="tspan1433">aps a YAML </tspan></text>
<text
                 transform="matrix(1,0,0,-1,309.059,300.579)"
                 style="font-variant:normal;font-weight:bold;font-size:9px;font-family:Humanist521BT;-inkscape-font-specification:Humanist521BT-BoldCondensed;writing-mode:lr-tb;fill:#656565;fill-opacity:1;fill-rule:nonzero;stroke:none"
                 id="text1439"><tspan
                   x="0"
                   y="0"
                   id="tspan1437">g</tspan></text>
<text
                 transform="matrix(1,0,0,-1,313.139,300.579)"
                 style="font-variant:normal;font-weight:bold;font-size:9px;font-family:Humanist521BT;-inkscape-font-specification:Humanist521BT-BoldCondensed;writing-mode:lr-tb;fill:#656565;fill-opacity:1;fill-rule:nonzero;stroke:none"
                 id="text1443"><tspan
                   x="0"
                   y="0"
                   id="tspan1441">r</tspan></text>
<text
                 transform="matrix(1,0,0,-1,316.499,300.579)"
                 style="font-variant:normal;font-weight:bold;font-size:9px;font-family:Humanist521BT;-inkscape-font-specification:Humanist521BT-BoldCondensed;writing-mode:lr-tb;fill:#656565;fill-opacity:1;fill-rule:nonzero;stroke:none"
                 id="text1447"><tspan
                   x="0 4.3559999 8.7921 13.3101"
                   y="0"
                   sodipodi:role="line"
                   id="tspan1445">oupi</tspan></text>
<text
                 transform="matrix(1,0,0,-1,331.979,300.579)"
                 style="font-variant:normal;font-weight:bold;font-size:9px;font-family:Humanist521BT;-inkscape-font-specification:Humanist521BT-BoldCondensed;writing-mode:lr-tb;fill:#656565;fill-opacity:1;fill-rule:nonzero;stroke:none"
                 id="text1451"><tspan
                   x="0"
                   y="0"
                   id="tspan1449">n</tspan></text>
<text
                 transform="matrix(1,0,0,-1,336.479,300.579)"
                 style="font-variant:normal;font-weight:bold;font-size:9px;font-family:Humanist521BT;-inkscape-font-specification:Humanist521BT-BoldCondensed;writing-mode:lr-tb;fill:#656565;fill-opacity:1;fill-rule:nonzero;stroke:none"
                 id="text1455"><tspan
                   x="0 4.086 6.3621001 10.8531 12.9951 17.371799 20.9079"
                   y="0"
                   sodipodi:role="line"
                   id="tspan1453">g block</tspan></text>
</g><g
               id="g1457"><path
                 d="m 233.22,326.318 v -2.1 l -0.18,0.06 -4.08,1.92 -0.24,0.12 0.24,0.12 4.08,1.92 0.18,0.06 v -0.18 l -0.06,-0.12 -4.08,-1.92 -0.12,0.24 h 0.12 l 4.08,-1.92 -0.12,-0.24 -0.06,0.12 v 1.92"
                 style="fill:#000000;fill-opacity:1;fill-rule:nonzero;stroke:none"
                 id="path1459"
                 inkscape:connector-curvature="0" /></g><g
               id="g1461"><path
                 d="m 232.98,326.318 h 0.24 v 1.92 h -0.24 z"
                 style="fill:#000000;fill-opacity:1;fill-rule:nonzero;stroke:none"
                 id="path1463"
                 inkscape:connector-curvature="0" /></g><g
               id="g1465"><path
                 d="m 233.22,326.198 h 69.96 v 0.24 h -69.96 z"
                 style="fill:#000000;fill-opacity:1;fill-rule:nonzero;stroke:none"
                 id="path1467"
                 inkscape:connector-curvature="0" /></g><g
               id="g1469"><path
                 d="m 302.94,308.438 h 0.24 v 17.88 h -0.24 z"
                 style="fill:#000000;fill-opacity:1;fill-rule:nonzero;stroke:none"
                 id="path1471"
                 inkscape:connector-curvature="0" /></g><g
               id="g1473"><path
                 d="m 233.22,287.318 v -2.1 l -0.18,0.06 -4.08,1.92 -0.24,0.12 0.24,0.12 4.08,1.92 0.18,0.06 v -0.18 l -0.06,-0.12 -4.08,-1.92 -0.12,0.24 h 0.12 l 4.08,-1.92 -0.12,-0.24 -0.06,0.12 v 1.92"
                 style="fill:#000000;fill-opacity:1;fill-rule:nonzero;stroke:none"
                 id="path1475"
                 inkscape:connector-curvature="0" /></g><g
               id="g1477"><path
                 d="m 232.98,287.318 h 0.24 v 1.92 h -0.24 z"
                 style="fill:#000000;fill-opacity:1;fill-rule:nonzero;stroke:none"
                 id="path1479"
                 inkscape:connector-curvature="0" /></g><g
               id="g1481"><path
                 d="m 233.22,287.198 h 69.96 v 0.24 h -69.96 z"
                 style="fill:#000000;fill-opacity:1;fill-rule:nonzero;stroke:none"
                 id="path1483"
                 inkscape:connector-curvature="0" /></g><g
               id="g1485"><path
                 d="m 302.94,287.318 h 0.24 v 30.12 h -0.24 z"
                 style="fill:#000000;fill-opacity:1;fill-rule:nonzero;stroke:none"
                 id="path1487"
                 inkscape:connector-curvature="0" /></g></g></g></g></g></g></svg>