<?xml version="1.0" encoding="UTF-8" standalone="no"?>
<!-- Created with Inkscape (http://www.inkscape.org/) -->

<svg
   xmlns:dc="http://purl.org/dc/elements/1.1/"
   xmlns:cc="http://creativecommons.org/ns#"
   xmlns:rdf="http://www.w3.org/1999/02/22-rdf-syntax-ns#"
   xmlns:svg="http://www.w3.org/2000/svg"
   xmlns="http://www.w3.org/2000/svg"
   xmlns:sodipodi="http://sodipodi.sourceforge.net/DTD/sodipodi-0.dtd"
   xmlns:inkscape="http://www.inkscape.org/namespaces/inkscape"
   version="1.1"
   id="svg1637"
   xml:space="preserve"
   width="479.30435"
   height="511.43109"
   viewBox="0 0 479.30435 511.43109"
   sodipodi:docname="Listing6.18.svg"
   inkscape:version="0.92.3 (2405546, 2018-03-11)"><metadata
     id="metadata1643"><rdf:RDF><cc:Work
         rdf:about=""><dc:format>image/svg+xml</dc:format><dc:type
           rdf:resource="http://purl.org/dc/dcmitype/StillImage" /><dc:title></dc:title></cc:Work></rdf:RDF></metadata><defs
     id="defs1641" /><sodipodi:namedview
     pagecolor="#ffffff"
     bordercolor="#666666"
     borderopacity="1"
     objecttolerance="10"
     gridtolerance="10"
     guidetolerance="10"
     inkscape:pageopacity="0"
     inkscape:pageshadow="2"
     inkscape:window-width="1920"
     inkscape:window-height="1017"
     id="namedview1639"
     showgrid="false"
     inkscape:zoom="1.0630631"
     inkscape:cx="28.475503"
     inkscape:cy="232.50472"
     inkscape:window-x="1672"
     inkscape:window-y="-8"
     inkscape:window-maximized="1"
     inkscape:current-layer="g1645" /><g
     id="g1645"
     inkscape:groupmode="layer"
     inkscape:label="Hugo in Action Static sites and dynamic Jamstack apps (Atishay Jain) (z-lib.org)"
     transform="matrix(1.3333333,0,0,-1.3333333,-136.90293,762.30902)"><text
       id="text1779"
       style="font-variant:normal;font-weight:normal;font-size:7.98000002px;font-family:'Courier New';-inkscape-font-specification:Courier;writing-mode:lr-tb;fill:#262626;fill-opacity:1;fill-rule:nonzero;stroke:none"
       transform="scale(1,-1)"
       x="102.12"
       y="-566.67804"><tspan
         id="tspan1777"
         sodipodi:role="line"
         y="-566.67804"
         x="102.12 106.92396">&gt; </tspan></text>
<text
       id="text1783"
       style="font-variant:normal;font-weight:bold;font-size:7.98000002px;font-family:'Courier New';-inkscape-font-specification:Courier-Bold;writing-mode:lr-tb;fill:#262626;fill-opacity:1;fill-rule:nonzero;stroke:none"
       transform="scale(1,-1)"
       x="111.72"
       y="-566.67804"><tspan
         id="tspan1781"
         sodipodi:role="line"
         y="-566.67804"
         x="111.72 116.52396 121.32792 126.13188">hugo</tspan></text>
<text
       id="text1787"
       style="font-variant:normal;font-weight:normal;font-size:7.98000002px;font-family:'Courier New';-inkscape-font-specification:Courier;writing-mode:lr-tb;fill:#262626;fill-opacity:1;fill-rule:nonzero;stroke:none"
       transform="scale(1,-1)"
       x="135.72395"
       y="-566.67804"><tspan
         id="tspan1785"
         sodipodi:role="line"
         y="-566.67804"
         x="135.72395 140.46806 145.27203 150.07599 154.87994 159.68391 164.48787 169.29182 174.09579 178.89975 183.7037 188.50768 193.31163 198.11559 202.91954 207.72351 212.52747 217.33142">--templateMetrics </tspan></text>
<text
       id="text1791"
       style="font-variant:normal;font-weight:normal;font-size:7.98000002px;font-family:'Courier New';-inkscape-font-specification:Courier;writing-mode:lr-tb;fill:#262626;fill-opacity:1;fill-rule:nonzero;stroke:none"
       transform="scale(1,-1)"
       x="102.12"
       y="-556.659"><tspan
         id="tspan1789"
         sodipodi:role="line"
         y="-556.659"
         x="102.12 106.92396 111.72792 116.53188 121.33584 126.1398 130.94376 135.74773 140.49184 145.29579 150.09975 154.90372 159.70767 164.51163 169.31558 174.11955 178.92351 183.72746 188.53143 193.33539 198.13934 202.94331 207.74727">Start building sites … </tspan></text>
<text
       id="text1795"
       style="font-variant:normal;font-weight:normal;font-size:7.98000002px;font-family:'Courier New';-inkscape-font-specification:Courier;writing-mode:lr-tb;fill:#262626;fill-opacity:1;fill-rule:nonzero;stroke:none"
       transform="scale(1,-1)"
       x="102.12"
       y="-536.67902"><tspan
         id="tspan1793"
         sodipodi:role="line"
         y="-536.67902"
         x="102.12 106.92396 111.72792 116.53188 121.33584 126.1398 130.94376 135.74773 140.49184 145.29579 150.09975 154.90372 159.70767 164.51163 169.31558 174.11955 178.92351 183.72746">Template Metrics: </tspan></text>
<text
       id="text1799"
       style="font-variant:normal;font-weight:normal;font-size:7.98000002px;font-family:'Courier New';-inkscape-font-specification:Courier;writing-mode:lr-tb;fill:#262626;fill-opacity:1;fill-rule:nonzero;stroke:none"
       transform="scale(1,-1)"
       x="106.92396"
       y="-516.70001"><tspan
         id="tspan1797"
         sodipodi:role="line"
         y="-516.70001"
         x="106.92396 111.72792 116.53188 121.33584 126.1398 130.94376 135.74773 140.49184 145.29579 150.09975 154.90372 188.53143 193.33539 198.13936 202.94331 207.74727 212.55124 217.35519 222.15915 255.78688 260.53098 265.33493 270.13889 274.94287 279.74683 284.55078 289.35474">cumulative average maximum </tspan></text>
<text
       id="text1803"
       style="font-variant:normal;font-weight:normal;font-size:7.98000002px;font-family:'Courier New';-inkscape-font-specification:Courier;writing-mode:lr-tb;fill:#262626;fill-opacity:1;fill-rule:nonzero;stroke:none"
       transform="scale(1,-1)"
       x="116.53188"
       y="-506.67999"><tspan
         id="tspan1801"
         sodipodi:role="line"
         y="-506.67999"
         x="116.53188 121.33584 126.1398 130.94376 135.74773 140.49184 145.29579 150.09975 154.90372 183.72746 188.53143 193.33539 198.13934 202.94331 207.74727 212.55122 217.35519 222.15915 250.98291 255.78687 260.53098 265.33493 270.13892 274.94287 279.74683 284.55078 289.35474 298.96268 303.76663 308.57059 313.37454 318.1785 322.98245 332.59039 337.39435 342.1983 347.00226 351.80621 356.61017 361.41415 366.21811 371.02206">duration duration duration count template </tspan></text>
<text
       id="text1807"
       style="font-variant:normal;font-weight:normal;font-size:7.98000002px;font-family:'Courier New';-inkscape-font-specification:Courier;writing-mode:lr-tb;fill:#262626;fill-opacity:1;fill-rule:nonzero;stroke:none"
       transform="scale(1,-1)"
       x="106.92396"
       y="-496.66"><tspan
         id="tspan1805"
         sodipodi:role="line"
         y="-496.66"
         x="106.92396 111.72792 116.53188 121.33584 126.1398 130.94376 135.74773 140.49184 145.29579 150.09975 154.90372 183.72748 188.53143 193.33539 198.13936 202.94331 207.74727 212.55124 217.35519 222.15915 250.98291 255.78688 260.53098 265.33493 270.13889 274.94287 279.74683 284.55078 289.35474 298.96265 303.76663 308.57059 313.37454 318.1785 322.98245 332.59039 337.39435 342.1983 347.00226 351.80621 356.61017 361.41412 366.21808 371.02206">---------- -------- -------- ----- -------- </tspan></text>
<text
       id="text1811"
       style="font-variant:normal;font-weight:normal;font-size:7.98000002px;font-family:'Courier New';-inkscape-font-specification:Courier;writing-mode:lr-tb;fill:#262626;fill-opacity:1;fill-rule:nonzero;stroke:none"
       transform="scale(1,-1)"
       x="102.12"
       y="-486.70001"><tspan
         id="tspan1809"
         sodipodi:role="line"
         y="-486.70001"
         x="102.12 106.92396 111.72792 116.53188 121.33584 126.1398 130.94376 135.74773 140.49184 145.29579 150.09975 154.90372 159.70767 174.11955 178.92351 183.72746 188.53143 193.33539 198.13934 202.94331 207.74727 212.55122 217.35519 222.15915 226.9631 236.57103 241.37498 246.17894 250.98291 255.78687 260.53098 265.33493 270.13892 274.94287 279.74683 284.55078 289.35474 294.15869 308.57059 313.37454 318.1785 327.78644 332.59039 337.39435 342.1983 347.00226 351.80621 356.61017 361.41412 366.21811 371.02206 375.76617 380.57013 385.37408 390.17804 394.98199 399.78598 404.58994 409.39389 414.19785 419.0018 423.80576">369.675412ms 23.104713ms 147.820628ms 16 _default/single.html </tspan></text>
<text
       id="text1815"
       style="font-variant:normal;font-weight:normal;font-size:7.98000002px;font-family:'Courier New';-inkscape-font-specification:Courier;writing-mode:lr-tb;fill:#262626;fill-opacity:1;fill-rule:nonzero;stroke:none"
       transform="scale(1,-1)"
       x="102.12"
       y="-476.681"><tspan
         id="tspan1813"
         sodipodi:role="line"
         y="-476.681"
         x="102.12 106.92396 111.72792 116.53188 121.33584 126.1398 130.94376 135.74773 140.49184 145.29579 150.09975 154.90372 159.70767 178.92351 183.72746 188.53143 193.33539 198.13934 202.94331 207.74727 212.55122 217.35519 222.15915 226.9631 241.37498 246.17894 250.98291 255.78687 260.53098 265.33493 270.13892 274.94287 279.74683 284.55078 289.35474 294.15869 308.57059 313.37454 318.1785 327.78644 332.59039 337.39435 342.1983 347.00226 351.80621 356.61017 361.41412 366.21811 371.02206 375.76617 380.57013 385.37408 390.17804 394.98199 399.78598 404.58994 409.39389 414.19785 419.0018 423.80576 428.60971 433.4137 438.21765">245.782463ms 6.144561ms 146.59241ms 40 partials/core/head.html </tspan></text>
<text
       id="text1819"
       style="font-variant:normal;font-weight:normal;font-size:7.98000002px;font-family:'Courier New';-inkscape-font-specification:Courier;writing-mode:lr-tb;fill:#262626;fill-opacity:1;fill-rule:nonzero;stroke:none"
       transform="scale(1,-1)"
       x="102.12"
       y="-466.66101"><tspan
         id="tspan1817"
         sodipodi:role="line"
         y="-466.66101"
         x="102.12 106.92396 111.72792 116.53188 121.33584 126.1398 130.94376 135.74773 140.49184 145.29579 150.09975 154.90372 159.70767 178.92351 183.72746 188.53143 193.33539 198.13934 202.94331 207.74727 212.55122 217.35519 222.15915 226.9631 241.37498 246.17894 250.98291 255.78687 260.53098 265.33493 270.13892 274.94287 279.74683 284.55078 289.35474 294.15869 308.57059 313.37454 318.1785 327.78644 332.59039 337.39435 342.1983 347.00226 351.80621 356.61017 361.41412 366.21811 371.02206 375.76617 380.57013 385.37408 390.17804 394.98199 399.78598 404.58994 409.39389 414.19785 419.0018">239.945001ms 5.998625ms 145.99365ms 40 partials/class.html </tspan></text>
<text
       id="text1823"
       style="font-variant:normal;font-weight:normal;font-size:7.98000002px;font-family:'Courier New';-inkscape-font-specification:Courier;writing-mode:lr-tb;fill:#4d4d4d;fill-opacity:1;fill-rule:nonzero;stroke:none"
       transform="scale(1,-1)"
       x="102.12"
       y="-446.681"><tspan
         id="tspan1821"
         sodipodi:role="line"
         y="-446.681"
         x="102.12 106.92396 111.72792">...</tspan></text>
<text
       id="text1827"
       style="font-variant:normal;font-weight:normal;font-size:7.98000002px;font-family:'Courier New';-inkscape-font-specification:Courier;writing-mode:lr-tb;fill:#262626;fill-opacity:1;fill-rule:nonzero;stroke:none"
       transform="scale(1,-1)"
       x="106.92396"
       y="-436.66202"><tspan
         id="tspan1825"
         sodipodi:role="line"
         y="-436.66202"
         x="106.92396 111.72792 116.53188 121.33584 126.1398 130.94376 135.74773 140.49184 145.29579 150.09975 154.90372 178.92351 183.72748 188.53143 193.33539 198.13936 202.94331 207.74727 212.55124 217.35519 222.15915 246.17896 250.98291 255.78688 260.53098 265.33493 270.13889 274.94287 279.74683 284.55078 289.35474 308.57059 313.37454 322.98245 327.78641 332.59039 337.39435 342.1983 347.00226 351.80621 356.61017 361.41412 366.21808 371.02206 375.76617 380.57013 385.37408 390.17804 394.98199 399.78595 404.58994 409.39389">1.046679ms 209.335µs 313.026µs 5 partials/menu.html </tspan></text>
<text
       id="text1831"
       style="font-variant:normal;font-weight:normal;font-size:7.98000002px;font-family:'Courier New';-inkscape-font-specification:Courier;writing-mode:lr-tb;fill:#262626;fill-opacity:1;fill-rule:nonzero;stroke:none"
       transform="scale(1,-1)"
       x="111.72792"
       y="-426.70203"><tspan
         id="tspan1829"
         sodipodi:role="line"
         y="-426.70203"
         x="111.72792 116.53188 121.33584 126.1398 130.94376 135.74773 140.49184 145.29579 150.09975 154.9037 188.53143 193.33539 198.13934 202.94331 207.74727 212.55122 217.35519 222.15915 246.17896 250.98291 255.78687 260.53098 265.33493 270.13889 274.94284 279.74683 284.55078 289.35474 303.7666 308.57059 313.37454 322.98245 327.78641 332.59036 337.39435 342.1983 347.00226 351.80621 356.61017 361.41412 366.21808 371.02203 375.76614 380.57013 385.37408 390.17804 394.98199 399.78595 404.5899 409.39389 414.19785 419.0018">939.401µs 46.97µs 260.135µs 20 _internal/alias.html </tspan></text>
<text
       id="text1835"
       style="font-variant:normal;font-weight:normal;font-size:7.98000002px;font-family:'Courier New';-inkscape-font-specification:Courier;writing-mode:lr-tb;fill:#262626;fill-opacity:1;fill-rule:nonzero;stroke:none"
       transform="scale(1,-1)"
       x="116.53188"
       y="-416.68201"><tspan
         id="tspan1833"
         sodipodi:role="line"
         y="-416.68201"
         x="116.53188 121.33584 126.1398 130.94376 135.74773 140.49184 145.29579 150.09975 154.90372 183.72746 188.53143 193.33539 198.13934 202.94331 207.74727 212.55122 217.35519 222.15915 250.98291 255.78687 260.53098 265.33493 270.13892 274.94287 279.74683 284.55078 289.35474 308.57059 313.37454 322.98245 327.78644 332.59039 337.39435 342.1983 347.00226 351.80621 356.61017 361.41415 366.21811 371.02206 375.76617 380.57013 385.37411 390.17807 394.98203 399.78598 404.58994 409.39389 414.19788 419.00183 423.80579 428.60974 433.4137 438.21765 443.02161 447.82559 452.62955">807.44µs 807.44µs 807.44µs 1 partials/core/manifest.html </tspan></text>
<text
       id="text1839"
       style="font-variant:normal;font-weight:normal;font-size:7.98000002px;font-family:'Courier New';-inkscape-font-specification:Courier;writing-mode:lr-tb;fill:#262626;fill-opacity:1;fill-rule:nonzero;stroke:none"
       transform="scale(1,-1)"
       x="111.72792"
       y="-406.66302"><tspan
         id="tspan1837"
         sodipodi:role="line"
         y="-406.66302"
         x="111.72792 116.53188 121.33584 126.1398 130.94376 135.74773 140.49184 145.29579 150.09975 154.9037 178.92351 183.72746 188.53143 193.33539 198.13934 202.94331 207.74727 212.55122 217.35519 222.15915 246.17896 250.98291 255.78687 260.53098 265.33493 270.13889 274.94284 279.74683 284.55078 289.35474 308.57059 313.37454 322.98245 327.78641 332.59036 337.39435 342.1983 347.00226 351.80621 356.61017 361.41412 366.21808 371.02203 375.76614 380.57013 385.37408 390.17804 394.98199 399.78595 404.5899 409.39389 414.19785 419.0018 423.80576 428.60971 433.41367">629.844µs 209.948µs 628.044µs 3 shortcodes/divider.html </tspan></text>
<text
       id="text3355"
       style="font-variant:normal;font-weight:normal;font-size:7.97999954px;font-family:'Courier New';-inkscape-font-specification:Courier;writing-mode:lr-tb;fill:#262626;fill-opacity:1;fill-rule:nonzero;stroke:none;stroke-width:0.99999994"
       x="112.23001"
       y="-398.28104"
       transform="scale(1,-1)"><tspan
         style="stroke-width:0.99999994"
         id="tspan3353"
         sodipodi:role="line"
         y="-398.28104"
         x="112.23001 117.03397 121.83793 126.64189 131.44585 136.24982 140.99393 145.79788 150.60184 155.40578 179.4256 184.22955 189.03352 193.83748 198.64143 203.4454 208.24934 213.05331 217.85728 222.66124 246.68105 251.485 256.28897 261.03308 265.83704 270.64099 275.44495 280.24893 285.05289 289.85684 309.07266 313.87662 323.48453 328.28848 333.09244 337.89642 342.70038 347.50433 352.30829 357.11224 361.9162 366.72015 371.52411 376.26825 381.0722 385.87616 390.68011 395.48407 400.28802 405.09198 409.89597 414.69992 419.50388 424.30783 429.11179 433.91574">505.491µs 168.497µs 270.374µs 3 shortcodes/youtube.html</tspan></text>
<text
       id="text3359"
       style="font-variant:normal;font-weight:normal;font-size:7.97999954px;font-family:'Courier New';-inkscape-font-specification:Courier;writing-mode:lr-tb;fill:#262626;fill-opacity:1;fill-rule:nonzero;stroke:none;stroke-width:0.99999994"
       x="112.23001"
       y="-388.32101"
       transform="scale(1,-1)"><tspan
         style="stroke-width:0.99999994"
         id="tspan3357"
         sodipodi:role="line"
         y="-388.32101"
         x="112.23001 117.03397 121.83793 126.64189 131.44585 136.24982 140.99393 145.79788 150.60184 155.40578 179.4256 184.22955 189.03352 193.83748 198.64143 203.4454 208.24934 213.05331 217.85728 222.66124 246.68105 251.485 256.28897 261.03308 265.83704 270.64099 275.44495 280.24893 285.05289 289.85684 309.07266 313.87662 323.48453 328.28848 333.09244 337.89642 342.70038 347.50433 352.30829 357.11224 361.9162 366.72015 371.52411 376.26825 381.0722 385.87616 390.68011 395.48407 400.28802 405.09198 409.89597 414.69992 419.50388 424.30783 429.11179 433.91574 438.7197 443.52371 448.32767 453.13162 457.93558 462.73953">411.414µs 411.414µs 411.414µs 1 partials/util/background.html</tspan></text>
<text
       id="text3363"
       style="font-variant:normal;font-weight:normal;font-size:7.97999954px;font-family:'Courier New';-inkscape-font-specification:Courier;writing-mode:lr-tb;fill:#262626;fill-opacity:1;fill-rule:nonzero;stroke:none;stroke-width:0.99999994"
       x="112.23001"
       y="-378.30197"
       transform="scale(1,-1)"><tspan
         style="stroke-width:0.99999994"
         id="tspan3361"
         sodipodi:role="line"
         y="-378.30197"
         x="112.23001 117.03397 121.83793 126.64189 131.44585 136.24982 140.99393 145.79788 150.60184 155.40578 179.4256 184.22955 189.03352 193.83748 198.64143 203.4454 208.24934 213.05331 217.85728 222.66124 246.68105 251.485 256.28897 261.03308 265.83704 270.64099 275.44495 280.24893 285.05289 289.85684 309.07266 313.87662 323.48453 328.28848 333.09244 337.89642 342.70038 347.50433 352.30829 357.11224 361.9162">368.915µs 368.915µs 368.915µs 1 js/sw.js</tspan></text>
<text
       id="text3367"
       style="font-variant:normal;font-weight:normal;font-size:7.97999954px;font-family:'Courier New';-inkscape-font-specification:Courier;writing-mode:lr-tb;fill:#262626;fill-opacity:1;fill-rule:nonzero;stroke:none;stroke-width:0.99999994"
       x="112.23001"
       y="-368.28201"
       transform="scale(1,-1)"><tspan
         style="stroke-width:0.99999994"
         id="tspan3365"
         sodipodi:role="line"
         y="-368.28201"
         x="112.23001 117.03397 121.83793 126.64189 131.44585 136.24982 140.99393 145.79788 150.60184 155.40578 179.4256 184.22955 189.03352 193.83748 198.64143 203.4454 208.24934 213.05331 217.85728 222.66124 246.68105 251.485 256.28897 261.03308 265.83704 270.64099 275.44495 280.24893 285.05289 289.85684 309.07266 313.87662 323.48453 328.28848 333.09244 337.89642 342.70038 347.50433 352.30829 357.11224 361.9162 366.72015 371.52411 376.26825 381.0722 385.87616 390.68011 395.48407 400.28802 405.09198 409.89597 414.69992 419.50388 424.30783 429.11179 433.91574 438.7197 443.52371 448.32767 453.13162 457.93558 462.73953">223.668µs 223.668µs 223.668µs 1 _internal/_default/robots.txt</tspan></text>
<text
       id="text3371"
       style="font-variant:normal;font-weight:normal;font-size:7.97999954px;font-family:'Courier New';-inkscape-font-specification:Courier;writing-mode:lr-tb;fill:#262626;fill-opacity:1;fill-rule:nonzero;stroke:none;stroke-width:0.99999994"
       x="112.23001"
       y="-358.32205"
       transform="scale(1,-1)"><tspan
         style="stroke-width:0.99999994"
         id="tspan3369"
         sodipodi:role="line"
         y="-358.32205"
         x="112.23001 117.03397 121.83793 126.64189 131.44585 136.24982 140.99393 145.79788 150.60184 155.40578 179.4256 184.22955 189.03352 193.83748 198.64143 203.4454 208.24934 213.05331 217.85728 222.66124 246.68105 251.485 256.28897 261.03308 265.83704 270.64099 275.44495 280.24893 285.05289 289.85684 309.07266 313.87662 323.48453 328.28848 333.09244 337.89642 342.70038 347.50433 352.30829 357.11224 361.9162 366.72015 371.52411 376.26825 381.0722 385.87616 390.68011 395.48407 400.28802 405.09198 409.89597 414.69992 419.50388 424.30783 429.11179">198.997µs 198.997µs 198.997µs 1 shortcodes/repeat.html</tspan></text>
<text
       id="text3375"
       style="font-variant:normal;font-weight:normal;font-size:7.97999954px;font-family:'Courier New';-inkscape-font-specification:Courier;writing-mode:lr-tb;fill:#262626;fill-opacity:1;fill-rule:nonzero;stroke:none;stroke-width:0.99999994"
       x="112.23001"
       y="-348.30206"
       transform="scale(1,-1)"><tspan
         style="stroke-width:0.99999994"
         id="tspan3373"
         sodipodi:role="line"
         y="-348.30206"
         x="112.23001 117.03397 121.83793 126.64189 131.44585 136.24982 140.99393 145.79788 150.60184 155.40578 184.22955 189.03352 193.83748 198.64143 203.4454 208.24934 213.05331 217.85728 222.66124 246.68105 251.485 256.28897 261.03308 265.83704 270.64099 275.44495 280.24893 285.05289 289.85684 309.07266 313.87662 323.48453 328.28848 333.09244 337.89642 342.70038 347.50433 352.30829 357.11224 361.9162 366.72015 371.52411 376.26825 381.0722 385.87616 390.68011 395.48407 400.28802 405.09198 409.89597 414.69992 419.50388 424.30783 429.11179 433.91574 438.7197 443.52371">101.654µs 50.827µs 100.908µs 2 shortcodes/productInfo.md</tspan></text>
<text
       id="text3379"
       style="font-variant:normal;font-weight:normal;font-size:7.97999954px;font-family:'Courier New';-inkscape-font-specification:Courier;writing-mode:lr-tb;fill:#262626;fill-opacity:1;fill-rule:nonzero;stroke:none;stroke-width:0.99999994"
       x="117.03397"
       y="-338.28308"
       transform="scale(1,-1)"><tspan
         style="stroke-width:0.99999994"
         id="tspan3377"
         sodipodi:role="line"
         y="-338.28308"
         x="117.03397 121.83793 126.64189 131.44585 136.24982 140.99393 145.79788 150.60184 155.40581 184.22955 189.03352 193.83748 198.64143 203.4454 208.24934 213.05331 217.85728 222.66124 251.485 256.28897 261.03308 265.83704 270.64102 275.44498 280.24893 285.05289 289.85684 309.07266 313.87662 323.48453 328.28851 333.09247 337.89642 342.70038 347.50433 352.30829 357.11224 361.91626 366.72021 371.52417">85.716µs 85.716µs 85.716µs 1 js/main.js</tspan></text>
<text
       id="text3383"
       style="font-variant:normal;font-weight:normal;font-size:7.97999954px;font-family:'Courier New';-inkscape-font-specification:Courier;writing-mode:lr-tb;fill:#262626;fill-opacity:1;fill-rule:nonzero;stroke:none;stroke-width:0.99999994"
       x="117.03397"
       y="-328.32306"
       transform="scale(1,-1)"><tspan
         style="stroke-width:0.99999994"
         id="tspan3381"
         sodipodi:role="line"
         y="-328.32306"
         x="117.03397 121.83793 126.64189 131.44585 136.24982 140.99393 145.79788 150.60184 155.40581 184.22955 189.03352 193.83748 198.64143 203.4454 208.24934 213.05331 217.85728 222.66124 251.485 256.28897 261.03308 265.83704 270.64102 275.44498 280.24893 285.05289 289.85684 309.07266 313.87662 323.48453 328.28851 333.09247 337.89642 342.70038 347.50433 352.30829 357.11224 361.91626 366.72021 371.52417 376.26825 381.0722 385.87619 390.68015 395.4841 400.28806 405.09201 409.89597">60.208µs 60.208µs 60.208µs 1 json/manifest.json</tspan></text>
<text
       id="text3387"
       style="font-variant:normal;font-weight:normal;font-size:7.97999954px;font-family:'Courier New';-inkscape-font-specification:Courier;writing-mode:lr-tb;fill:#262626;fill-opacity:1;fill-rule:nonzero;stroke:none;stroke-width:0.99999994"
       x="193.83748"
       y="-298.32404"
       transform="scale(1,-1)"><tspan
         style="stroke-width:0.99999994"
         id="tspan3385"
         sodipodi:role="line"
         y="-298.32404"
         x="193.83748 198.64143 203.4454 208.24934 213.05331">| EN</tspan></text>
<text
       id="text3391"
       style="font-variant:normal;font-weight:normal;font-size:7.97999954px;font-family:'Courier New';-inkscape-font-specification:Courier;writing-mode:lr-tb;fill:#262626;fill-opacity:1;fill-rule:nonzero;stroke:none;stroke-width:0.99999994"
       x="102.62209"
       y="-288.30408"
       transform="scale(1,-1)"><tspan
         style="stroke-width:0.99999994"
         id="tspan3389"
         sodipodi:role="line"
         y="-288.30408"
         x="102.62209 107.42605 112.23001 117.03397 121.83793 126.64189 131.44585 136.24982 140.99393 145.79788 150.60184 155.40581 160.20976 165.01372 169.81767 174.62164 179.4256 184.22955 189.03352 193.83748 198.64143 203.4454 208.24934 213.05331 217.85728 222.66124">-------------------+-----</tspan></text>
<text
       id="text3395"
       style="font-variant:normal;font-weight:normal;font-size:7.97999954px;font-family:'Courier New';-inkscape-font-specification:Courier;writing-mode:lr-tb;fill:#262626;fill-opacity:1;fill-rule:nonzero;stroke:none;stroke-width:0.99999994"
       x="112.23001"
       y="-278.28406"
       transform="scale(1,-1)"><tspan
         style="stroke-width:0.99999994"
         id="tspan3393"
         sodipodi:role="line"
         y="-278.28406"
         x="112.23001 117.03397 121.83793 126.64189 131.44585 136.24982 193.83748 198.64143 203.4454 208.24934 213.05331">Pages | 68</tspan></text>
<text
       id="text3399"
       style="font-variant:normal;font-weight:normal;font-size:7.97999954px;font-family:'Courier New';-inkscape-font-specification:Courier;writing-mode:lr-tb;fill:#262626;fill-opacity:1;fill-rule:nonzero;stroke:none;stroke-width:0.99999994"
       x="112.23001"
       y="-268.32404"
       transform="scale(1,-1)"><tspan
         style="stroke-width:0.99999994"
         id="tspan3397"
         sodipodi:role="line"
         y="-268.32404"
         x="112.23001 117.03397 121.83793 126.64189 131.44585 136.24982 140.99393 145.79788 150.60184 155.40578 160.20976 165.01372 169.81767 174.62164 179.4256 184.22955 193.83748 198.64143 208.24934 213.05331">Paginator pages | 0</tspan></text>
<text
       id="text3403"
       style="font-variant:normal;font-weight:normal;font-size:7.97999954px;font-family:'Courier New';-inkscape-font-specification:Courier;writing-mode:lr-tb;fill:#262626;fill-opacity:1;fill-rule:nonzero;stroke:none;stroke-width:0.99999994"
       x="112.23001"
       y="-258.30505"
       transform="scale(1,-1)"><tspan
         style="stroke-width:0.99999994"
         id="tspan3401"
         sodipodi:role="line"
         y="-258.30505"
         x="112.23001 117.03397 121.83793 126.64189 131.44585 136.24982 140.99393 145.79788 150.60184 155.40578 160.20976 165.01372 169.81767 174.62164 179.4256 193.83748 198.64143 203.4454 208.24934 213.05331">Non-page files | 14</tspan></text>
<text
       id="text3407"
       style="font-variant:normal;font-weight:normal;font-size:7.97999954px;font-family:'Courier New';-inkscape-font-specification:Courier;writing-mode:lr-tb;fill:#262626;fill-opacity:1;fill-rule:nonzero;stroke:none;stroke-width:0.99999994"
       x="112.23001"
       y="-248.28502"
       transform="scale(1,-1)"><tspan
         style="stroke-width:0.99999994"
         id="tspan3405"
         sodipodi:role="line"
         y="-248.28502"
         x="112.23001 117.03397 121.83793 126.64189 131.44585 136.24982 140.99393 145.79788 150.60184 155.40578 160.20976 165.01372 169.81767 193.83748 198.64143 208.24934 213.05331">Static files | 8</tspan></text>
<text
       id="text3411"
       style="font-variant:normal;font-weight:normal;font-size:7.97999954px;font-family:'Courier New';-inkscape-font-specification:Courier;writing-mode:lr-tb;fill:#262626;fill-opacity:1;fill-rule:nonzero;stroke:none;stroke-width:0.99999994"
       x="112.23001"
       y="-238.32503"
       transform="scale(1,-1)"><tspan
         style="stroke-width:0.99999994"
         id="tspan3409"
         sodipodi:role="line"
         y="-238.32503"
         x="112.23001 117.03397 121.83793 126.64189 131.44585 136.24982 140.99393 145.79788 150.60184 155.40578 160.20976 165.01372 169.81767 174.62164 179.4256 184.22955 189.03352 193.83748 198.64143 203.4454 208.24934 213.05331">Processed images | 35</tspan></text>
<text
       id="text3415"
       style="font-variant:normal;font-weight:normal;font-size:7.97999954px;font-family:'Courier New';-inkscape-font-specification:Courier;writing-mode:lr-tb;fill:#262626;fill-opacity:1;fill-rule:nonzero;stroke:none;stroke-width:0.99999994"
       x="112.23001"
       y="-228.30501"
       transform="scale(1,-1)"><tspan
         style="stroke-width:0.99999994"
         id="tspan3413"
         sodipodi:role="line"
         y="-228.30501"
         x="112.23001 117.03397 121.83793 126.64189 131.44585 136.24982 140.99393 145.79788 193.83748 198.64143 203.4454 208.24934 213.05331">Aliases | 20</tspan></text>
<text
       id="text3419"
       style="font-variant:normal;font-weight:normal;font-size:7.97999954px;font-family:'Courier New';-inkscape-font-specification:Courier;writing-mode:lr-tb;fill:#262626;fill-opacity:1;fill-rule:nonzero;stroke:none;stroke-width:0.99999994"
       x="112.23001"
       y="-218.28603"
       transform="scale(1,-1)"><tspan
         style="stroke-width:0.99999994"
         id="tspan3417"
         sodipodi:role="line"
         y="-218.28603"
         x="112.23001 117.03397 121.83793 126.64189 131.44585 136.24982 140.99393 145.79788 150.60184 193.83748 198.64143 208.24934 213.05331">Sitemaps | 1</tspan></text>
<text
       id="text3423"
       style="font-variant:normal;font-weight:normal;font-size:7.97999954px;font-family:'Courier New';-inkscape-font-specification:Courier;writing-mode:lr-tb;fill:#262626;fill-opacity:1;fill-rule:nonzero;stroke:none;stroke-width:0.99999994"
       x="112.23001"
       y="-208.326"
       transform="scale(1,-1)"><tspan
         style="stroke-width:0.99999994"
         id="tspan3421"
         sodipodi:role="line"
         y="-208.326"
         x="112.23001 117.03397 121.83793 126.64189 131.44585 136.24982 140.99393 145.79788 193.83748 198.64143 208.24934 213.05331">Cleaned | 0</tspan></text>
<text
       id="text3427"
       style="font-variant:normal;font-weight:normal;font-size:7.97999954px;font-family:'Courier New';-inkscape-font-specification:Courier;writing-mode:lr-tb;fill:#000000;fill-opacity:1;fill-rule:nonzero;stroke:none;stroke-width:0.99999994"
       x="102.62209"
       y="-188.28703"
       transform="scale(1,-1)"><tspan
         style="stroke-width:0.99999994"
         id="tspan3425"
         sodipodi:role="line"
         y="-188.28703"
         x="102.62209 107.42605 112.23001 117.03397 121.83793 126.64189 131.44585 136.24982 140.99393 145.79788 150.60184 155.40581 160.20976 165.01372 169.81767 174.62164">Total in 263 ms</tspan></text>
</g></svg>