<?xml version="1.0" encoding="UTF-8" standalone="no"?>
<!-- Created with Inkscape (http://www.inkscape.org/) -->

<svg
   xmlns:dc="http://purl.org/dc/elements/1.1/"
   xmlns:cc="http://creativecommons.org/ns#"
   xmlns:rdf="http://www.w3.org/1999/02/22-rdf-syntax-ns#"
   xmlns:svg="http://www.w3.org/2000/svg"
   xmlns="http://www.w3.org/2000/svg"
   xmlns:sodipodi="http://sodipodi.sourceforge.net/DTD/sodipodi-0.dtd"
   xmlns:inkscape="http://www.inkscape.org/namespaces/inkscape"
   version="1.1"
   id="svg815"
   xml:space="preserve"
   width="496.47998"
   height="119.2"
   viewBox="0 0 496.47998 119.2"
   sodipodi:docname="Table6.2.svg"
   inkscape:version="0.92.3 (2405546, 2018-03-11)"><metadata
     id="metadata821"><rdf:RDF><cc:Work
         rdf:about=""><dc:format>image/svg+xml</dc:format><dc:type
           rdf:resource="http://purl.org/dc/dcmitype/StillImage" /><dc:title></dc:title></cc:Work></rdf:RDF></metadata><defs
     id="defs819"><clipPath
       clipPathUnits="userSpaceOnUse"
       id="clipPath1007"><path
         d="m 93.12,458.918 h 372 v -196.26 h -372 z"
         id="path1005"
         inkscape:connector-curvature="0"
         style="clip-rule:evenodd" /></clipPath><clipPath
       clipPathUnits="userSpaceOnUse"
       id="clipPath1015"><path
         d="m 93.12,459.938 h 372 v -199.92 h -372 z"
         id="path1013"
         inkscape:connector-curvature="0"
         style="clip-rule:evenodd" /></clipPath><clipPath
       clipPathUnits="userSpaceOnUse"
       id="clipPath1023"><path
         d="M 0,666.03 H 531 V 0.03 H 0 Z"
         id="path1021"
         inkscape:connector-curvature="0" /></clipPath><clipPath
       clipPathUnits="userSpaceOnUse"
       id="clipPath1157"><path
         d="m 93.12,459.938 h 372 v -199.92 h -372 z"
         id="path1155"
         inkscape:connector-curvature="0"
         style="clip-rule:evenodd" /></clipPath><clipPath
       clipPathUnits="userSpaceOnUse"
       id="clipPath1165"><path
         d="M 0,666.03 H 531 V 0.03 H 0 Z"
         id="path1163"
         inkscape:connector-curvature="0" /></clipPath></defs><sodipodi:namedview
     pagecolor="#ffffff"
     bordercolor="#666666"
     borderopacity="1"
     objecttolerance="10"
     gridtolerance="10"
     guidetolerance="10"
     inkscape:pageopacity="0"
     inkscape:pageshadow="2"
     inkscape:window-width="1920"
     inkscape:window-height="1017"
     id="namedview817"
     showgrid="false"
     fit-margin-top="0"
     fit-margin-left="0"
     fit-margin-right="0"
     fit-margin-bottom="0"
     inkscape:zoom="0.94144144"
     inkscape:cx="234.08881"
     inkscape:cy="-187.73065"
     inkscape:window-x="1672"
     inkscape:window-y="-8"
     inkscape:window-maximized="1"
     inkscape:current-layer="g823" /><g
     id="g823"
     inkscape:groupmode="layer"
     inkscape:label="Hugo in Action Static sites and dynamic Jamstack apps (Atishay Jain) (z-lib.org)"
     transform="matrix(1.3333333,0,0,-1.3333333,-124.16,750.93065)"><g
       id="g911"><path
         d="m 93.12,541.898 h 52.86 v 21 H 93.12 Z"
         style="fill:#48617c;fill-opacity:1;fill-rule:nonzero;stroke:none"
         id="path913"
         inkscape:connector-curvature="0" /></g><g
       id="g915"><text
         transform="matrix(1,0,0,-1,109.8,550.598)"
         style="font-variant:normal;font-size:7.98000002px;font-family:'Franklin Gothic Book';-inkscape-font-specification:FranklinGothic-Demi;writing-mode:lr-tb;fill:#ffffff;fill-opacity:1;fill-rule:nonzero;stroke:none"
         id="text919"><tspan
           x="0 5.1072001 7.865088 12.174288"
           y="0"
           sodipodi:role="line"
           id="tspan917">Area</tspan></text>
</g><g
       id="g921"><path
         d="m 145.98,541.898 h 213 v 21 h -213 z"
         style="fill:#48617c;fill-opacity:1;fill-rule:nonzero;stroke:none"
         id="path923"
         inkscape:connector-curvature="0" /></g><g
       id="g925"><text
         transform="matrix(1,0,0,-1,237.24,550.598)"
         style="font-variant:normal;font-size:7.98000002px;font-family:'Franklin Gothic Book';-inkscape-font-specification:FranklinGothic-Demi;writing-mode:lr-tb;fill:#ffffff;fill-opacity:1;fill-rule:nonzero;stroke:none"
         id="text929"><tspan
           x="0 4.9635601 9.2887201 12.01788 15.020754 17.111513 21.436674 23.527433"
           y="0"
           sodipodi:role="line"
           id="tspan927">Partials</tspan></text>
</g><g
       id="g931"><path
         d="m 358.98,541.898 h 106.5 v 21 h -106.5 z"
         style="fill:#48617c;fill-opacity:1;fill-rule:nonzero;stroke:none"
         id="path933"
         inkscape:connector-curvature="0" /></g><g
       id="g935"><text
         transform="matrix(1,0,0,-1,390.54,550.598)"
         style="font-variant:normal;font-size:7.98000002px;font-family:'Franklin Gothic Book';-inkscape-font-specification:FranklinGothic-Demi;writing-mode:lr-tb;fill:#ffffff;fill-opacity:1;fill-rule:nonzero;stroke:none"
         id="text939"><tspan
           x="0 4.79598 9.1131601 13.43034 16.15152 19.151201 23.468382 27.785563 32.102741 36.419922"
           y="0"
           sodipodi:role="line"
           id="tspan937">Shortcodes</tspan></text>
<text
         transform="matrix(1,0,0,-1,99.12,531.578)"
         style="font-variant:normal;font-size:7.98000002px;font-family:'Franklin Gothic Book';-inkscape-font-specification:FranklinGothic-Demi;writing-mode:lr-tb;fill:#262626;fill-opacity:1;fill-rule:nonzero;stroke:none"
         id="text943"><tspan
           x="0 5.2827601 9.2448301"
           y="0"
           sodipodi:role="line"
           id="tspan941">Use</tspan></text>
<text
         transform="matrix(1,0,0,-1,151.98,531.578)"
         style="font-variant:normal;font-weight:normal;font-size:7.98000002px;font-family:'Franklin Gothic Book';-inkscape-font-specification:FranklinGothic-Book;writing-mode:lr-tb;fill:#262626;fill-opacity:1;fill-rule:nonzero;stroke:none"
         id="text947"><tspan
           x="0 2.09076 6.4159198 8.8186979 11.341176 15.663942 22.266594 26.589359 28.520519 32.782639 35.3522 39.677357 213.01971 215.12245 219.4476 221.85039 228.40994 232.73511 235.30466 239.26674 243.59189 247.91705 250.31984 254.64499 258.97015 261.5397"
           y="0"
           sodipodi:role="line"
           id="tspan945">In templatesIn markup data</tspan></text>
<text
         transform="matrix(1,0,0,-1,99.12,514.598)"
         style="font-variant:normal;font-size:7.98000002px;font-family:'Franklin Gothic Book';-inkscape-font-specification:FranklinGothic-Demi;writing-mode:lr-tb;fill:#262626;fill-opacity:1;fill-rule:nonzero;stroke:none"
         id="text951"><tspan
           x="0 5.11518 9.4323597 13.74954 18.066719 22.064699"
           y="0"
           sodipodi:role="line"
           id="tspan949">Access</tspan></text>
<text
         transform="matrix(1,0,0,-1,151.98,514.598)"
         style="font-variant:normal;font-weight:normal;font-size:7.98000002px;font-family:'Franklin Gothic Book';-inkscape-font-specification:FranklinGothic-Book;writing-mode:lr-tb;fill:#262626;fill-opacity:1;fill-rule:nonzero;stroke:none"
         id="text955"><tspan
           x="0 5.2747798 9.59196 11.51514 14.87472 17.272711 21.43029 25.747471 30.06465 34.381828 36.305012 38.228191 42.545368 46.862549 49.26054 52.77972 57.096901 59.61459 61.532185 65.849365 70.166542 72.089722 76.406906 212.96466 217.44144 219.36461 221.2878 223.68579 227.16347 231.48145 234.04303 235.9662 240.28339 244.60057 246.52374 250.84093"
           y="0"
           sodipodi:role="line"
           id="tspan953">Only supplied variablesAll variables</tspan></text>
<text
         transform="matrix(1,0,0,-1,99.12,497.618)"
         style="font-variant:normal;font-size:7.98000002px;font-family:'Franklin Gothic Book';-inkscape-font-specification:FranklinGothic-Demi;writing-mode:lr-tb;fill:#262626;fill-opacity:1;fill-rule:nonzero;stroke:none"
         id="text959"><tspan
           x="0 5.2747798 9.59196 13.90914 18.22632 20.262815 24.579996"
           y="0"
           sodipodi:role="line"
           id="tspan957">Caching</tspan></text>
<text
         transform="matrix(1,0,0,-1,151.98,497.618)"
         style="font-variant:normal;font-weight:normal;font-size:7.98000002px;font-family:'Franklin Gothic Book';-inkscape-font-specification:FranklinGothic-Book;writing-mode:lr-tb;fill:#262626;fill-opacity:1;fill-rule:nonzero;stroke:none"
         id="text963"><tspan
           x="0 4.9555802 9.2727604 13.58994 15.986334 20.303514 24.620693 27.017088 30.855469 35.111202 38.949581 43.266762 47.583942 51.901123 54.297516 58.614697 62.931877 67.089455 71.345192 75.661575 78.057968 82.375145 86.692329 89.088722 91.011902 95.329079 99.646263 103.96344 106.52502 110.6826 113.07899 117.39617 121.55376 123.47694 127.79411 131.7921"
           y="0"
           sodipodi:role="line"
           id="tspan961">Can be cached based on inputs using </tspan></text>
<text
         transform="matrix(1,0,0,-1,286.32,497.618)"
         style="font-variant:normal;font-weight:normal;font-size:7.98000002px;font-family:'Courier New';-inkscape-font-specification:Courier;writing-mode:lr-tb;fill:#262626;fill-opacity:1;fill-rule:nonzero;stroke:none"
         id="text967"><tspan
           x="0 4.79598 9.59196 14.38794 19.18392 23.9799 28.775881 33.571861 38.36784 43.163818 47.959801 52.755779 57.491909"
           y="0"
           sodipodi:role="line"
           id="tspan965">partialCached</tspan></text>
<text
         transform="matrix(1,0,0,-1,364.98,497.618)"
         style="font-variant:normal;font-weight:normal;font-size:7.98000002px;font-family:'Franklin Gothic Book';-inkscape-font-specification:FranklinGothic-Book;writing-mode:lr-tb;fill:#262626;fill-opacity:1;fill-rule:nonzero;stroke:none"
         id="text971"><tspan
           x="0 5.2827601 9.6079197 12.17748 14.57946 18.425819 22.75098 26.59734 30.922501 35.247662"
           y="0"
           sodipodi:role="line"
           id="tspan969">Not cached</tspan></text>
<text
         transform="matrix(1,0,0,-1,99.12,480.579)"
         style="font-variant:normal;font-size:7.98000002px;font-family:'Franklin Gothic Book';-inkscape-font-specification:FranklinGothic-Demi;writing-mode:lr-tb;fill:#262626;fill-opacity:1;fill-rule:nonzero;stroke:none"
         id="text975"><tspan
           x="0 5.29074 9.6238804 12.626754 16.950317 19.687458 24.020597"
           y="0"
           sodipodi:role="line"
           id="tspan973">Returns</tspan></text>
<text
         transform="matrix(1,0,0,-1,151.98,480.579)"
         style="font-variant:normal;font-weight:normal;font-size:7.98000002px;font-family:'Franklin Gothic Book';-inkscape-font-specification:FranklinGothic-Book;writing-mode:lr-tb;fill:#262626;fill-opacity:1;fill-rule:nonzero;stroke:none"
         id="text979"><tspan
           x="0 4.9555802 9.2727604 13.58994 15.986334 18.502428 22.819609 27.136787 31.453968 35.771149 38.332729 40.729122 43.245216 47.5616 49.957993 54.275173 58.592354 61.153931 65.471115 69.788292 72.304382 74.700783 79.01796 83.335136 87.652321 90.048714 92.610291 96.927475 99.489052 103.80624 106.32233 110.63871 113.0351 116.55428 120.87147 122.79465 127.11182 131.429 135.58658 137.98297 142.30016 146.45773 148.85413 152.37331 156.69049 159.20659 161.12259 165.43976 169.75694 171.68013 175.9973 212.77313 217.72871 222.0459 226.36307 228.75946 233.07664 237.39383 239.317 242.67659 245.07298 247.58908 251.90625 256.22345 260.54062 264.85779 267.41937 269.81577 272.33188 276.64825 279.04465 283.36182 287.67899 290.24057 294.55777 298.87494 301.39102"
           y="0"
           sodipodi:role="line"
           id="tspan977">Can render to output and return values as variablesCan only render to output </tspan></text>
</g><g
       id="g981"><path
         d="m 145.86,473.798 h 0.24 v 89.4 h -0.24 z"
         style="fill:#000000;fill-opacity:1;fill-rule:nonzero;stroke:none"
         id="path983"
         inkscape:connector-curvature="0" /></g><g
       id="g985"><path
         d="m 358.86,473.798 h 0.24 v 89.4 h -0.24 z"
         style="fill:#000000;fill-opacity:1;fill-rule:nonzero;stroke:none"
         id="path987"
         inkscape:connector-curvature="0" /></g><g
       id="g989"><path
         d="m 93.12,562.658 h 372.36 v 0.48 H 93.12 Z"
         style="fill:#000000;fill-opacity:1;fill-rule:nonzero;stroke:none"
         id="path991"
         inkscape:connector-curvature="0" /></g><g
       id="g993"><path
         d="m 93.12,541.778 h 372.36 v 0.24 H 93.12 Z"
         style="fill:#000000;fill-opacity:1;fill-rule:nonzero;stroke:none"
         id="path995"
         inkscape:connector-curvature="0" /></g><g
       id="g997"><path
         d="m 93.12,473.798 h 372.36 v 0.24 H 93.12 Z"
         style="fill:#000000;fill-opacity:1;fill-rule:nonzero;stroke:none"
         id="path999"
         inkscape:connector-curvature="0" /></g></g></svg>